<?xml version="1.0"?>
<svg xmlns="http://www.w3.org/2000/svg" width="512" height="512" viewBox="0 0 128 128"><g><g><path d="M126.25,59H114A50.338,50.338,0,0,0,69,14V1.747H59V14A50.338,50.338,0,0,0,14,59H1.75V69H14a50.338,50.338,0,0,0,45,45v12.25H69V114a50.338,50.338,0,0,0,45-45h12.25ZM64,104.247A40.25,40.25,0,1,1,104.25,64,40.3,40.3,0,0,1,64,104.247Z" fill="#424242"/><path d="M92.123,59H86.7A23.318,23.318,0,0,0,69,41.294V35.873H59v5.421A23.318,23.318,0,0,0,41.3,59h-5.42V69H41.3A23.318,23.318,0,0,0,59,86.7v5.421H69V86.7A23.318,23.318,0,0,0,86.7,69h5.42ZM64,77.247A13.25,13.25,0,1,1,77.25,64,13.265,13.265,0,0,1,64,77.247Z" fill="#fbb540"/></g><g><path d="M69,128H59a1.75,1.75,0,0,1-1.75-1.75V115.558A52.111,52.111,0,0,1,12.44,70.747H1.75A1.75,1.75,0,0,1,0,69V59a1.75,1.75,0,0,1,1.75-1.75H12.44A52.111,52.111,0,0,1,57.25,12.436V1.747A1.75,1.75,0,0,1,59,0H69a1.75,1.75,0,0,1,1.75,1.75V12.436a52.111,52.111,0,0,1,44.81,44.811h10.69A1.75,1.75,0,0,1,128,59V69a1.75,1.75,0,0,1-1.75,1.75H115.56a52.111,52.111,0,0,1-44.81,44.811v10.689A1.75,1.75,0,0,1,69,128Zm-8.25-3.5h6.5V114a1.75,1.75,0,0,1,1.577-1.741,48.59,48.59,0,0,0,43.432-43.432A1.749,1.749,0,0,1,114,67.247h10.5v-6.5H114a1.749,1.749,0,0,1-1.741-1.577A48.59,48.59,0,0,0,68.827,15.738,1.749,1.749,0,0,1,67.25,14V3.5h-6.5V14a1.749,1.749,0,0,1-1.577,1.741A48.59,48.59,0,0,0,15.741,59.17,1.749,1.749,0,0,1,14,60.747H3.5v6.5H14a1.749,1.749,0,0,1,1.741,1.577,48.59,48.59,0,0,0,43.432,43.432A1.75,1.75,0,0,1,60.75,114ZM64,106A42,42,0,1,1,85.053,27.664a1.75,1.75,0,1,1-1.76,3.026,38.441,38.441,0,1,0,17.552,22.125,1.75,1.75,0,0,1,3.348-1.017A42.01,42.01,0,0,1,64,106ZM97.27,43.115a1.745,1.745,0,0,1-1.446-.763,38.95,38.95,0,0,0-3.192-4.066,1.75,1.75,0,0,1,2.6-2.34,42.36,42.36,0,0,1,3.479,4.433,1.75,1.75,0,0,1-1.444,2.736Z" fill="#332319"/><path d="M69,93.871H59a1.75,1.75,0,0,1-1.75-1.75V88.065A25.089,25.089,0,0,1,39.932,70.747H35.877A1.749,1.749,0,0,1,34.127,69V59a1.749,1.749,0,0,1,1.75-1.75h4.055A25.089,25.089,0,0,1,57.25,39.929V35.873A1.75,1.75,0,0,1,59,34.123H69a1.75,1.75,0,0,1,1.75,1.75v4.056A25.089,25.089,0,0,1,88.068,57.247h4.055A1.749,1.749,0,0,1,93.873,59V69a1.749,1.749,0,0,1-1.75,1.75H88.068A25.089,25.089,0,0,1,70.75,88.065v4.056A1.75,1.75,0,0,1,69,93.871Zm-8.25-3.5h6.5V86.7a1.75,1.75,0,0,1,1.373-1.709,21.562,21.562,0,0,0,16.371-16.37A1.749,1.749,0,0,1,86.7,67.247h3.67v-6.5H86.7a1.749,1.749,0,0,1-1.709-1.374A21.563,21.563,0,0,0,68.623,43a1.75,1.75,0,0,1-1.373-1.709V37.623h-6.5v3.671A1.75,1.75,0,0,1,59.377,43a21.563,21.563,0,0,0-16.371,16.37A1.749,1.749,0,0,1,41.3,60.747h-3.67v6.5H41.3a1.749,1.749,0,0,1,1.709,1.374,21.562,21.562,0,0,0,16.371,16.37A1.75,1.75,0,0,1,60.75,86.7ZM64,79A15.016,15.016,0,0,1,49,64a1.75,1.75,0,0,1,3.5,0A11.5,11.5,0,1,0,64,52.5a11.361,11.361,0,0,0-7.138,2.491,1.75,1.75,0,0,1-2.178-2.74A15,15,0,1,1,64,79Z" fill="#332319"/></g></g></svg>
