<svg id="Layer_1" enable-background="new 0 0 128 128" viewBox="0 0 128 128" xmlns="http://www.w3.org/2000/svg"><g><g><path d="m28.3 65h71.5v10.8h-71.5z" fill="#fbb540"/><path d="m28.3 115.5h71.5v10.8h-71.5z" fill="#fbb540"/><path d="m34 75.8h60v39.7h-60z" fill="#85bc94"/><path d="m58.2 75.8h11.6v39.7h-11.6z" fill="#707070"/><g fill="#424242"><path d="m69.8 89.8h24.2v11.6h-24.2z"/><path d="m34 89.8h24.2v11.6h-24.2z"/></g><path d="m99.7 42.5h-71.4v-5c0-19.7 16-35.7 35.7-35.7 19.7 0 35.7 16 35.7 35.7z" fill="#85bc94"/><path d="m81.9 42.5h-35.8c0-13.4 4.9-26.2 13.8-36.2l4.1-4.6 4.1 4.6c8.9 10 13.8 22.8 13.8 36.2z" fill="#5e8569"/></g><g fill="#332319"><path d="m99.7 44.3c1 0 1.7-.8 1.8-1.7v-5c0-3.6-.5-7.2-1.5-10.7-.3-.9-1.3-1.4-2.2-1.1s-1.4 1.2-1.2 2.1c.9 3.1 1.4 6.4 1.4 9.7v3.3h-14.4c-.4-13.3-5.4-25.9-14.2-35.8l-1.2-1.4c4.5.6 8.9 2 12.9 4.3.8.5 1.9.2 2.4-.6s.2-1.9-.6-2.4c-18-10.3-41-4.2-51.3 13.7-3.3 5.7-5 12.2-5 18.8v5c0 1 .8 1.8 1.8 1.8h2.5l27.7 19h-30.3c-1 0-1.7.8-1.8 1.8v10.8c0 1 .8 1.8 1.8 1.8h4v36.2h-4c-1 0-1.8.8-1.8 1.8v10.8c0 1 .8 1.8 1.7 1.8h10.1c1 0 1.8-.8 1.8-1.8s-.8-1.8-1.8-1.8h-8.3v-7.3h68v7.3h-45c-1 0-1.8.8-1.8 1.8s.8 1.5 1.8 1.5h46.8c1 0 1.7-.8 1.8-1.7v-10.8c0-1-.8-1.7-1.7-1.8h-4v-36.1h4c1 0 1.7-.8 1.8-1.7v-10.9c0-1-.8-1.8-1.8-1.8h-30.3l27.7-19h2.4zm-19.6-3.5h-32.2c.4-12.4 5.1-24.1 13.3-33.3l2.8-3.1 2.8 3.1c8.2 9.2 12.9 20.9 13.3 33.3zm-50.1-3.3c0-17.2 12.8-31.6 29.9-33.7l-1.2 1.4c-8.9 9.8-13.9 22.4-14.3 35.6h-14.4zm32.3 6.8v17.5l-25.4-17.5zm-26.6 47.3h20.7v8.1h-20.7zm20.7-3.5h-20.7v-10.5h20.7zm-20.7 15.1h20.7v10.5h-20.7zm24.2 10.5v-36.1h8.1v36.2zm32.4-14h-20.7v-8.1h20.7zm-20.7 14v-10.5h20.7v10.5zm20.7-25.6h-20.7v-10.5h20.7zm5.7-14h-68v-7.3h68zm-32.2-12.4v-17.4h25.4z"/><path d="m92.1 18.4c.5.8 1.6 1 2.4.5s1-1.6.5-2.4c-1-1.4-2-2.8-3.2-4-.6-.7-1.7-.8-2.5-.2s-.8 1.7-.2 2.5c1.2 1.1 2.1 2.3 3 3.6z"/></g></g></svg>