<svg height="512" viewBox="0 0 128 128" width="512" xmlns="http://www.w3.org/2000/svg"><g><g><path d="m47.188 64h-7.313a3 3 0 0 1 -3-3v-45.753h13.313v45.753a3 3 0 0 1 -3 3z" fill="#707070"/><path d="m80.813 64h7.312a3 3 0 0 0 3-3v-45.753h-13.312v45.753a3 3 0 0 0 3 3z" fill="#707070"/><path d="m103.969 109.5h16.281a6 6 0 0 0 6-6v-15.877h-22.281z" fill="#85bc94"/><path d="m103.969 69.75v17.873h22.281v-3.873a14 14 0 0 0 -14-14z" fill="#424242"/><path d="m24.031 109.5h-16.281a6 6 0 0 1 -6-6v-15.877h22.281z" fill="#85bc94"/><g fill="#424242"><path d="m24.031 69.75v17.873h-22.281v-3.873a14 14 0 0 1 14-14z"/><path d="m30.031 126.247h67.938a6 6 0 0 0 6-6v-10.747h-79.938v10.747a6 6 0 0 0 6 6z"/><path d="m36.875 42.25h13.313v11h-13.313z"/><path d="m77.813 42.25h13.313v11h-13.313z" transform="matrix(-1 0 0 -1 168.938 95.5)"/><g><path d="m36.875 15.247h-18.125a6 6 0 0 0 -6 6v7.125a6 6 0 0 0 6 6h18.125z"/><g><path d="m91.125 15.247v19.125h18.125a6 6 0 0 0 6-6v-7.125a6 6 0 0 0 -6-6z"/><path d="m50.188 15.247h27.625v19.125h-27.625z"/></g></g></g><path d="m91.125 34.372v26.628a3 3 0 0 1 -3 3h-7.312a3 3 0 0 1 -3-3v-26.628h-27.625v26.628a3 3 0 0 1 -3 3h-7.313a3 3 0 0 1 -3-3v-26.628h-12.844v75.128h79.938v-75.128z" fill="#5e8569"/><path d="m41.04 85.322-7.009-4.072v14.25a4 4 0 0 0 4 4h51.938a4 4 0 0 0 4-4v-14.25l-7.009 4.072a17 17 0 0 1 -8.54 2.3h-28.84a17 17 0 0 1 -8.54-2.3z" fill="#fbb540"/><path d="m34.031 76.72v4.53l7.009 4.072a17 17 0 0 0 8.54 2.3h28.84a17 17 0 0 0 8.54-2.3l7.009-4.072v-4.53a4 4 0 0 0 -4-4h-51.938a4 4 0 0 0 -4 4z" fill="#424242"/><path d="m103.187 15.247h-79.156v-7.5a6 6 0 0 1 6-6h67.157a6 6 0 0 1 6 6z" fill="#5e8569"/></g><g fill="#332319"><path d="m124.836 74.28a1.75 1.75 0 1 0 -2.8 2.107 12.145 12.145 0 0 1 2.464 7.363v2.123h-18.781v-14.373h6.531a1.75 1.75 0 0 0 0-3.5h-6.531v-31.878h3.531a7.759 7.759 0 0 0 7.75-7.75v-7.125a7.759 7.759 0 0 0 -7.75-7.75h-4.313v-5.75a7.758 7.758 0 0 0 -7.749-7.747h-31.188a1.75 1.75 0 0 0 0 3.5h31.188a4.255 4.255 0 0 1 4.249 4.25v5.75h-75.656v-5.753a4.255 4.255 0 0 1 4.25-4.25h9.342a1.75 1.75 0 1 0 0-3.5h-9.342a7.759 7.759 0 0 0 -7.75 7.75v5.753h-3.531a7.759 7.759 0 0 0 -7.75 7.747v7.125a7.759 7.759 0 0 0 7.75 7.75h3.531v31.878h-6.531a15.767 15.767 0 0 0 -15.75 15.75v19.75a7.759 7.759 0 0 0 7.75 7.75h14.531v9a7.759 7.759 0 0 0 7.75 7.75h67.938a7.759 7.759 0 0 0 7.75-7.75v-9h14.531a7.759 7.759 0 0 0 7.75-7.75v-19.75a15.615 15.615 0 0 0 -3.164-9.47zm-21.649-57.28h6.063a4.255 4.255 0 0 1 4.25 4.25v7.125a4.255 4.255 0 0 1 -4.25 4.25h-16.375v-15.625zm-23.624 27h9.812v7.5h-9.812zm0 11h9.812v6a1.251 1.251 0 0 1 -1.25 1.25h-7.312a1.251 1.251 0 0 1 -1.25-1.25zm9.812-20.628v6.128h-9.812v-23.5h9.812zm-13.312-1.75h-24.125v-15.622h24.125zm-37.438 11.378h9.813v7.5h-9.813zm0 11h9.813v6a1.252 1.252 0 0 1 -1.25 1.25h-7.313a1.251 1.251 0 0 1 -1.25-1.25zm9.813-20.628v6.128h-9.813v-23.5h9.813zm-33.938-6v-7.125a4.255 4.255 0 0 1 4.25-4.247h16.375v15.622h-16.375a4.255 4.255 0 0 1 -4.25-4.25zm20.625 7.75v24.878a4.756 4.756 0 0 0 4.75 4.75h7.313a4.756 4.756 0 0 0 4.75-4.75v-24.878h24.125v24.878a4.755 4.755 0 0 0 4.75 4.75h7.312a4.756 4.756 0 0 0 4.75-4.75v-24.878h9.344v71.628h-76.438v-71.628zm-31.625 47.628a12.263 12.263 0 0 1 12.25-12.25h6.531v14.373h-18.781zm0 19.75v-14.127h18.781v18.377h-14.531a4.255 4.255 0 0 1 -4.25-4.25zm98.719 16.747a4.255 4.255 0 0 1 -4.25 4.25h-67.938a4.255 4.255 0 0 1 -4.25-4.25v-9h76.438zm22.281-16.747a4.255 4.255 0 0 1 -4.25 4.25h-14.531v-18.377h18.781z"/><path d="m38.031 101.25h51.938a5.757 5.757 0 0 0 5.75-5.75v-18.78a5.757 5.757 0 0 0 -5.75-5.75h-51.938a5.757 5.757 0 0 0 -5.75 5.75v18.78a5.757 5.757 0 0 0 5.75 5.75zm51.938-3.5h-51.938a2.253 2.253 0 0 1 -2.25-2.25v-11.209l4.379 2.544a18.77 18.77 0 0 0 9.421 2.538h28.838a18.77 18.77 0 0 0 9.421-2.538l4.379-2.544v11.209a2.253 2.253 0 0 1 -2.25 2.25zm-54.188-21.03a2.253 2.253 0 0 1 2.25-2.25h51.938a2.253 2.253 0 0 1 2.25 2.25v3.523l-6.138 3.566a15.263 15.263 0 0 1 -7.662 2.064h-28.838a15.263 15.263 0 0 1 -7.662-2.064l-6.138-3.566z"/><path d="m50.5 3.5h4.375a1.75 1.75 0 1 0 0-3.5h-4.375a1.75 1.75 0 0 0 0 3.5z"/></g></g></svg>