<svg height="512" viewBox="0 0 128 128" width="512" xmlns="http://www.w3.org/2000/svg"><g><g><path d="m66.245 58.487a4.471 4.471 0 0 1 -4-6.472l15.543-31.057a4.469 4.469 0 0 1 4-2.471 4.472 4.472 0 0 1 4 6.473l-15.544 31.057a4.471 4.471 0 0 1 -3.999 2.47z" fill="#424242"/><path d="m86.245 58.487a4.471 4.471 0 0 1 -4-6.472l15.543-31.057a4.469 4.469 0 0 1 4-2.471 4.472 4.472 0 0 1 4 6.473l-15.544 31.057a4.471 4.471 0 0 1 -3.999 2.47z" fill="#424242"/><path d="m79.811 51.362a4.472 4.472 0 0 0 4-2.47l8.41-16.807a4.472 4.472 0 0 0 -4-6.473 4.471 4.471 0 0 0 -4 2.471l-8.409 16.807a4.471 4.471 0 0 0 3.999 6.472z" fill="#707070"/><path d="m110.756 61.948-11.74-23.461-5 9.992 8.742 17.47a4.471 4.471 0 1 0 8-4z" fill="#707070"/><path d="m74.016 28.5-8.742-17.47a4.472 4.472 0 0 0 -8 4l11.74 23.46z" fill="#707070"/><g fill="#424242"><path d="m69.016 38.487-2.002-4h-65.264v8h65.264z"/><path d="m101.018 34.487-2.002 4 2.002 4h25.232v-8z"/><path d="m26.213 109.513a4.471 4.471 0 0 1 -4-6.473l15.543-31.057a4.47 4.47 0 0 1 4-2.47 4.471 4.471 0 0 1 4 6.472l-15.544 31.057a4.47 4.47 0 0 1 -3.999 2.471z"/><path d="m46.213 109.513a4.471 4.471 0 0 1 -4-6.473l15.543-31.057a4.47 4.47 0 0 1 4-2.47 4.471 4.471 0 0 1 4 6.472l-15.544 31.057a4.47 4.47 0 0 1 -3.999 2.471z"/></g><path d="m39.779 102.388a4.471 4.471 0 0 0 4-2.471l8.41-16.807a4.471 4.471 0 0 0 -4-6.472 4.472 4.472 0 0 0 -4 2.47l-8.409 16.807a4.472 4.472 0 0 0 3.999 6.473z" fill="#707070"/><path d="m70.724 112.973-11.74-23.46-5 9.992 8.742 17.47a4.472 4.472 0 0 0 8-4z" fill="#707070"/><path d="m33.984 79.521-8.742-17.47a4.471 4.471 0 1 0 -8 4l11.74 23.461z" fill="#707070"/><path d="m28.984 89.513-2.002-4h-25.232v8h25.232z" fill="#424242"/><path d="m60.986 85.513-2.002 4 2.002 4h65.264v-8z" fill="#424242"/></g><g fill="#332319"><path d="m34.5 44.237a1.75 1.75 0 0 0 0-3.5h-4.893a1.75 1.75 0 1 0 0 3.5z"/><path d="m126.25 32.737h-22.4l3.5-6.994a6.221 6.221 0 1 0 -11.127-5.568l-3.069 6.132a6.167 6.167 0 0 0 -4.933-2.445c-.1 0-.193.016-.29.02a6.217 6.217 0 0 0 -11.708-3.707l-2.207 4.41-7.177-14.342a6.221 6.221 0 0 0 -11.128 5.567l8.47 16.927h-62.431a1.751 1.751 0 0 0 -1.75 1.75v8a1.75 1.75 0 0 0 1.75 1.75h16.125a1.75 1.75 0 0 0 0-3.5h-14.375v-4.5h62.432l1.126 2.25-.4.8-.726 1.45h-19.7a1.75 1.75 0 0 0 0 3.5h17.95l-3.5 6.994a6.222 6.222 0 0 0 11.128 5.569l3.068-6.132a6.169 6.169 0 0 0 4.932 2.444c.1 0 .194-.015.291-.02a6.217 6.217 0 0 0 11.709 3.708l2.206-4.409 7.176 14.341a6.226 6.226 0 0 0 9.477 2.057 1.749 1.749 0 1 0 -2.207-2.715 2.672 2.672 0 0 1 -1.7.6 2.706 2.706 0 0 1 -2.434-1.5l-8.355-16.694 3.043-6.08.436.873 5.365 10.722a1.75 1.75 0 0 0 3.131-1.566l-4.1-8.191h22.4a1.749 1.749 0 0 0 1.75-1.75v-8a1.75 1.75 0 0 0 -1.748-1.751zm-67.29-21.137a2.667 2.667 0 0 1 2.315-1.291 2.7 2.7 0 0 1 2.433 1.5l8.351 16.691-3.043 6.08-.436-.88-9.739-19.457a2.668 2.668 0 0 1 .119-2.643zm9.719 43.637a2.706 2.706 0 0 1 -2.434 1.5 2.722 2.722 0 0 1 -2.434-3.937l4.767-9.524 1.757-3.513 9.016-18.017a2.707 2.707 0 0 1 2.433-1.5 2.721 2.721 0 0 1 2.434 3.94zm8.821-6.916a2.665 2.665 0 0 1 -.118-2.648l8.41-16.807a2.707 2.707 0 0 1 2.433-1.5 2.72 2.72 0 0 1 2.433 3.94l-8.41 16.806a2.705 2.705 0 0 1 -2.434 1.5 2.668 2.668 0 0 1 -2.314-1.291zm11.183 6.912a2.706 2.706 0 0 1 -2.434 1.5 2.722 2.722 0 0 1 -2.437-3.933l15.541-31.059a2.707 2.707 0 0 1 2.433-1.5 2.721 2.721 0 0 1 2.434 3.94l-4.768 9.519-2 4-5 9.992zm35.821-14.5h-22.404l-1.126-2.25.653-1.3.473-.945h22.4z"/><path d="m126.25 83.763h-62.432l3.5-6.994a6.221 6.221 0 1 0 -11.127-5.569l-3.069 6.132a6.169 6.169 0 0 0 -4.933-2.444c-.1 0-.193.015-.29.02a6.217 6.217 0 0 0 -11.708-3.708l-2.207 4.41-7.177-14.341a6.221 6.221 0 1 0 -11.127 5.567l8.47 16.927h-22.4a1.75 1.75 0 0 0 -1.75 1.75v8a1.751 1.751 0 0 0 1.75 1.75h22.4l-3.5 6.994a6.221 6.221 0 1 0 11.127 5.568l3.069-6.132a6.17 6.17 0 0 0 4.933 2.445c.1 0 .193-.016.29-.02a6.217 6.217 0 0 0 11.708 3.707l2.207-4.41 7.177 14.343a6.222 6.222 0 0 0 11.128-5.568l-8.471-16.927h62.432a1.75 1.75 0 0 0 1.75-1.75v-8a1.749 1.749 0 0 0 -1.75-1.75zm-107.322-21.142a2.671 2.671 0 0 1 2.315-1.291 2.706 2.706 0 0 1 2.434 1.5l8.35 16.687-3.043 6.083-10.174-20.33a2.67 2.67 0 0 1 .118-2.649zm-15.428 29.142v-4.5h22.4l.625 1.249.5 1-.852 1.7-.274.546zm25.147 14.5a2.708 2.708 0 0 1 -2.434 1.5 2.721 2.721 0 0 1 -2.433-3.94l4.767-9.523.137-.274 10.637-21.259a2.7 2.7 0 0 1 2.433-1.5 2.721 2.721 0 0 1 2.434 3.933l-1.561 3.121-8.41 16.807zm8.817-6.912a2.67 2.67 0 0 1 -.119-2.648l8.411-16.808a2.705 2.705 0 0 1 2.433-1.5 2.721 2.721 0 0 1 2.434 3.938l-8.411 16.802a2.707 2.707 0 0 1 -2.433 1.5 2.67 2.67 0 0 1 -2.315-1.288zm11.183 6.912a2.708 2.708 0 0 1 -2.434 1.5 2.721 2.721 0 0 1 -2.433-3.94l1.562-3.121 8.41-16.806 5.567-11.125a2.7 2.7 0 0 1 2.433-1.5 2.721 2.721 0 0 1 2.436 3.929l-4.767 9.527-2 4-5 9.993zm20.393 10.137a2.669 2.669 0 0 1 -2.315 1.291 2.705 2.705 0 0 1 -2.434-1.5l-8.35-16.686 3.043-6.081 10.174 20.333a2.666 2.666 0 0 1 -.118 2.643zm55.46-24.637h-62.433l-.719-1.436-.407-.814 1.125-2.25h62.434z"/></g></g></svg>