<svg height="512" viewBox="0 0 128 128" width="512" xmlns="http://www.w3.org/2000/svg"><g><g><path d="m11.758 115.561h44.805v10.686h-44.805z" fill="#5e8569"/><path d="m56.563 115.561h-44.805l20.016-65.428h24.789z" fill="#424242"/><path d="m71.438 115.561h44.805v10.686h-44.805z" fill="#5e8569"/><path d="m71.438 115.561h44.804l-20.016-65.428h-24.788z" fill="#424242"/><rect fill="#5e8569" height="23.508" rx="5" width="84.487" x="21.756" y="26.625"/><path d="m27.875 1.747h29.063v9.878h-29.063z" fill="#5e8569"/><path d="m32.75 11.625h19.313v15h-19.313z" fill="#424242"/><path d="m71.063 1.747h29.063v9.878h-29.063z" fill="#5e8569"/><path d="m75.938 11.625h19.313v15h-19.313z" fill="#424242" transform="matrix(-1 0 0 -1 171.188 38.25)"/><path d="m93.84 50.133h-59.68v-5.754a6 6 0 0 1 6-6h47.68a6 6 0 0 1 6 6z" fill="#85bc94"/><g fill="#707070"><path d="m56.563 65.063h-12.395l-10.008 50.498h22.403z"/><path d="m71.438 65.063h12.394l10.008 50.498h-22.402z"/></g></g><g fill="#332319"><path d="m117.986 115.5c0-.049-.009-.1-.014-.144a1.794 1.794 0 0 0 -.045-.245c-.005-.021-.005-.043-.012-.064l-7.839-25.625a1.75 1.75 0 1 0 -3.347 1.023l7.148 23.363h-18.6l-9.729-49.085a1.749 1.749 0 0 0 -1.716-1.41h-10.644v-11.43h21.743l2.838 9.274a1.749 1.749 0 1 0 3.346-1.023l-2.524-8.251h2.653a6.758 6.758 0 0 0 6.75-6.75v-13.508a6.758 6.758 0 0 0 -6.75-6.75h-4.244v-11.5h3.125a1.75 1.75 0 0 0 1.75-1.75v-9.878a1.75 1.75 0 0 0 -1.75-1.747h-29.062a1.749 1.749 0 0 0 -1.75 1.75v9.878a1.749 1.749 0 0 0 1.75 1.75h3.125v11.5h-20.375v-11.5h3.125a1.75 1.75 0 0 0 1.75-1.75v-9.881a1.75 1.75 0 0 0 -1.75-1.747h-29.063a1.75 1.75 0 0 0 -1.75 1.75v9.878a1.75 1.75 0 0 0 1.75 1.75h3.125v11.5h-1.812a1.75 1.75 0 0 0 0 3.5h72.056a3.254 3.254 0 0 1 3.25 3.25v13.505a3.254 3.254 0 0 1 -3.25 3.25h-5.654v-4a7.759 7.759 0 0 0 -7.75-7.75h-47.68a7.759 7.759 0 0 0 -7.75 7.75v4h-5.654a3.254 3.254 0 0 1 -3.25-3.25v-8.383a1.75 1.75 0 0 0 -3.5 0v8.383a6.758 6.758 0 0 0 6.75 6.75h2.653l-19.325 63.166c-.006.021-.006.043-.011.064a1.794 1.794 0 0 0 -.045.245c-.005.048-.013.095-.014.144 0 .02-.006.038-.006.058v10.687a1.75 1.75 0 0 0 1.75 1.75h44.805a1.75 1.75 0 0 0 1.75-1.75v-74.364h11.375v74.364a1.749 1.749 0 0 0 1.75 1.75h44.8a1.75 1.75 0 0 0 1.75-1.75v-10.687c.004-.02-.001-.038-.002-.06zm-45.173-112h25.562v6.375h-25.562zm-43.188 0h25.563v6.375h-25.563zm4.875 21.375v-11.5h15.813v11.5zm43.188 0v-11.5h15.812v11.5zm-41.778 19.504a4.255 4.255 0 0 1 4.25-4.25h47.68a4.255 4.255 0 0 1 4.25 4.25v4h-56.18zm18.9 80.118h-41.302v-7.187h41.305zm0-10.687h-18.519l9.314-47h9.208zm0-50.5h-10.642a1.749 1.749 0 0 0 -1.716 1.41l-9.729 49.09h-18.6l18.946-61.927h21.744zm27.582 3.5 9.314 47h-18.518v-47zm32.1 57.684h-41.3v-7.184h41.3z"/><path d="m102.266 69.876a1.751 1.751 0 0 0 -1.162 2.185l2.29 7.482a1.749 1.749 0 1 0 3.346-1.023l-2.289-7.482a1.75 1.75 0 0 0 -2.185-1.162z"/></g></g></svg>