<?xml version="1.0"?>
<svg xmlns="http://www.w3.org/2000/svg" width="512" height="512" viewBox="0 0 128 128"><g><g><path d="M73.314,40.409V32.344a3,3,0,0,0-3-3H49a3,3,0,0,0-3,3v8.065Z" fill="#424242"/><path d="M73.283,40.409H46.029a44,44,0,1,0,27.254,0Z" fill="#707070"/><path d="M93.656,84a1.75,1.75,0,0,1-1.75-1.75,31.964,31.964,0,0,0-20.927-30.2,1.75,1.75,0,1,1,1.227-3.278,35.434,35.434,0,0,1,23.2,33.477A1.75,1.75,0,0,1,93.656,84Z" fill="#424242"/><path d="M96.547,33.344h-.124a15.816,15.816,0,0,1-15.8-15.8,7.806,7.806,0,0,0-7.8-7.8H71.453a7.806,7.806,0,0,0-7.8,7.8v11.8h-8v-11.8a15.816,15.816,0,0,1,15.8-15.8h1.376a15.816,15.816,0,0,1,15.8,15.8,7.806,7.806,0,0,0,7.8,7.8h.124a7.806,7.806,0,0,0,7.8-7.8V1.747h8v15.8A15.816,15.816,0,0,1,96.547,33.344Z" fill="#ea6b65"/></g><g><path d="M16.6,73a1.749,1.749,0,0,0,2.13-1.261c.308-1.2.674-2.405,1.086-3.57A1.75,1.75,0,0,0,16.511,67c-.447,1.262-.843,2.563-1.177,3.868A1.75,1.75,0,0,0,16.6,73Z" fill="#332319"/><path d="M91.906,82.247a1.75,1.75,0,1,0,3.5,0,35.434,35.434,0,0,0-23.2-33.477,1.75,1.75,0,1,0-1.227,3.278A31.964,31.964,0,0,1,91.906,82.247Z" fill="#332319"/><path d="M112.344,0h-8a1.75,1.75,0,0,0-1.75,1.75v15.8a1.75,1.75,0,0,0,3.5,0V3.5h4.5v14.05A14.064,14.064,0,0,1,96.547,31.594h-.124A14.064,14.064,0,0,1,82.376,17.547,9.557,9.557,0,0,0,72.829,8H71.453a9.557,9.557,0,0,0-9.547,9.547V27.594h-4.5V17.547A14.063,14.063,0,0,1,71.453,3.5h1.376A14.064,14.064,0,0,1,86.876,17.547a9.557,9.557,0,0,0,9.547,9.547h.124a1.75,1.75,0,0,0,0-3.5h-.124a6.054,6.054,0,0,1-6.047-6.047A17.567,17.567,0,0,0,72.829,0H71.453A17.567,17.567,0,0,0,53.906,17.547V27.594H49a4.756,4.756,0,0,0-4.75,4.75v6.833A46.061,46.061,0,0,0,21.76,56.616a1.75,1.75,0,0,0,2.9,1.964A42.526,42.526,0,0,1,46.31,42.159H73a42.251,42.251,0,1,1-55.6,40.088,1.75,1.75,0,1,0-3.5,0A45.75,45.75,0,1,0,75.063,39.175V32.344a4.755,4.755,0,0,0-4.75-4.75H65.406V17.547A6.053,6.053,0,0,1,71.453,11.5h1.376a6.053,6.053,0,0,1,6.047,6.046A17.567,17.567,0,0,0,96.423,35.094h.124a17.567,17.567,0,0,0,17.547-17.547V1.747A1.751,1.751,0,0,0,112.344,0ZM71.563,32.344v6.315H47.749V32.344A1.251,1.251,0,0,1,49,31.094H70.313A1.25,1.25,0,0,1,71.563,32.344Z" fill="#332319"/></g></g></svg>
