<svg id="Layer_1" enable-background="new 0 0 128 128" viewBox="0 0 128 128" xmlns="http://www.w3.org/2000/svg"><g><g><path d="m51.1 51.9h25.8v54.2h-25.8z" fill="#fbb540"/><path d="m59.1 59.9h9.8v38.2h-9.8z" fill="#ea6b65"/><path d="m72.9 116.3h-17.8l-4-10.2h25.8z" fill="#707070"/><path d="m55.1 41.7h17.8l4 10.2h-25.8z" fill="#707070"/><path d="m77 126.2h-26c-2.7 0-5-2.2-5-5 0-2.7 2.2-5 5-5h26c2.7 0 5 2.2 5 5 0 2.8-2.2 5-5 5z" fill="#424242"/><path d="m72.9 41.7-1.8-11.8c-.8-5.4-2-10.7-3.5-15.9l-3.6-12.3-3.6 12.2c-1.5 5.2-2.7 10.6-3.5 15.9l-1.8 11.8h17.8z" fill="#fbb540"/></g><path d="m78.6 73.5v5.5c0 1-.8 1.8-1.8 1.8s-1.7-.8-1.7-1.8v-5.5c0-1 .8-1.8 1.8-1.8s1.7.8 1.7 1.8zm-9.7-15.4c1 0 1.8.8 1.8 1.8v38.2c0 1-.8 1.8-1.8 1.8h-9.8c-1 0-1.8-.8-1.8-1.8v-38.2c0-1 .8-1.8 1.8-1.8zm-1.8 3.5h-6.3v34.7h6.3zm16.7 59.7c0 3.7-3 6.7-6.7 6.7h-26.1c-3.7 0-6.7-3-6.7-6.7s3-6.7 6.7-6.7h1.6l-3.1-7.8s-.1-.3-.1-.6v-54.3c0-.3 0-.4.1-.7l3.9-10 1.8-11.6c.1-1 1-1.6 2-1.5s1.6 1 1.5 2l-1.5 9.8h13.7l-1.5-9.8c-.8-5.3-2-10.6-3.5-15.7l-1.9-6.4-1.9 6.4c-.3 1-.6 2-.8 3-.2.9-1.2 1.5-2.1 1.3s-1.5-1.2-1.3-2.1v-.1c.3-1.1.6-2.1.9-3.1l3.6-12.2c.3-.9 1.2-1.5 2.2-1.2.6.2 1 .6 1.2 1.2l3.6 12.2c1.6 5.3 2.7 10.7 3.6 16.2l1.8 11.6 3.9 10c0 .1.1.3.1.7v11.7c0 1-.8 1.8-1.8 1.8s-1.8-.8-1.8-1.8v-10h-22.3v50.7h22.3v-15.4c0-1 .8-1.8 1.8-1.8s1.8.8 1.8 1.8v17.3c0 .3-.1.6-.1.6l-3.1 7.8h1.4c3.7 0 6.7 3 6.8 6.7zm-27.5-77.9-2.6 6.7h20.6l-2.6-6.7zm0 71.2h15.4l2.6-6.7h-20.6zm24 6.7c0-1.8-1.4-3.2-3.2-3.2h-26.1c-1.8 0-3.2 1.4-3.2 3.2s1.4 3.2 3.2 3.2h26c1.8 0 3.2-1.4 3.3-3.2z" fill="#332319"/></g></svg>