<svg id="Layer_1" enable-background="new 0 0 128 128" viewBox="0 0 128 128" xmlns="http://www.w3.org/2000/svg"><g><g><circle cx="29.9" cy="85.1" fill="#424242" r="16.1"/><circle cx="88.5" cy="85.1" fill="#424242" r="16.1"/><g fill="#707070"><path d="m29.9 93.2c-4.5 0-8.1-3.6-8.1-8.1s3.6-8.1 8.1-8.1 8.1 3.6 8.1 8.1c0 4.4-3.6 8.1-8.1 8.1z"/><path d="m29.9 93.2c-4.5 0-8.1-3.6-8.1-8.1s3.6-8.1 8.1-8.1 8.1 3.6 8.1 8.1c0 4.4-3.6 8.1-8.1 8.1z"/></g><g fill="#707070"><path d="m88.5 93.2c-4.5 0-8.1-3.6-8.1-8.1s3.6-8.1 8.1-8.1 8.1 3.6 8.1 8.1c0 4.4-3.6 8.1-8.1 8.1z"/><path d="m88.5 93.2c-4.5 0-8.1-3.6-8.1-8.1s3.6-8.1 8.1-8.1 8.1 3.6 8.1 8.1c0 4.4-3.6 8.1-8.1 8.1z"/></g><path d="m6.9 45.5 4.8 5.8h10.2l-8.9-10.8c-.7-.9-1.9-1.4-3-1.4-2.2 0-3.9 1.8-3.9 3.9 0 .9.3 1.8.8 2.5z" fill="#fbb540"/><path d="m45.9 39.1c-2.2 0-3.9 1.8-3.9 3.9 0 .9.3 1.8.9 2.5l4.8 5.8h10.2l-8.8-10.8c-.9-.9-2.1-1.4-3.2-1.4z" fill="#fbb540"/><path d="m103.9 80.3c1 3.1 1 6.4 0 9.5h17.6c2.6 0 4.8-2.1 4.8-4.8 0-2.6-2.1-4.8-4.8-4.8z" fill="#707070"/><g fill="#707070"><path d="m13.8 85.1c0-1.6.2-3.2.7-4.8h-12.7v9.5h12.8c-.5-1.5-.8-3.1-.8-4.7z"/><path d="m73.2 80.3h-27.9c1 3.1 1 6.4 0 9.5h27.8c-.9-3.1-.9-6.4.1-9.5z"/></g><path d="m45.3 51.3v29h27.8c1.5-5 5.4-8.9 10.3-10.5v-18.5z" fill="#85bc94"/><g fill="#5e8569"><path d="m7.8 51.3c-3.3 0-6 2.7-6 6v23h12.8c2.6-8.5 11.6-13.2 20.1-10.6 5.1 1.6 9.1 5.5 10.6 10.6v-29z"/><path d="m107.2 62.3c-2.7 0-5.3-1.2-7-3.3l-6.6-7.7-20-24.5c-2.7 0-4.8 2.2-4.8 4.8 0 1.1.4 2.2 1.1 3.1l13.6 16.6v18.5c8.4-2.8 17.5 1.8 20.3 10.2 0 .1.1.2.1.3h12.9v-8.6c0-5.2-4.2-9.4-9.4-9.4-.1 0-.1 0-.2 0z"/></g></g><path d="m39.8 85.1c0 1-.8 1.8-1.8 1.8s-1.8-.8-1.8-1.8c0-3.5-2.8-6.3-6.3-6.3s-6.3 2.8-6.3 6.3 2.8 6.3 6.3 6.3c1 0 1.8.8 1.8 1.8s-.8 1.8-1.8 1.8c-5.4 0-9.8-4.4-9.8-9.8s4.4-9.8 9.8-9.8 9.9 4.2 9.9 9.7zm58.6 0c0 5.4-4.4 9.8-9.8 9.8s-9.8-4.4-9.8-9.8 4.4-9.8 9.8-9.8c5.4-.1 9.8 4.3 9.8 9.8zm-3.5 0c0-3.5-2.8-6.3-6.3-6.3s-6.3 2.8-6.3 6.3 2.8 6.3 6.3 6.3c3.4 0 6.3-2.8 6.3-6.3zm33.1 0c0 3.6-2.9 6.5-6.5 6.5h-16.4c-3.6 9.2-13.9 13.7-23.1 10.1-4.6-1.8-8.3-5.5-10.1-10.1h-25.3c-3.6 9.2-13.9 13.7-23.1 10.1-4.6-1.8-8.3-5.5-10.1-10.1h-11.6c-1 0-1.7-.8-1.8-1.8v-32.5c0-4.3 3.5-7.7 7.8-7.8h.2l-2.4-3c-1.9-2.5-1.5-6.1 1-8 2.4-1.9 5.8-1.5 7.8.8l8.3 10.2h21.2l-2.4-3c-2-2.4-1.6-6 .8-8s6-1.6 8 .8l8.3 10.2h21.2l-11.3-13.7c-2.3-2.8-1.9-6.9.9-9.2 1.2-1 2.6-1.5 4.2-1.5.5 0 1 .2 1.4.6l4.5 5.6c.6.8.5 1.9-.3 2.5-.7.6-1.8.5-2.4-.2l-4-4.8c-1.6.4-2.6 2.1-2.2 3.7.1.4.3.8.6 1.2l13.6 16.6s.4.4.4 1.1v16.2c8.4-1.6 16.8 3 19.9 11h9.9v-6.8c0-2.1-.8-4-2.3-5.5s-3.4-2.3-5.5-2.2c-3.2 0-6.3-1.4-8.4-3.9l-6.6-7.7c-.6-.7-.6-1.8.2-2.5.7-.6 1.8-.6 2.5.2l6.6 7.7c1.4 1.7 3.5 2.7 5.7 2.7 6.2-.1 11.3 4.8 11.4 11v7h3c3.5 0 6.4 2.9 6.4 6.5zm-46.3-16.5v-15.5h-34.6v25.5h24.9c1.7-4.5 5.2-8.1 9.7-10zm-37.5-24.2 4.2 5.2h5.6l-6.5-8c-.4-.5-1-.8-1.7-.8-1.2 0-2.2 1-2.2 2.2.1.5.3 1 .6 1.4zm-31.7 5.2h5.6l-6.5-8c-.4-.5-1-.8-1.7-.8-1.2 0-2.2 1-2.2 2.2 0 .5.2 1 .5 1.4zm-9 29h9.8c3.6-9.2 14-13.7 23.2-10.1 2.7 1.1 5.2 2.8 7.1 5.1v-20.5h-35.8c-2.3 0-4.2 1.9-4.3 4.3zm8.6 6.5c0-1 .1-2 .3-3h-8.9v6h8.8c-.1-1-.2-2-.2-3zm22.1-13.7c-7.6-2.3-15.6 1.9-17.9 9.5-.8 2.8-.8 5.7 0 8.5 2.2 7.4 10.4 11.8 18 9.5 4.5-1.4 8-4.9 9.4-9.4 2.3-7.7-2-15.8-9.5-18.1zm36.5 13.7c0-1 .1-2 .3-3h-23.5c.3 2 .3 4 0 6h23.4c-.1-1-.2-2-.2-3zm22.1-13.7c-2.9-.9-5.9-.8-8.8.1-7.4 2.5-11.4 10.4-9.2 17.8 2.3 7.6 10.4 11.8 18 9.5 4.5-1.4 8.1-4.9 9.4-9.4 2.4-7.9-1.9-15.7-9.4-18zm31.7 13.7c0-1.7-1.3-3-3-3h-15.4c.3 2 .3 4 0 6h15.4c1.7 0 3-1.4 3-3zm-39.1-41c.6.8 1.7.9 2.5.3s.9-1.7.3-2.5l-1.8-2.3c-.6-.7-1.7-.9-2.5-.2-.7.6-.9 1.7-.2 2.5zm-25.7 13.9h-6.2c-1 0-1.8.8-1.8 1.8s.8 1.8 1.8 1.8h6.2c1 0 1.8-.8 1.8-1.8s-.9-1.8-1.8-1.8z" fill="#332319"/></g></svg>