<svg height="512" viewBox="0 0 128 128" width="512" xmlns="http://www.w3.org/2000/svg"><g><g><path d="m24 32v80.879a66.515 66.515 0 0 0 79.859.105l.141-.105v-80.879a183.083 183.083 0 0 1 -38.217-28.5l-1.783-1.753-1.783 1.747a183.109 183.109 0 0 1 -38.217 28.506z" fill="#5e8569"/><path d="m64 90.596-9.518 5.004 1.819-10.599-7.701-7.505 10.641-1.546 4.759-9.643 4.759 9.643 10.641 1.546-7.701 7.505 1.819 10.599z" fill="#fbb540"/><g fill="#424242"><path d="m64 106.24a56.036 56.036 0 0 1 -30-8.614v10.008a56.036 56.036 0 0 0 30 8.614 56.04 56.04 0 0 0 30-8.617v-10.008a56.04 56.04 0 0 1 -30 8.617z"/><path d="m64 15.545a193.542 193.542 0 0 1 -30 22.2v12.434a193.606 193.606 0 0 0 30-22.2 193.654 193.654 0 0 0 30 22.2v-12.437a193.59 193.59 0 0 1 -30-22.197z"/><path d="m64 40.419a193.606 193.606 0 0 1 -30 22.2v12.434a193.606 193.606 0 0 0 30-22.2 193.654 193.654 0 0 0 30 22.2v-12.437a193.654 193.654 0 0 1 -30-22.197z"/></g></g><g fill="#332319"><path d="m104 72.38a1.75 1.75 0 0 1 -1.75-1.75v-2.571a1.75 1.75 0 0 1 3.5 0v2.571a1.75 1.75 0 0 1 -1.75 1.75z"/><path d="m64 127.913a68.2 68.2 0 0 1 -41.054-13.638 1.75 1.75 0 0 1 -.7-1.4v-80.875a1.751 1.751 0 0 1 .89-1.524 181.315 181.315 0 0 0 37.856-28.232l1.783-1.744a1.75 1.75 0 0 1 2.45 0l1.783 1.747a181.367 181.367 0 0 0 37.852 28.23 1.751 1.751 0 0 1 .89 1.523v25.736a1.75 1.75 0 0 1 -3.5 0v-24.718a184.611 184.611 0 0 1 -37.691-28.274l-.559-.544-.559.547a184.556 184.556 0 0 1 -37.691 28.271v78.982a65.106 65.106 0 0 0 76.5 0v-31.047a1.75 1.75 0 0 1 3.5 0v31.924a1.751 1.751 0 0 1 -.7 1.4l-.142.105a68.2 68.2 0 0 1 -40.908 13.531z"/><path d="m73.518 97.35a1.746 1.746 0 0 1 -.815-.2l-8.703-4.577-8.7 4.575a1.75 1.75 0 0 1 -2.542-1.848l1.662-9.692-7.042-6.863a1.75 1.75 0 0 1 .97-2.985l9.731-1.414 4.352-8.817a1.749 1.749 0 0 1 3.138 0l4.352 8.817 9.731 1.414a1.751 1.751 0 0 1 .97 2.985l-7.042 6.867 1.662 9.688a1.751 1.751 0 0 1 -1.724 2.046zm-9.518-8.504a1.744 1.744 0 0 1 .814.2l6.379 3.354-1.218-7.1a1.749 1.749 0 0 1 .5-1.549l5.163-5.03-7.133-1.036a1.751 1.751 0 0 1 -1.318-.958l-3.187-6.466-3.19 6.463a1.747 1.747 0 0 1 -1.317.958l-7.132 1.036 5.161 5.03a1.747 1.747 0 0 1 .5 1.549l-1.218 7.1 6.378-3.353a1.751 1.751 0 0 1 .818-.198z"/><path d="m64 118a58.028 58.028 0 0 1 -30.931-8.883 1.749 1.749 0 0 1 -.819-1.481v-10.01a1.749 1.749 0 0 1 2.681-1.481 54.794 54.794 0 0 0 58.138 0 1.75 1.75 0 0 1 2.681 1.481v10.008a1.751 1.751 0 0 1 -.819 1.482 58.052 58.052 0 0 1 -30.931 8.884zm-28.25-11.343a54.8 54.8 0 0 0 56.5 0v-5.963a58.085 58.085 0 0 1 -28.25 7.296 58.076 58.076 0 0 1 -28.25-7.3z"/><path d="m94 51.929a1.749 1.749 0 0 1 -.9-.251 196.238 196.238 0 0 1 -29.1-21.345 196.209 196.209 0 0 1 -29.1 21.345 1.75 1.75 0 0 1 -2.653-1.5v-12.436a1.749 1.749 0 0 1 .847-1.5 192.229 192.229 0 0 0 29.729-22 1.752 1.752 0 0 1 2.348 0 192.227 192.227 0 0 0 29.729 22 1.749 1.749 0 0 1 .847 1.5v12.437a1.749 1.749 0 0 1 -1.747 1.75zm-58.25-13.2v8.326a191.511 191.511 0 0 0 27.076-20.37 1.752 1.752 0 0 1 2.348 0 191.436 191.436 0 0 0 27.076 20.369v-8.326a195.976 195.976 0 0 1 -28.25-20.828 195.944 195.944 0 0 1 -28.25 20.828z"/><path d="m94 76.8a1.749 1.749 0 0 1 -.9-.251 196.238 196.238 0 0 1 -29.1-21.342c-3.643 3.239-7.473 6.384-11.4 9.366a1.75 1.75 0 1 1 -2.115-2.788c4.273-3.243 8.426-6.684 12.343-10.227a1.752 1.752 0 0 1 2.348 0 191.436 191.436 0 0 0 27.074 20.37v-8.328a196.045 196.045 0 0 1 -28.25-20.83 196.013 196.013 0 0 1 -28.25 20.83v8.326c1.925-1.2 3.831-2.435 5.693-3.687a1.75 1.75 0 1 1 1.957 2.907c-2.767 1.854-5.624 3.675-8.5 5.406a1.75 1.75 0 0 1 -2.653-1.5v-12.436a1.749 1.749 0 0 1 .847-1.5 192.229 192.229 0 0 0 29.729-22 1.752 1.752 0 0 1 2.348 0 192.227 192.227 0 0 0 29.729 22 1.749 1.749 0 0 1 .847 1.5v12.437a1.749 1.749 0 0 1 -1.747 1.747z"/></g></g></svg>