<?xml version="1.0"?>
<svg xmlns="http://www.w3.org/2000/svg" width="512" height="512" viewBox="0 0 128 128"><g><g><path d="M94.57,107.879,64,126.247,33.43,107.879a40,40,0,0,1-19.4-34.287V1.747h99.938V73.592A40,40,0,0,1,94.57,107.879Z" fill="#424242"/><path d="M38.58,99.308A30.157,30.157,0,0,1,24.031,73.592V11.747h79.938V73.592A30.157,30.157,0,0,1,89.42,99.308L64,114.581Z" fill="#5e8569"/><path d="M80.25,64.128a18.389,18.389,0,0,1-8.294,15.4L69,81.471V52.511H79.937v-10H69V33.753h.139a5.5,5.5,0,1,0,0-11H58.861a5.5,5.5,0,1,0,0,11H59v8.758H48.062v10H59v28.96l-2.956-1.948A18.386,18.386,0,0,1,47.75,64.128h-10A28.356,28.356,0,0,0,50.542,87.873L64,96.74l13.458-8.866A28.36,28.36,0,0,0,90.25,64.128Z" fill="#fbb540"/></g><g><path d="M113.969,0H14.031a1.749,1.749,0,0,0-1.75,1.75V73.592a41.965,41.965,0,0,0,20.247,35.787L63.1,127.747a1.749,1.749,0,0,0,1.8,0l30.571-18.368a41.965,41.965,0,0,0,20.247-35.787V1.747A1.75,1.75,0,0,0,113.969,0Zm-1.75,73.6a38.448,38.448,0,0,1-18.55,32.787L64,124.205,34.331,106.379a38.448,38.448,0,0,1-18.55-32.787V3.5h96.438Z" fill="#332319"/><path d="M24.031,52.5a1.749,1.749,0,0,0,1.75-1.75v-11a1.75,1.75,0,0,0-3.5,0v11A1.749,1.749,0,0,0,24.031,52.5Z" fill="#332319"/><path d="M37.679,100.808,63.1,116.081a1.749,1.749,0,0,0,1.8,0l25.42-15.273a31.917,31.917,0,0,0,15.4-27.216V11.747a1.75,1.75,0,0,0-1.75-1.75H24.031a1.749,1.749,0,0,0-1.75,1.75V26.5a1.75,1.75,0,0,0,3.5,0v-13h76.438v60.1a28.4,28.4,0,0,1-13.7,24.216L64,112.539,39.481,97.808a28.4,28.4,0,0,1-13.7-24.216V64a1.75,1.75,0,0,0-3.5,0v9.595A31.917,31.917,0,0,0,37.679,100.808Z" fill="#332319"/><path d="M57.007,78.06A16.638,16.638,0,0,1,49.5,64.128a1.749,1.749,0,0,0-1.75-1.75h-10A1.749,1.749,0,0,0,36,64.128,30.1,30.1,0,0,0,49.579,89.334L63.037,98.2a1.749,1.749,0,0,0,1.926,0l13.458-8.866A1.75,1.75,0,1,0,76.5,86.413L64,94.645,51.505,86.412A26.6,26.6,0,0,1,39.557,65.878h6.518a20.121,20.121,0,0,0,9.006,15.105l2.956,1.949a1.75,1.75,0,0,0,2.713-1.461V52.511A1.749,1.749,0,0,0,59,50.761H49.812v-6.5H59a1.749,1.749,0,0,0,1.75-1.75V33.753A1.749,1.749,0,0,0,59,32h-.139a3.752,3.752,0,1,1,0-7.5H69.139a3.752,3.752,0,1,1,0,7.5H69a1.749,1.749,0,0,0-1.75,1.75v8.758A1.749,1.749,0,0,0,69,44.261h9.187v6.5H69a1.749,1.749,0,0,0-1.75,1.75V81.472a1.75,1.75,0,0,0,2.713,1.461l2.956-1.949a20.127,20.127,0,0,0,9.006-15.106h6.518a26.589,26.589,0,0,1-4.184,12.7,1.75,1.75,0,1,0,2.941,1.9A30.106,30.106,0,0,0,92,64.128a1.749,1.749,0,0,0-1.75-1.75h-10a1.749,1.749,0,0,0-1.75,1.75,16.647,16.647,0,0,1-7.507,13.935l-.243.16V54.261h9.187a1.749,1.749,0,0,0,1.75-1.75v-10a1.749,1.749,0,0,0-1.75-1.75H70.75V35.322A7.252,7.252,0,0,0,69.139,21H58.861A7.252,7.252,0,0,0,57.25,35.322v5.439H48.062a1.75,1.75,0,0,0-1.75,1.75v10a1.75,1.75,0,0,0,1.75,1.75H57.25V78.222Z" fill="#332319"/></g></g></svg>
