<svg height="512" viewBox="0 0 128 128" width="512" xmlns="http://www.w3.org/2000/svg"><g><g><path d="m107.25 117.312a10.823 10.823 0 0 0 -7.231 2.768 15.283 15.283 0 0 0 -21.707-9.38v-31.29a4.7 4.7 0 0 1 4.7-4.7c7.084 0 13.169-3.6 15.9-8.765.511.032 1.026.055 1.547.055 11.2 0 20.284-7.734 20.284-17.275 0-9.282-8.6-16.852-19.379-17.255 0-.056.009-.11.009-.165 0-7.156-6.811-12.956-15.213-12.956-.378 0-.748.025-1.119.048-.796-9.311-9.909-16.65-21.041-16.65s-20.246 7.339-21.048 16.646c-.371-.023-.741-.048-1.119-.048-8.4 0-15.213 5.8-15.213 12.956 0 .055.008.109.009.165-10.782.4-19.379 7.973-19.379 17.255 0 9.541 9.081 17.279 20.284 17.279.521 0 1.036-.023 1.547-.055 2.734 5.164 8.819 8.765 15.9 8.765a4.7 4.7 0 0 1 4.7 4.7v31.29a15.282 15.282 0 0 0 -21.706 9.376 10.854 10.854 0 0 0 -17.923 6.167h107.89a10.87 10.87 0 0 0 -10.692-8.931z" fill="#707070"/><g fill="#424242"><path d="m27.534 57.746c-6.634 0-12.034-4.046-12.034-9.025a1.75 1.75 0 0 1 3.5 0c0 2.943 3.988 5.525 8.534 5.525a1.75 1.75 0 0 1 0 3.5z"/><path d="m100.466 57.746a1.75 1.75 0 0 1 0-3.5c4.546 0 8.534-2.582 8.534-5.525a1.75 1.75 0 0 1 3.5 0c0 4.979-5.4 9.025-12.034 9.025z"/><path d="m52.917 21c-.051 0-.1 0-.152-.007a1.748 1.748 0 0 1 -1.593-1.893c.44-5.1 6.075-9.1 12.828-9.1a1.75 1.75 0 0 1 0 3.5c-4.787 0-9.065 2.7-9.342 5.905a1.749 1.749 0 0 1 -1.741 1.595z"/><path d="m57.687 99.313a1.751 1.751 0 0 1 -1.75-1.75v-23.063a1.75 1.75 0 0 1 3.5 0v23.063a1.75 1.75 0 0 1 -1.75 1.75z"/><path d="m68.375 109a1.749 1.749 0 0 1 -1.75-1.75v-23.061a1.75 1.75 0 0 1 3.5 0v23.062a1.749 1.749 0 0 1 -1.75 1.749z"/></g></g><g fill="#332319"><path d="m107.25 115.563a12.565 12.565 0 0 0 -6.39 1.746 17.142 17.142 0 0 0 -15.548-10.059 16.88 16.88 0 0 0 -7.8 1.9 1.75 1.75 0 0 0 1.6 3.112 13.407 13.407 0 0 1 6.2-1.51 13.616 13.616 0 0 1 13.026 9.814 1.749 1.749 0 0 0 2.847.822 9.1 9.1 0 0 1 14.407 3.111h-103.184a9.1 9.1 0 0 1 14.407-3.111 1.749 1.749 0 0 0 2.847-.822 13.616 13.616 0 0 1 13.025-9.814 13.408 13.408 0 0 1 6.2 1.51 1.75 1.75 0 0 0 2.551-1.556v-31.296a6.461 6.461 0 0 0 -6.453-6.454c-6.2 0-11.837-3.075-14.356-7.834a1.717 1.717 0 0 0 -1.66-.928c-.474.031-.95.052-1.434.052-10.221 0-18.535-6.965-18.535-15.525 0-8.321 7.772-15.135 17.694-15.506a1.75 1.75 0 0 0 1.685-1.749.857.857 0 0 0 -.01-.165c0-6.179 6.04-11.206 13.464-11.206.325 0 .644.021 1.009.044a1.742 1.742 0 0 0 1.853-1.6 14.12 14.12 0 0 1 1.9-5.916 1.75 1.75 0 0 0 -3.026-1.76 17.749 17.749 0 0 0 -2.139 5.737c-8.6.174-15.634 5.923-16.476 13.228-11.032 1.101-19.454 9.147-19.454 18.893 0 10.49 9.885 19.025 22.034 19.025.19 0 .377 0 .565-.008 3.331 5.33 9.827 8.718 16.885 8.718a2.957 2.957 0 0 1 2.953 2.954v28.67a16.827 16.827 0 0 0 -5.25-.83 17.141 17.141 0 0 0 -15.547 10.059 12.6 12.6 0 0 0 -18.8 8.627 1.751 1.751 0 0 0 1.718 2.064h107.884a1.751 1.751 0 0 0 1.723-2.061 12.606 12.606 0 0 0 -12.415-10.376z"/><path d="m54.673 5.506a22.326 22.326 0 0 1 9.327-2.006c10.1 0 18.576 6.609 19.305 15.046a1.8 1.8 0 0 0 1.9 1.594c.319-.021.639-.042.964-.042 7.424 0 13.464 5.027 13.466 11.133 0 .051-.012.186-.012.238a1.75 1.75 0 0 0 1.685 1.749c9.919.368 17.692 7.182 17.692 15.503 0 8.56-8.315 15.525-18.534 15.525-.484 0-.96-.021-1.434-.052a1.72 1.72 0 0 0 -1.66.928c-2.52 4.759-8.154 7.834-14.356 7.834a6.462 6.462 0 0 0 -6.454 6.454v6.621a1.75 1.75 0 0 0 3.5 0v-6.621a2.958 2.958 0 0 1 2.954-2.954c7.058 0 13.554-3.388 16.885-8.718.188 0 .375.008.565.008 12.149 0 22.034-8.535 22.034-19.025 0-9.746-8.422-17.792-19.454-18.894-.846-7.305-7.879-13.055-16.478-13.227-1.75-9.434-11.315-16.6-22.568-16.6a25.864 25.864 0 0 0 -10.8 2.33 1.75 1.75 0 0 0 1.471 3.176z"/><path d="m78.312 94.406a1.751 1.751 0 0 0 -1.75 1.75v4.423a1.75 1.75 0 0 0 3.5 0v-4.423a1.75 1.75 0 0 0 -1.75-1.75z"/><path d="m19 48.721a1.75 1.75 0 0 0 -3.5 0c0 4.976 5.4 9.025 12.034 9.025a1.75 1.75 0 0 0 0-3.5c-4.546 0-8.534-2.582-8.534-5.525z"/><path d="m100.466 57.746c6.636 0 12.034-4.049 12.034-9.025a1.75 1.75 0 0 0 -3.5 0c0 2.943-3.988 5.525-8.534 5.525a1.75 1.75 0 0 0 0 3.5z"/><path d="m52.765 21c.05 0 .1.007.152.007a1.749 1.749 0 0 0 1.741-1.6c.277-3.207 4.555-5.907 9.342-5.907a1.75 1.75 0 0 0 0-3.5c-6.753 0-12.388 4-12.828 9.105a1.748 1.748 0 0 0 1.593 1.895z"/><path d="m55.937 74.5v23.063a1.75 1.75 0 0 0 3.5 0v-23.063a1.75 1.75 0 0 0 -3.5 0z"/><path d="m66.625 84.189v23.062a1.75 1.75 0 0 0 3.5 0v-23.062a1.75 1.75 0 0 0 -3.5 0z"/></g></g></svg>