<svg height="512" viewBox="0 0 128 128" width="512" xmlns="http://www.w3.org/2000/svg"><g><g><path d="m7.755 56.9v62.35a4 4 0 0 0 4 4h104.49a4 4 0 0 0 4-4v-62.35z" fill="#424242"/><path d="m64 113.248a23.175 23.175 0 1 1 23.176-23.175 23.2 23.2 0 0 1 -23.176 23.175z" fill="#fbb540"/><path d="m126.25 40.9a4 4 0 0 0 -4-4h-116.5a4 4 0 0 0 -4 4v16h124.5z" fill="#5e8569"/><path d="m78.196 86.198h-10.321v-10.321h-7.75v10.321h-10.322v7.75h10.322v10.322h7.75v-10.322h10.321z" fill="#e6e9ed"/><path d="m79.22 8.75v10h-30.44v-10a4 4 0 0 1 4-4h22.44a4 4 0 0 1 4 4z" fill="#fbb540"/><g fill="#424242"><path d="m91.656 8.752h-12.433v10h12.433a3 3 0 0 1 3 3v15.148h10v-15.148a13.014 13.014 0 0 0 -13-13z"/><path d="m36.344 8.752a13.014 13.014 0 0 0 -13 13v15.148h10v-15.148a3 3 0 0 1 3-3h12.433v-10z"/></g><g fill="#ea6b65"><path d="m58.41 12.53v6.22h-3.5v-6.22a1.75 1.75 0 0 1 3.5 0z"/><path d="m65.75 12.53v6.22h-3.5v-6.22a1.75 1.75 0 0 1 3.5 0z"/><path d="m73.09 12.53v6.22h-3.5v-6.22a1.75 1.75 0 0 1 3.5 0z"/></g></g><g fill="#332319"><path d="m88.926 90.073a24.926 24.926 0 1 0 -24.926 24.927 24.954 24.954 0 0 0 24.926-24.927zm-46.352 0a21.426 21.426 0 1 1 21.426 21.427 21.449 21.449 0 0 1 -21.426-21.427z"/><path d="m43.812 121.5h-3.839a1.75 1.75 0 0 0 0 3.5h3.839a1.75 1.75 0 0 0 0-3.5z"/><path d="m122.25 35.148h-15.844v-13.4a14.7 14.7 0 0 0 -3.928-10.014 1.75 1.75 0 0 0 -2.568 2.378 11.211 11.211 0 0 1 3 7.636v13.4h-6.5v-13.4a4.755 4.755 0 0 0 -4.754-4.748h-10.682v-6.5h10.682a1.75 1.75 0 0 0 0-3.5h-10.956a5.757 5.757 0 0 0 -5.475-4h-22.449a5.757 5.757 0 0 0 -5.476 4h-10.956a14.766 14.766 0 0 0 -14.75 14.75v13.4h-15.844a5.756 5.756 0 0 0 -5.75 5.75v16a1.75 1.75 0 0 0 1.75 1.75h4.255v60.6a5.756 5.756 0 0 0 5.75 5.75h15.37a1.75 1.75 0 0 0 0-3.5h-15.37a2.253 2.253 0 0 1 -2.25-2.25v-60.6h108.995v60.6a2.253 2.253 0 0 1 -2.25 2.25h-59.59a1.75 1.75 0 0 0 0 3.5h59.585a5.756 5.756 0 0 0 5.75-5.75v-60.6h4.255a1.75 1.75 0 0 0 1.75-1.75v-16a5.756 5.756 0 0 0 -5.75-5.752zm-30.594-14.648a1.25 1.25 0 0 1 1.25 1.25v13.4h-57.812v-13.4a1.25 1.25 0 0 1 1.25-1.25zm-38.88-14h22.448a2.253 2.253 0 0 1 2.25 2.25v8.25h-4.38v-4.467a1.75 1.75 0 0 0 -3.5 0v4.467h-3.844v-4.467a1.75 1.75 0 0 0 -3.5 0v4.467h-3.844v-4.467a1.75 1.75 0 1 0 -3.5 0v4.467h-4.38v-8.248a2.253 2.253 0 0 1 2.25-2.252zm-27.682 15.252a11.262 11.262 0 0 1 11.25-11.252h10.682v6.5h-10.682a4.755 4.755 0 0 0 -4.75 4.75v13.4h-6.5zm99.406 33.4h-121v-14.252a2.253 2.253 0 0 1 2.25-2.25h116.5a2.253 2.253 0 0 1 2.25 2.25z"/><path d="m69.625 104.27v-8.57h8.575a1.749 1.749 0 0 0 1.75-1.75v-7.75a1.75 1.75 0 0 0 -1.75-1.75h-8.575v-8.573a1.749 1.749 0 0 0 -1.75-1.75h-7.75a1.749 1.749 0 0 0 -1.75 1.75v8.571h-8.575a1.75 1.75 0 0 0 -1.75 1.75v7.75a1.749 1.749 0 0 0 1.75 1.752h8.571v8.572a1.75 1.75 0 0 0 1.75 1.75h7.75a1.75 1.75 0 0 0 1.754-1.752zm-3.5-10.322v8.572h-4.25v-8.572a1.75 1.75 0 0 0 -1.75-1.75h-8.571v-4.25h8.571a1.749 1.749 0 0 0 1.75-1.75v-8.571h4.25v8.573a1.749 1.749 0 0 0 1.75 1.75h8.571v4.25h-8.571a1.75 1.75 0 0 0 -1.75 1.748z"/></g></g></svg>