<svg height="512" viewBox="0 0 128 128" width="512" xmlns="http://www.w3.org/2000/svg"><g><g><path d="m15.281 116.688h82.875v9.56h-82.875z" fill="#707070"/><path d="m35.344 107.128h42.75v9.56h-42.75z" fill="#424242"/><path d="m61.439 11.307h-9.439a4.78 4.78 0 0 1 -4.779-4.78 4.78 4.78 0 0 1 4.779-4.78h9.441a4.78 4.78 0 0 1 4.78 4.78 4.78 4.78 0 0 1 -4.782 4.78z" fill="#424242"/><path d="m51.593 11.307h10v95.821h-10z" fill="#707070"/><path d="m112.719 54.473-8.522-1a73.039 73.039 0 0 0 -17.042 0 73.157 73.157 0 0 1 -17.043 0l-8.519-1v-31.35l8.519 1a73.047 73.047 0 0 0 17.043 0 73.148 73.148 0 0 1 17.042 0l8.522 1z" fill="#fbb540"/></g><g fill="#332319"><path d="m51.593 81.231a1.749 1.749 0 0 0 1.75-1.75v-4.606a1.75 1.75 0 0 0 -3.5 0v4.606a1.75 1.75 0 0 0 1.75 1.75z"/><path d="m112.923 21.385-8.522-1a1.75 1.75 0 0 0 -.408 3.476l6.976.819v27.825l-6.568-.771a75 75 0 0 0 -17.45 0 71.307 71.307 0 0 1 -16.635 0l-6.973-.818v-27.825l6.565.77a74.9 74.9 0 0 0 17.451 0 1.75 1.75 0 1 0 -.408-3.476 71.417 71.417 0 0 1 -16.635 0l-6.973-.819v-6.794a6.529 6.529 0 0 0 -1.904-12.772h-9.439a6.525 6.525 0 0 0 -2.155 12.686v51.846a1.75 1.75 0 0 0 3.5 0v-51.475h6.5v92.321h-6.5v-15.554a1.75 1.75 0 0 0 -3.5 0v15.554h-14.5a1.749 1.749 0 0 0 -1.75 1.75v7.81h-18.314a1.75 1.75 0 0 0 -1.75 1.75v9.559a1.75 1.75 0 0 0 1.75 1.75h82.875a1.749 1.749 0 0 0 1.75-1.75v-9.559a1.749 1.749 0 0 0 -1.75-1.75h-18.312v-7.81a1.75 1.75 0 0 0 -1.75-1.75h-14.751v-50.938l6.565.771a74.9 74.9 0 0 0 17.451 0 71.353 71.353 0 0 1 16.634 0l8.522 1a1.751 1.751 0 0 0 1.954-1.738v-31.35a1.75 1.75 0 0 0 -1.546-1.738zm-16.517 103.115h-79.375v-6.059h79.375zm-20.062-9.559h-39.25v-6.06h39.25zm-24.344-105.384a3.03 3.03 0 0 1 0-6.057h9.441a3.03 3.03 0 1 1 0 6.06z"/></g></g></svg>