<svg id="Layer_1" enable-background="new 0 0 128 128" viewBox="0 0 128 128" xmlns="http://www.w3.org/2000/svg"><g><g><path d="m121.3 89.4h-44.5l-14.9-15.4h-55.1c-2.8 0-5-2.2-5-5 0-2.8 2.2-5 5-5h59.4l14.9 15.4h40.2c2.8 0 5 2.2 5 5 0 2.8-2.3 5-5 5z" fill="#424242"/><path d="m64 1.8c-30.5 0-55.2 24.7-55.2 55.2v7h57.4l14.9 15.4h38.2v-22.4c-.1-30.5-24.8-55.3-55.3-55.2 0-.1 0-.1 0 0z" fill="#5e8569"/><path d="m59 109.4h16.4v8.6h-16.4z" fill="#424242"/><g fill="#707070"><path d="m61.9 118.1h10.6v8.2h-10.6z"/><path d="m72.5 109.4v-24.4l-10.6-11v35.4z"/></g><g fill="#85bc94"><path d="m23.6 19.4c-8.4 9-13.6 20.7-14.6 33h28.9c2.9 0 5.2-2.4 5.3-5.3v-.3c0-2.9 2.3-5.2 5.2-5.3h3.5c2.9 0 5.2-2.4 5.3-5.3v-1.3c0-2.9-2.4-5.3-5.3-5.3h-11.8c-2.9 0-5.3-2.4-5.3-5.3 0-2.9-2.4-5.3-5.3-5.3z"/><path d="m93.1 62.2h-1.8c-2.7 0-4.9 2.2-4.9 4.9 0 2.7 2.2 4.9 4.9 4.9h28v-15c0-1.6-.1-3.1-.2-4.6h-16.1c-2.7 0-4.9 2.2-4.9 4.9-.1 2.7-2.3 4.9-5 4.9z"/><path d="m67.4 54.4h7c2.3 0 4.3-1.9 4.3-4.3v-1.4c0-2.3 1.9-4.3 4.3-4.3h6.3c2.3 0 4.3-1.9 4.3-4.3v-4.1c0-2.3-1.9-4.3-4.3-4.3h-13.4c-2.3 0-4.3 1.9-4.3 4.3v4.5c0 2.3-1.9 4.3-4.3 4.3-2.3 0-4.3 1.9-4.3 4.3v1.1c.1 2.3 2 4.2 4.4 4.2z"/><path d="m72 2.3c-1.3.8-2.2 2.2-2.2 3.7v1.7c0 2.4-1.9 4.3-4.3 4.3l-6.5.1c-2.4 0-4.3 1.9-4.3 4.3s1.9 4.3 4.3 4.3h46.5c-8.5-9.9-20.4-16.4-33.5-18.4z"/></g></g><path d="m34.8 74c0 1-.8 1.7-1.7 1.8h-3.1c-1 0-1.8-.8-1.8-1.8s.8-1.8 1.8-1.8h3c1 0 1.8.8 1.8 1.8zm93.2 10.4c0 3.7-3 6.7-6.8 6.8h-44.4c-.5 0-.9-.2-1.3-.5l-1.3-1.4v18.4h1.1c1 0 1.8.8 1.8 1.8v8.6c0 1-.8 1.7-1.7 1.8h-1.1v6.4c0 1-.8 1.7-1.8 1.7h-10.6c-1 0-1.7-.8-1.8-1.7v-6.4h-1.1c-1 0-1.7-.8-1.8-1.7v-8.6c0-1 .8-1.8 1.8-1.8h1.1v-32h-16c-1 0-1.8-.8-1.8-1.8s.8-1.8 1.8-1.8h17.8c.5 0 .9.1 1.3.5 2.7 2.7 14.4 14.9 14.4 14.9h43.7c1.8 0 3.3-1.5 3.3-3.3s-1.5-3.3-3.3-3.3h-40.2c-.5 0-.9-.2-1.3-.5l-14.4-14.7h-58.6c-1.8 0-3.3 1.5-3.3 3.3s1.5 3.3 3.3 3.3h12.2c1 0 1.8.8 1.8 1.8s-.8 1.8-1.8 1.8h-12.2c-3.8-.2-6.8-3.3-6.8-7 0-4.1 3.4-6.8 7-6.8v-5.2c0-29.2 22.7-57 57-57 33.6 0 57 27.5 57 57v20.7c3.5-.1 7 2.5 7 6.7zm-10.6-30.3h-14.5c-1.7 0-3.1 1.4-3.1 3.1 0 3.7-3 6.6-6.7 6.6h-1.8c-1.7 0-3.1 1.5-3.1 3.2s1.4 3.1 3.1 3.1h26.2v-13.1c0-1 0-1.9-.1-2.9zm-51.8-40.3-6.5.1c-1.4.1-2.5 1.3-2.4 2.7.1 1.3 1.1 2.3 2.4 2.4h42.4c-7.8-7.9-18-13-29-14.8-.5.5-.9 1.2-.9 1.9v1.7c0 3.3-2.7 6-6 6zm51.9 63.9v-3.9h-26.2c-3.7 0-6.6-3.1-6.6-6.7s3-6.5 6.6-6.6h1.8c1.7 0 3.1-1.4 3.1-3.1 0-3.7 3-6.6 6.6-6.6h14.2c-1.2-10.4-5.5-20.2-12.3-28.1h-45.5c-3.3 0-6-2.8-6-6.1s2.7-6 6-6l6.5-.1c1.4 0 2.5-1.2 2.5-2.6v-1.8c0-.8.2-1.6.5-2.3-1.5-.1-3.1-.2-4.6-.2-13.4 0-26.3 5-36.2 14.1h1.8c3.9 0 7 3.1 7 7 0 1.9 1.6 3.5 3.5 3.5h11.8c3.9 0 7 3.1 7 7 0 1-.8 1.8-1.8 1.8s-1.8-.8-1.8-1.8c0-1.9-1.6-3.5-3.5-3.5h-11.8c-3.9 0-7-3.1-7-7 0-1.9-1.6-3.5-3.5-3.5h-5.3c-7.4 8.2-12.1 18.5-13.4 29.5h27c1.9 0 3.5-1.5 3.5-3.8 0-3.8 3.1-7 7-7h3.5c1 0 1.8.8 1.8 1.8s-.8 1.8-1.8 1.8h-3.5c-1.9 0-3.5 1.6-3.5 3.5 0 3.6-2.4 7.3-7 7.3h-27.3c-.1.9-.1 1.9-.1 2.9v5.3h55.6c.5 0 .9.2 1.3.5l14.4 14.9zm-56.7 33.5v5.1h12.9v-5.1zm10 8.6h-7.1v4.7h7.1zm0-34.1-7.1-7.4v29.4h7.1zm18.3-39.4h-6.3c-1.4 0-2.5 1.1-2.5 2.5v1.4c0 3.3-2.7 6-6 6h-7c-3.3 0-6-2.7-6-6v-1.2c0-3.3 2.7-6 6-6 1.4 0 2.5-1.1 2.5-2.5v-4.5c0-3.3 2.7-6 6-6h13.3c3.3 0 6 2.7 6 6v4.3c0 3.3-2.7 5.9-6 6zm-6.2-3.5h6.3c1.4 0 2.5-1.1 2.5-2.5v-4.3c0-1.4-1.1-2.5-2.5-2.5h-13.3c-1.4 0-2.5 1.1-2.5 2.5v4.5c0 3.3-2.7 6-6 6-1.4 0-2.5 1.1-2.5 2.5v1.1c0 1.4 1.1 2.5 2.5 2.5h7c1.4 0 2.5-1.1 2.5-2.5v-1.4c0-3.3 2.7-5.9 6-5.9z" fill="#332319"/></g></svg>