<svg height="512" viewBox="0 0 128 128" width="512" xmlns="http://www.w3.org/2000/svg"><g><circle cx="64" cy="64" fill="#424242" r="31.375"/><circle cx="64" cy="64" fill="#e6e9ed" r="23.375"/><path d="m64 72.072-9.518 5.004 1.819-10.598-7.701-7.505 10.641-1.547 4.759-9.642 4.759 9.642 10.641 1.547-7.701 7.505 1.819 10.598z" fill="#fbb540"/><path d="m92.519 77.076h13.553a14.222 14.222 0 0 0 13.458-9.624l.072-.21h-24.402a31.2 31.2 0 0 1 -2.681 9.834z" fill="#fbb540"/><path d="m94.721 57.618a31.184 31.184 0 0 1 .482 9.624h14.228a14.223 14.223 0 0 0 13.459-9.624z" fill="#ea6b65"/><path d="m90.863 47.784a31.173 31.173 0 0 1 3.858 9.834h18a14.222 14.222 0 0 0 13.458-9.624l.072-.21z" fill="#fbb540"/><path d="m35.481 77.076h-13.553a14.222 14.222 0 0 1 -13.458-9.624l-.072-.21h24.402a31.2 31.2 0 0 0 2.681 9.834z" fill="#fbb540"/><path d="m33.279 57.618a31.184 31.184 0 0 0 -.482 9.624h-14.229a14.222 14.222 0 0 1 -13.458-9.624z" fill="#ea6b65"/><path d="m1.75 47.784h35.387a31.173 31.173 0 0 0 -3.858 9.834h-18a14.222 14.222 0 0 1 -13.457-9.624z" fill="#fbb540"/><g fill="#332319"><path d="m81.064 58.432a1.746 1.746 0 0 0 -1.412-1.191l-9.731-1.414-4.352-8.818a1.75 1.75 0 0 0 -3.138 0l-4.352 8.818-9.731 1.414a1.75 1.75 0 0 0 -.97 2.985l7.042 6.863-1.662 9.691a1.75 1.75 0 0 0 2.542 1.845l8.7-4.576 8.7 4.576a1.75 1.75 0 0 0 2.539-1.845l-1.659-9.691 7.042-6.863a1.75 1.75 0 0 0 .442-1.794zm-10.587 6.793a1.748 1.748 0 0 0 -.5 1.549l1.218 7.1-6.379-3.354a1.751 1.751 0 0 0 -1.629 0l-6.378 3.354 1.218-7.1a1.746 1.746 0 0 0 -.5-1.549l-5.167-5.031 7.133-1.036a1.75 1.75 0 0 0 1.317-.958l3.19-6.462 3.189 6.462a1.752 1.752 0 0 0 1.318.957l7.133 1.036z"/><path d="m64 38.875a25.18 25.18 0 0 0 -22.951 14.9 1.75 1.75 0 0 0 3.2 1.429 21.624 21.624 0 1 1 -1.874 8.796 1.75 1.75 0 0 0 -3.5 0 25.125 25.125 0 1 0 25.125-25.125z"/><path d="m106.882 49.534h1.924a1.75 1.75 0 0 0 0-3.5h-1.924a1.75 1.75 0 0 0 0 3.5z"/><path d="m127.673 46.764a1.753 1.753 0 0 0 -1.423-.73h-10.063a1.75 1.75 0 0 0 0 3.5h7.391a12.474 12.474 0 0 1 -10.858 6.334h-16.608a32.872 32.872 0 0 0 -2.319-6.334h5.707a1.75 1.75 0 0 0 0-3.5h-7.692a33.085 33.085 0 0 0 -55.616 0h-34.442a1.749 1.749 0 0 0 -1.657 2.312l.072.214a15.935 15.935 0 0 0 5.152 7.308h-.207a1.749 1.749 0 0 0 -1.656 2.315 15.932 15.932 0 0 0 5.152 7.309h-.206a1.751 1.751 0 0 0 -1.657 2.313l.072.213a15.972 15.972 0 0 0 15.114 10.808h12.462a33.1 33.1 0 0 0 59.217 0h12.463a15.972 15.972 0 0 0 15.116-10.811l.072-.21a1.751 1.751 0 0 0 -1.657-2.313h-.208a15.932 15.932 0 0 0 5.152-7.309 1.75 1.75 0 0 0 -1.656-2.315h-.208a15.945 15.945 0 0 0 5.154-7.312l.071-.21a1.75 1.75 0 0 0 -.234-1.582zm-123.252 2.77h29.786a32.806 32.806 0 0 0 -2.319 6.334h-16.608a12.474 12.474 0 0 1 -10.859-6.334zm3.411 9.834h23.374a33.216 33.216 0 0 0 -.331 4.632c0 .5.016 1 .038 1.492h-12.345a12.472 12.472 0 0 1 -10.736-6.124zm14.1 15.958a12.474 12.474 0 0 1 -10.86-6.334h20.18a32.8 32.8 0 0 0 1.619 6.334zm42.068 18.299a29.625 29.625 0 1 1 29.625-29.625 29.659 29.659 0 0 1 -29.625 29.625zm52.93-24.633a12.474 12.474 0 0 1 -10.859 6.334h-10.942a32.8 32.8 0 0 0 1.619-6.334zm3.238-9.624a12.472 12.472 0 0 1 -10.736 6.124h-12.345c.022-.5.038-.992.038-1.492a33.216 33.216 0 0 0 -.331-4.632z"/></g></g></svg>