<svg height="512" viewBox="0 0 128 128" width="512" xmlns="http://www.w3.org/2000/svg"><g><g><path d="m19.655 54.823a1.741 1.741 0 0 1 -.905-.254l-12.3-7.45a1.749 1.749 0 0 1 -.844-1.5v-6.275a1.75 1.75 0 0 1 3.5 0v5.293l11.455 6.939a1.751 1.751 0 0 1 -.909 3.247z" fill="#707070"/><path d="m109.033 54.406a1.75 1.75 0 0 1 -.908-3.247l10.766-6.522v-5.293a1.75 1.75 0 0 1 3.5 0v6.279a1.749 1.749 0 0 1 -.844 1.5l-11.609 7.033a1.738 1.738 0 0 1 -.905.25z" fill="#707070"/><path d="m31 58.125a8 8 0 0 1 8-8h50a8 8 0 0 1 8 8v-.314h14.625l-8.906-37.211a6 6 0 0 0 -5.835-4.6h-65.768a6 6 0 0 0 -5.835 4.6l-8.906 37.211h14.625z" fill="#424242"/><path d="m97 57.811h6.4l-8.094-33.811h-62.612l-8.094 33.811 6.414.026a7.993 7.993 0 0 1 7.986-7.712h50a8 8 0 0 1 8 7.975z" fill="#e6e9ed"/><path d="m31 80.397h-29.25v-15.58l14.625-7.006h14.625z" fill="#5e8569"/><path d="m97 80.397h29.25v-15.58l-14.625-7.006h-14.625z" fill="#5e8569"/><path d="m126.25 91.638-32.226 4.003h-60.048l-32.226-4.003v-11.241h124.5z" fill="#424242"/><path d="m9.75 72.398v-2.543l8.442-4.044h12.808v6.587z" fill="#85bc94"/><path d="m118.25 72.398v-2.543l-8.442-4.044h-12.808v6.587z" fill="#85bc94"/><path d="m39 50.125h50a8 8 0 0 1 8 8v22.275a0 0 0 0 1 0 0h-66a0 0 0 0 1 0 0v-22.275a8 8 0 0 1 8-8z" fill="#424242"/><rect fill="#5e8569" height="14.438" rx="2" width="11.219" x="1.75" y="24.906"/><rect fill="#5e8569" height="14.438" rx="2" width="11.219" x="115.031" y="24.906"/><path d="m50.2 65.261a5.6 5.6 0 1 1 -5.6-5.6 5.6 5.6 0 0 1 5.6 5.6z" fill="#e6e9ed"/><path d="m77.8 65.261a5.6 5.6 0 1 0 5.6-5.6 5.6 5.6 0 0 0 -5.6 5.6z" fill="#e6e9ed"/><g fill="#707070"><path d="m64 72.18a1.751 1.751 0 0 1 -1.75-1.75v-10.338a1.75 1.75 0 0 1 3.5 0v10.338a1.751 1.751 0 0 1 -1.75 1.75z"/><path d="m69.938 72.18a1.75 1.75 0 0 1 -1.75-1.75v-10.338a1.75 1.75 0 0 1 3.5 0v10.338a1.751 1.751 0 0 1 -1.75 1.75z"/><path d="m58.063 72.18a1.75 1.75 0 0 1 -1.75-1.75v-10.338a1.75 1.75 0 0 1 3.5 0v10.338a1.751 1.751 0 0 1 -1.75 1.75z"/><path d="m1.75 91.638v16.6a9 9 0 0 0 9 9h11.25a9 9 0 0 0 9-9v-12.967z"/><path d="m97 108.24a9 9 0 0 0 9 9h11.25a9 9 0 0 0 9-9v-16.6l-29.25 3.631z"/></g><path d="m44.781 80.397h38.438v15.244h-38.438z" fill="#5e8569"/><path d="m74.5 89.769h-21a1.75 1.75 0 0 1 0-3.5h21a1.75 1.75 0 0 1 0 3.5z" fill="#fbb540"/><g fill="#c2c2c2"><path d="m48.905 44.439a1.751 1.751 0 0 1 -1.452-2.725l7.23-10.781a1.75 1.75 0 1 1 2.907 1.949l-7.23 10.781a1.749 1.749 0 0 1 -1.455.776z"/><path d="m60.384 44.439a1.751 1.751 0 0 1 -1.452-2.725l7.229-10.781a1.75 1.75 0 1 1 2.907 1.949l-7.229 10.781a1.749 1.749 0 0 1 -1.455.776z"/><path d="m71.862 44.439a1.751 1.751 0 0 1 -1.452-2.725l7.23-10.781a1.75 1.75 0 1 1 2.907 1.949l-7.23 10.781a1.746 1.746 0 0 1 -1.455.776z"/></g></g><g fill="#332319"><path d="m121.547 47.119a1.749 1.749 0 0 0 .844-1.5v-4.525h1.859a3.754 3.754 0 0 0 3.75-3.75v-10.438a3.754 3.754 0 0 0 -3.75-3.75h-7.219a3.754 3.754 0 0 0 -3.75 3.75v10.438a3.754 3.754 0 0 0 3.75 3.75h1.86v3.543l-7.528 4.56-6.942-29a7.725 7.725 0 0 0 -7.537-5.946h-65.768a7.725 7.725 0 0 0 -7.537 5.949l-6.942 29-7.528-4.56v-3.546h1.86a3.754 3.754 0 0 0 3.75-3.75v-10.438a3.754 3.754 0 0 0 -3.75-3.75h-7.219a3.754 3.754 0 0 0 -3.75 3.75v10.438a3.754 3.754 0 0 0 3.75 3.75h1.859v4.529a1.749 1.749 0 0 0 .844 1.5l9.329 5.652-.915 3.823-13.873 6.641a1.751 1.751 0 0 0 -.994 1.578v43.423a10.762 10.762 0 0 0 10.75 10.75h11.25a10.762 10.762 0 0 0 10.75-10.75v-10.988l1.01.126a1.739 1.739 0 0 0 .216.013h60.048a1.739 1.739 0 0 0 .216-.013l1.01-.126v10.988a1.75 1.75 0 1 0 3.5 0v-11.422l25.75-3.2v14.622a7.258 7.258 0 0 1 -7.25 7.25h-11.25a1.75 1.75 0 0 0 0 3.5h11.25a10.762 10.762 0 0 0 10.75-10.75v-43.423a1.751 1.751 0 0 0 -.994-1.578l-13.873-6.645-.915-3.823zm-4.766-9.775v-10.438a.251.251 0 0 1 .25-.25h7.219a.251.251 0 0 1 .25.25v10.438a.251.251 0 0 1 -.25.25h-7.219a.251.251 0 0 1 -.25-.25zm-113.281 0v-10.438a.251.251 0 0 1 .25-.25h7.219a.251.251 0 0 1 .25.25v10.438a.251.251 0 0 1 -.25.25h-7.219a.251.251 0 0 1 -.25-.25zm23.483-16.333a4.236 4.236 0 0 1 4.133-3.261h65.768a4.236 4.236 0 0 1 4.133 3.261l8.39 35.05h-4.627l-7.772-32.468a1.751 1.751 0 0 0 -1.7-1.343h-30.995a1.75 1.75 0 0 0 0 3.5h29.612l7.256 30.311h-2.651a9.849 9.849 0 0 0 -9.53-7.686h-50c-3.944-.02-8.682 2.99-9.53 7.686h-2.651l7.256-30.311h7.8a1.75 1.75 0 0 0 0-3.5h-9.181a1.751 1.751 0 0 0 -1.7 1.343l-7.774 32.468h-4.627zm71.767 46.55h10.66l6.442 3.087h-17.102zm-15.531 11.087h-50.469v-20.523c0-.067.008-.132.01-.2-.02-2.588 2.606-6.175 6.24-6.051h50c2.816-.073 6.389 2.557 6.25 6.25v20.524zm-53.969-8h-17.1l6.442-3.087h10.658zm-25.75-4.729 13.273-6.358h7.821l4.656.019v4.481h-11.058a1.753 1.753 0 0 0 -.756.172l-8.442 4.044a1.751 1.751 0 0 0 -.994 1.578v2.545a1.751 1.751 0 0 0 1.75 1.75h19.5v4.5h-25.75zm25.75 42.321a7.258 7.258 0 0 1 -7.25 7.25h-11.25a7.258 7.258 0 0 1 -7.25-7.25v-14.621l25.75 3.2zm1.967-14.7-27.717-3.448v-7.944h39.531v11.743h-8.947zm15.314.356v-11.748h34.938v11.743zm47.385 0h-8.947v-11.748h39.531v7.944l-27.716 3.443zm30.584-15.248h-25.75v-4.5h19.5a1.751 1.751 0 0 0 1.75-1.748v-2.545a1.751 1.751 0 0 0 -.994-1.578l-8.443-4.044a1.745 1.745 0 0 0 -.755-.172h-11.058v-4.5h12.477l13.273 6.358z"/><path d="m44.6 57.912a7.349 7.349 0 1 0 7.35 7.349 7.357 7.357 0 0 0 -7.35-7.349zm0 11.2a3.849 3.849 0 1 1 3.85-3.849 3.853 3.853 0 0 1 -3.85 3.847z"/><path d="m83.4 57.912a7.349 7.349 0 1 0 7.35 7.349 7.357 7.357 0 0 0 -7.35-7.349zm0 11.2a3.849 3.849 0 1 1 3.849-3.849 3.853 3.853 0 0 1 -3.849 3.847z"/><path d="m64 58.342a1.751 1.751 0 0 0 -1.75 1.75v10.338a1.75 1.75 0 0 0 3.5 0v-10.338a1.751 1.751 0 0 0 -1.75-1.75z"/><path d="m69.938 58.342a1.75 1.75 0 0 0 -1.75 1.75v10.338a1.75 1.75 0 0 0 3.5 0v-10.338a1.751 1.751 0 0 0 -1.75-1.75z"/><path d="m58.063 58.342a1.75 1.75 0 0 0 -1.75 1.75v10.338a1.75 1.75 0 0 0 3.5 0v-10.338a1.751 1.751 0 0 0 -1.75-1.75z"/><path d="m74.5 86.269h-21a1.75 1.75 0 0 0 0 3.5h21a1.75 1.75 0 0 0 0-3.5z"/><path d="m47.932 44.142a1.749 1.749 0 0 0 2.428-.479l7.23-10.781a1.75 1.75 0 1 0 -2.907-1.949l-7.23 10.781a1.75 1.75 0 0 0 .479 2.428z"/><path d="m59.411 44.142a1.749 1.749 0 0 0 2.428-.479l7.229-10.781a1.75 1.75 0 1 0 -2.907-1.949l-7.229 10.781a1.75 1.75 0 0 0 .479 2.428z"/><path d="m70.889 44.142a1.749 1.749 0 0 0 2.428-.479l7.23-10.781a1.75 1.75 0 1 0 -2.907-1.949l-7.23 10.781a1.75 1.75 0 0 0 .479 2.428z"/><path d="m51.625 25.75h2.938a1.75 1.75 0 0 0 0-3.5h-2.938a1.75 1.75 0 0 0 0 3.5z"/></g></g></svg>