<svg height="512" viewBox="0 0 128 128" width="512" xmlns="http://www.w3.org/2000/svg"><g><g><path d="m73.687 100.704h-19.375l-10.008-8.885 8.995-67.455 10.701-22.617 10.701 22.617 8.994 67.455z" fill="#5e8569"/><path d="m69.684 120.242 4.003-19.538h-19.375l4.004 19.538z" fill="#424242"/><path d="m54.312 100.704-17.468 13.421 5.004 12.122 16.468-6.005z" fill="#5e8569"/><path d="m73.687 100.704 17.469 13.421-4.003 12.122-17.469-6.005z" fill="#5e8569"/><path d="m76.123 35.03-5.478-6.794a8.537 8.537 0 0 0 -13.29 0l-5.478 6.794-.492 3.688 6.47-3.695a12.387 12.387 0 0 1 12.29 0l6.47 3.7z" fill="#85bc94"/><path d="m77.222 43.27 49.028 39.458v19.655l-42.555-10.564z" fill="#424242"/><path d="m94.129 94.409-3.689-27.664 25.81 20.771v12.384z" fill="#707070"/><path d="m100.625 62.105v-13.831l-4.313-5.004-4.312 5.004v6.89z" fill="#5e8569"/><path d="m117.75 75.887v-14.988l-4.313-5.004-4.312 5.004v8.047z" fill="#5e8569"/><path d="m50.778 43.27-49.028 39.458v19.655l42.554-10.564z" fill="#424242"/><path d="m33.871 94.409 3.689-27.664-25.81 20.771v12.384z" fill="#707070"/><path d="m27.375 62.105v-13.831l4.312-5.004 4.313 5.004v6.89z" fill="#5e8569"/><path d="m10.25 75.887v-14.988l4.312-5.004 4.313 5.004v8.047z" fill="#5e8569"/><path d="m59.183 55.895-4.264 31.976 3.192 2.833h11.778l3.191-2.833-4.263-31.976z" fill="#fbb540"/></g><g fill="#332319"><path d="m127.348 81.365-7.848-6.316v-14.149a1.744 1.744 0 0 0 -.425-1.142l-4.312-5a1.807 1.807 0 0 0 -2.651 0l-4.312 5a1.744 1.744 0 0 0 -.425 1.142v4.392l-5-4.024v-12.994a1.744 1.744 0 0 0 -.425-1.142l-4.312-5a1.807 1.807 0 0 0 -2.651 0l-4.312 5a1.744 1.744 0 0 0 -.425 1.142v3.235l-11.386-9.163-.514-3.858-.184-1.377-1.731-12.979a1.738 1.738 0 0 0 -.152-.517l-10.701-22.615a1.751 1.751 0 0 0 -3.164 0l-10.7 22.617a1.77 1.77 0 0 0 -.153.517l-1.423 10.666-.492 3.687-.514 3.859-11.386 9.163v-3.235a1.749 1.749 0 0 0 -.424-1.142l-4.313-5a1.807 1.807 0 0 0 -2.651 0l-4.313 5a1.749 1.749 0 0 0 -.424 1.142v12.993l-5 4.024v-4.391a1.749 1.749 0 0 0 -.424-1.142l-4.313-5a1.807 1.807 0 0 0 -2.651 0l-4.313 5a1.749 1.749 0 0 0 -.424 1.142v14.15l-7.847 6.315a1.748 1.748 0 0 0 -.653 1.363v19.655a1.751 1.751 0 0 0 1.75 1.75 1.721 1.721 0 0 0 .421-.052l10-2.482 22.121-5.492 9.537-2.368 7.736 6.868-15.789 12.13a1.749 1.749 0 0 0 -.552 2.056l5 12.122a1.746 1.746 0 0 0 2.217.976l16.178-5.9h10.773l17.192 5.91a1.75 1.75 0 0 0 2.231-1.106l4-12.122a1.751 1.751 0 0 0 -.595-1.937l-15.79-12.13 7.735-6.868 9.538 2.368 22.121 5.492 10 2.482a1.75 1.75 0 0 0 2.172-1.7v-19.652a1.75 1.75 0 0 0 -.648-1.363zm-16.473-19.816 2.562-2.973 2.563 2.973v10.683l-5.125-4.124zm-17.125-12.625 2.562-2.973 2.563 2.973v9.526l-5.125-4.124zm-29.75-43.085 9 19.027.56 4.2-1.556-1.93a10.246 10.246 0 0 0 -6.486-3.717 1.75 1.75 0 0 0 -.513 3.462 6.758 6.758 0 0 1 4.274 2.452l4.754 5.9-3.019-1.733a14.2 14.2 0 0 0 -14.028 0l-3.021 1.726 4.753-5.895a1.75 1.75 0 1 0 -2.725-2.2l-1.555 1.929.56-4.2zm-34.875 43.085 2.562-2.973 2.563 2.973v5.4l-5.125 4.125zm-17.125 23.308v-10.683l2.562-2.973 2.563 2.973v6.559l-2.862 2.3zm-8.5 11.334 9.112-7.334 7.36-5.922 8.5-6.838 8.628-6.945 11.367-9.148-5.74 43.028-6.781 1.684 3.348-25.114a1.75 1.75 0 0 0 -2.832-1.595l-25.809 20.771a1.748 1.748 0 0 0 -.653 1.363v11.016l-6.5 1.613zm10 14.1v-9.312l21.747-17.5-2.953 22.146zm54.756 20.829h-8.512l-3.287-16.038h15.085zm-29.283-3.8 14.187-10.895 1.8 8.8 1.336 6.518-13.474 4.913zm47.074 9.32-14.339-4.929 3.133-15.29 14.259 10.96zm-13.025-25.061h-18.045l-8.815-7.826 6.351-47.628.493-3.692 5.717-3.266a10.683 10.683 0 0 1 10.554 0l5.723 3.266.492 3.691 5.665 42.48.686 5.146zm51.478 1.191-6.5-1.613v-11.016a1.748 1.748 0 0 0 -.653-1.363l-4.777-3.844a1.75 1.75 0 1 0 -2.193 2.727l4.123 3.318v9.309l-18.794-4.663-2.952-22.147 4.146 3.337a1.751 1.751 0 0 0 2.2-2.727l-7.557-6.081a1.75 1.75 0 0 0 -2.832 1.595l3.349 25.114-6.783-1.684-5.742-43.029 11.365 9.146 8.625 6.942 24.97 20.1z"/><path d="m102.629 78.8 2.02 1.626a1.75 1.75 0 0 0 2.194-2.727l-2.021-1.626a1.75 1.75 0 1 0 -2.193 2.727z"/><path d="m70.551 55.664a1.751 1.751 0 0 0 -1.735-1.519h-9.633a1.751 1.751 0 0 0 -1.735 1.519l-4.263 31.975a1.749 1.749 0 0 0 .573 1.54l3.192 2.834a1.749 1.749 0 0 0 1.161.441h11.778a1.754 1.754 0 0 0 1.162-.441l3.191-2.834a1.746 1.746 0 0 0 .572-1.54zm-1.327 33.29h-10.448l-2-1.774 3.938-29.535h6.569l3.94 29.535z"/></g></g></svg>