<svg height="512" viewBox="0 0 128 128" width="512" xmlns="http://www.w3.org/2000/svg"><g><path d="m98.1 78.6s9.394-.02 9.39-.031a19.364 19.364 0 1 0 -7.69-37.364 19.359 19.359 0 0 0 -35.8-10.166 19.359 19.359 0 0 0 -35.8 10.166 19.36 19.36 0 1 0 -7.685 37.368c0 .011 9.39.031 9.39.031a6.688 6.688 0 1 1 0 13.375h-11.717v.185a13.94 13.94 0 0 0 13.94 13.94h63.749a13.94 13.94 0 0 0 13.939-13.94c0-.062 0-.123 0-.185h-11.716a6.688 6.688 0 1 1 0-13.375zm8.777-28.75a9.375 9.375 0 1 1 -9.377 9.379 9.386 9.386 0 0 1 9.375-9.375zm-85.752 18.75a9.375 9.375 0 1 1 9.375-9.371 9.385 9.385 0 0 1 -9.375 9.371zm26.444-36.7a9.375 9.375 0 1 1 -9.375 9.375 9.385 9.385 0 0 1 9.375-9.375zm33.841 53.4a16.617 16.617 0 0 0 3.99 10.8h-42.8a16.671 16.671 0 0 0 -4.382-25.275 42.065 42.065 0 0 1 25.782-9.473 42.065 42.065 0 0 1 25.779 9.477 16.7 16.7 0 0 0 -8.369 14.463zm-.979-34.646a9.375 9.375 0 1 1 9.375-9.375 9.386 9.386 0 0 1 -9.375 9.367z" fill="#424242"/><g fill="#332319"><path d="m98.1 80.354 4.693-.012c2.567-.007 3.95-.01 4.746-.081v.061a21.114 21.114 0 1 0 -6.132-41.49 21.192 21.192 0 0 0 -8.783-14.81 1.75 1.75 0 1 0 -2.024 2.855 17.676 17.676 0 0 1 7.449 14.334 1.749 1.749 0 0 0 2.389 1.623 17.611 17.611 0 1 1 6.992 33.99h-.02c-.458.008-5.8.021-9.316.029a8.438 8.438 0 1 0 0 16.875h9.869a12.209 12.209 0 0 1 -12.09 10.625h-63.75a12.207 12.207 0 0 1 -12.084-10.624h9.861a8.438 8.438 0 0 0 0-16.875c-3.525-.008-8.862-.021-9.32-.029h-.02a17.614 17.614 0 1 1 6.992-33.99 1.749 1.749 0 0 0 2.389-1.623 17.61 17.61 0 0 1 32.569-9.246 1.748 1.748 0 0 0 2.968 0 17.532 17.532 0 0 1 14.947-8.319 1.75 1.75 0 0 0 0-3.5 20.974 20.974 0 0 0 -16.425 7.873 21.107 21.107 0 0 0 -37.412 10.812 20.852 20.852 0 0 0 -5.463-.728 21.114 21.114 0 0 0 -.668 42.218v-.061c.8.071 2.179.074 4.746.081l4.7.012a4.938 4.938 0 1 1 0 9.875h-11.715a1.823 1.823 0 0 0 -1.751 1.771v.169a15.707 15.707 0 0 0 15.689 15.689h63.751a15.707 15.707 0 0 0 15.689-15.689v-.213a1.75 1.75 0 0 0 -1.75-1.723h-11.716a4.938 4.938 0 1 1 0-9.875z"/><path d="m21.125 48.1a11.125 11.125 0 1 0 11.125 11.129 11.137 11.137 0 0 0 -11.125-11.129zm0 18.75a7.625 7.625 0 1 1 7.625-7.625 7.634 7.634 0 0 1 -7.625 7.629z"/><path d="m58.694 41.271a11.125 11.125 0 1 0 -11.125 11.129 11.137 11.137 0 0 0 11.125-11.129zm-11.125 7.629a7.625 7.625 0 1 1 7.625-7.625 7.634 7.634 0 0 1 -7.625 7.625z"/><path d="m106.875 70.354a11.125 11.125 0 1 0 -11.125-11.125 11.137 11.137 0 0 0 11.125 11.125zm0-18.75a7.625 7.625 0 1 1 -7.625 7.625 7.634 7.634 0 0 1 7.625-7.629z"/><path d="m80.431 30.146a11.125 11.125 0 1 0 11.125 11.125 11.137 11.137 0 0 0 -11.125-11.125zm0 18.75a7.625 7.625 0 1 1 7.625-7.625 7.634 7.634 0 0 1 -7.625 7.629z"/><path d="m90.654 72.345a1.75 1.75 0 0 0 .241-2.864 43.561 43.561 0 0 0 -26.895-9.881 1.75 1.75 0 0 0 0 3.5 40.554 40.554 0 0 1 22.8 7.631 18.409 18.409 0 0 0 -4.748 23.621h-36.1a18.417 18.417 0 0 0 -6.852-25.038 1.75 1.75 0 1 0 -1.75 3.031 14.92 14.92 0 0 1 3.925 22.624 1.751 1.751 0 0 0 1.325 2.885h42.8a1.75 1.75 0 0 0 1.332-2.885 14.922 14.922 0 0 1 3.926-22.624z"/><path d="m52.7 61.29a45.463 45.463 0 0 0 -5.591 2.052 1.75 1.75 0 0 0 1.418 3.2 41.976 41.976 0 0 1 5.159-1.894 1.75 1.75 0 0 0 -.986-3.358z"/></g></g></svg>