<svg height="512" viewBox="0 0 128 128" width="512" xmlns="http://www.w3.org/2000/svg"><g><g><path d="m84.75 9.246-41.5 10.008-41.5-10.008v99.5l41.5 10.008 41.5-10.008 41.5 10.008v-99.5z" fill="#5e8569"/><path d="m11.75 100.871v-78.927l31.5 7.597 41.5-10.008 31.5 7.596v78.927l-31.5-7.597-41.5 10.008z" fill="#e6e9ed"/><path d="m89.251 68.438h11.122v18.688h-11.122z" fill="#fbb540"/><path d="m89.251 40.875h11.122v18.688h-11.122z" fill="#fbb540"/><path d="m33.283 53.75-5.657 5.656 4.594 4.594-4.594 4.594 5.657 5.656 4.593-4.594 4.594 4.594 5.656-5.656-4.593-4.594 4.593-4.594-5.656-5.656-4.594 4.594z" fill="#ea6b65"/><path d="m58.123 64 8.722 7.969v-5.11h10.969v-5.718h-10.969v-5.11z" fill="#424242"/></g><g fill="#332319"><path d="m126.66 17.553-41.5-10.008a1.748 1.748 0 0 0 -.82 0l-41.09 9.909-20.525-4.954a1.75 1.75 0 1 0 -.82 3.4l20.935 5.055a1.748 1.748 0 0 0 .82 0l41.09-9.909 39.75 9.586v95.9l-39.34-9.486a1.748 1.748 0 0 0 -.82 0l-41.09 9.909-39.75-9.587v-95.9l7.823 1.886a1.75 1.75 0 1 0 .82-3.4l-9.983-2.409a1.749 1.749 0 0 0 -2.16 1.701v99.5a1.749 1.749 0 0 0 1.34 1.7l41.5 10.008a1.748 1.748 0 0 0 .82 0l41.09-9.909 41.09 9.909a1.75 1.75 0 0 0 2.16-1.7v-99.5a1.749 1.749 0 0 0 -1.34-1.701z"/><path d="m118 27.129a1.749 1.749 0 0 0 -1.34-1.7l-31.5-7.6a1.775 1.775 0 0 0 -.82 0l-41.09 9.912-31.09-7.5a1.749 1.749 0 0 0 -2.16 1.7v78.927a1.749 1.749 0 0 0 1.34 1.7l31.5 7.6a1.74 1.74 0 0 0 .82 0l41.09-9.909 31.09 7.5a1.75 1.75 0 0 0 2.16-1.7v-13.059a1.75 1.75 0 0 0 -3.5 0v10.833l-29.34-7.075a1.748 1.748 0 0 0 -.82 0l-41.09 9.909-29.75-7.174v-75.326l29.34 7.075a1.748 1.748 0 0 0 .82 0l41.09-9.909 29.75 7.174v35.493a1.75 1.75 0 1 0 3.5 0z"/><path d="m116.25 75.372a1.75 1.75 0 0 0 -1.75 1.75v2.753a1.75 1.75 0 0 0 3.5 0v-2.753a1.75 1.75 0 0 0 -1.75-1.75z"/><path d="m100.373 66.688h-11.122a1.75 1.75 0 0 0 -1.75 1.75v18.687a1.75 1.75 0 0 0 1.75 1.75h11.122a1.749 1.749 0 0 0 1.75-1.75v-18.687a1.749 1.749 0 0 0 -1.75-1.75zm-1.75 18.687h-7.623v-15.187h7.622z"/><path d="m102.123 40.875a1.749 1.749 0 0 0 -1.75-1.75h-11.122a1.75 1.75 0 0 0 -1.75 1.75v18.688a1.751 1.751 0 0 0 1.75 1.75h11.122a1.75 1.75 0 0 0 1.75-1.75zm-3.5 16.938h-7.623v-15.188h7.622z"/><path d="m49.364 58.169-5.657-5.656a1.748 1.748 0 0 0 -2.474 0l-3.357 3.356-3.356-3.356a1.749 1.749 0 0 0 -2.475 0l-5.656 5.656a1.751 1.751 0 0 0 0 2.475l3.356 3.356-3.356 3.356a1.751 1.751 0 0 0 0 2.475l5.656 5.656a1.749 1.749 0 0 0 2.475 0l3.356-3.356 3.357 3.356a1.748 1.748 0 0 0 2.474 0l5.657-5.656a1.751 1.751 0 0 0 0-2.475l-3.356-3.356 3.356-3.356a1.751 1.751 0 0 0 0-2.475zm-7.064 7.068 3.356 3.357-3.186 3.181-3.356-3.356a1.749 1.749 0 0 0 -2.475 0l-3.356 3.356-3.183-3.181 3.355-3.357a1.748 1.748 0 0 0 0-2.474l-3.355-3.357 3.181-3.181 3.356 3.356a1.749 1.749 0 0 0 2.475 0l3.356-3.356 3.181 3.181-3.349 3.357a1.75 1.75 0 0 0 0 2.474z"/><path d="m67.551 54.43a1.752 1.752 0 0 0 -1.886.309l-8.722 7.969a1.749 1.749 0 0 0 0 2.584l8.722 7.969a1.75 1.75 0 0 0 2.93-1.292v-3.36h9.219a1.75 1.75 0 0 0 1.75-1.75v-5.718a1.75 1.75 0 0 0 -1.75-1.75h-9.214v-3.36a1.751 1.751 0 0 0 -1.049-1.601zm8.513 8.461v2.218h-9.219a1.751 1.751 0 0 0 -1.75 1.75v1.141l-4.377-4 4.382-4v1.14a1.751 1.751 0 0 0 1.75 1.75z"/></g></g></svg>