<svg id="Layer_1" enable-background="new 0 0 128 128" viewBox="0 0 128 128" xmlns="http://www.w3.org/2000/svg"><g><g><path d="m105.7 11.7h-83.4l10-10h63.4z" fill="#fbb540"/><path d="m64 64-30.2-52.3h-11.5l30.2 52.3z" fill="#ea6b65"/><path d="m64 64 30.2-52.3h11.5l-30.2 52.3z" fill="#ea6b65"/><circle cx="64" cy="99.5" fill="#5e8569" r="26.8"/><path d="m64 72.7c4 0 7.9.9 11.5 2.6v-11.3h-23v11.3c3.6-1.7 7.5-2.6 11.5-2.6z" fill="#424242"/><path d="m64 107.1-9.5 5 1.8-10.6-7.7-7.5 10.6-1.5 4.8-9.6 4.8 9.6 10.6 1.5-7.7 7.5 1.8 10.6z" fill="#fbb540"/></g><path d="m107.4 11.5c-.1-.6-.4-.9-.5-1l-10-10c-.3-.3-.7-.5-1.2-.5h-63.4c-.5 0-.9.2-1.2.5l-10 10s-.5.4-.5 1.1c0 .5.2.9.2 1l29.9 51.8v9.8c-5.3 2.8-9.6 7.2-12.3 12.6-.4.9-.1 1.9.8 2.4.9.4 1.9.1 2.4-.8 2.5-5 6.5-9 11.5-11.4h.1c12.5-6 27.4-.7 33.4 11.8s.7 27.4-11.8 33.4-27.4.7-33.4-11.8c-1.6-3.4-2.5-7.1-2.5-10.8 0-1-.8-1.8-1.8-1.8s-1.8.8-1.8 1.8c0 15.7 12.8 28.5 28.5 28.5s28.5-12.8 28.5-28.5c0-10.6-5.9-20.3-15.2-25.2v-9.8l7.9-13.8c.5-.8.2-1.9-.6-2.4s-1.9-.2-2.4.6l-7.7 13.3h-7.3l28.1-48.8h7.5l-9 15.5c-.5.8-.2 1.9.7 2.4.8.5 1.9.2 2.4-.6l10.5-18.1c.1-.1.3-.5.2-1.2zm-82.1 2h7.5l28.2 48.8h-7.5zm48.5 52.3v6.9c-6.3-2.3-13.3-2.3-19.6 0v-6.9zm-9.8-5.3-27.1-47h54.3zm-37.5-50.5 6.5-6.5h62l6.5 6.5zm64.7 27c.8.5 1.1 1.6.6 2.4l-1.6 2.8c-.5.8-1.5 1.1-2.4.7s-1.1-1.5-.7-2.4l1.6-2.8c.6-.9 1.6-1.2 2.5-.7zm-10.1 56.5c-.2-.6-.8-1.1-1.4-1.2l-9.7-1.4-4.4-8.8c-.4-.9-1.5-1.2-2.3-.8-.3.2-.6.5-.8.8l-4.4 8.8-9.7 1.4c-1 .1-1.6 1-1.5 2 .1.4.2.7.5 1l7 6.9-1.7 9.7c-.2 1 .5 1.9 1.4 2 .4.1.8 0 1.1-.2l8.7-4.6 8.7 4.6c.9.4 1.9.1 2.4-.7.2-.3.2-.7.2-1.1l-1.7-9.7 7-6.9c.6-.5.8-1.2.6-1.8zm-10.6 6.8c-.4.4-.6 1-.5 1.5l1.2 7.1-6.4-3.4c-.5-.3-1.1-.3-1.6 0l-6.4 3.4 1.2-7.1c.1-.6-.1-1.1-.5-1.5l-5.2-5 7.1-1c.6-.1 1.1-.4 1.3-1l3.2-6.5 3.2 6.5c.3.5.7.9 1.3 1l7.1 1z" fill="#332319"/></g></svg>