<svg height="512" viewBox="0 0 128 128" width="512" xmlns="http://www.w3.org/2000/svg"><g><g><path d="m18.375 1.747h91.25v94.476l-45.751 30.024-45.499-30.024z" fill="#424242"/><path d="m28.375 90.841v-79.094h71.25v79.078l-35.735 23.451z" fill="#5e8569"/><path d="m38.375 71.447v14.012l25.53 16.846 25.72-16.879v-14.011l-25.72 16.878z" fill="#424242"/><path d="m38.375 47.428v14.011l25.53 16.846 25.72-16.878v-14.011l-25.72 16.878z" fill="#424242"/><path d="m64 44.05-9.518 5.004 1.819-10.598-7.701-7.506 10.641-1.546 4.759-9.643 4.759 9.643 10.641 1.546-7.701 7.506 1.819 10.598z" fill="#fbb540"/></g><g fill="#332319"><path d="m109.625 69.625a1.75 1.75 0 0 0 1.75-1.75v-66.128a1.75 1.75 0 0 0 -1.75-1.747h-91.25a1.75 1.75 0 0 0 -1.75 1.75v94.473a1.753 1.753 0 0 0 .786 1.461l45.5 30.024a1.749 1.749 0 0 0 1.923 0l45.751-30.025a1.747 1.747 0 0 0 .79-1.462v-10.846a1.75 1.75 0 0 0 -3.5 0v9.9l-44 28.874-43.75-28.868v-91.781h87.75v64.375a1.75 1.75 0 0 0 1.75 1.75z"/><path d="m28.375 43.123a1.75 1.75 0 0 0 1.75-1.75v-4.746a1.75 1.75 0 0 0 -3.5 0v4.746a1.75 1.75 0 0 0 1.75 1.75z"/><path d="m26.625 90.841a1.75 1.75 0 0 0 .786 1.461l35.515 23.434a1.751 1.751 0 0 0 1.924 0l35.735-23.451a1.749 1.749 0 0 0 .79-1.463v-79.075a1.75 1.75 0 0 0 -1.75-1.747h-71.25a1.75 1.75 0 0 0 -1.75 1.75v13.125a1.75 1.75 0 0 0 3.5 0v-11.375h67.75v76.38l-33.983 22.3-33.767-22.28v-36.775a1.75 1.75 0 0 0 -3.5 0z"/><path d="m36.625 85.459a1.75 1.75 0 0 0 .786 1.461l25.53 16.846a1.751 1.751 0 0 0 1.924 0l25.72-16.879a1.75 1.75 0 0 0 .79-1.463v-14.009a1.75 1.75 0 0 0 -2.71-1.463l-24.758 16.248-24.568-16.214a1.75 1.75 0 0 0 -2.714 1.461zm3.5-10.761 22.816 15.056a1.751 1.751 0 0 0 1.924 0l23.01-15.1v9.825l-23.968 15.731-23.782-15.693z"/><path d="m37.545 45.887a1.751 1.751 0 0 0 -.92 1.541v14.012a1.75 1.75 0 0 0 .786 1.46l25.53 16.846a1.751 1.751 0 0 0 1.924 0l25.72-16.876a1.749 1.749 0 0 0 .79-1.463v-14.007a1.749 1.749 0 0 0 -2.71-1.463l-24.758 16.243-24.568-16.213a1.751 1.751 0 0 0 -1.794-.08zm2.58 4.793 22.816 15.055a1.751 1.751 0 0 0 1.924 0l23.01-15.1v9.826l-23.968 15.729-23.782-15.69z"/><path d="m81.065 30.409a1.751 1.751 0 0 0 -1.413-1.19l-9.731-1.414-4.352-8.818a1.75 1.75 0 0 0 -3.138 0l-4.352 8.818-9.731 1.414a1.749 1.749 0 0 0 -.97 2.984l7.042 6.864-1.662 9.691a1.75 1.75 0 0 0 2.542 1.842l8.7-4.573 8.7 4.573a1.75 1.75 0 0 0 2.539-1.845l-1.659-9.688 7.042-6.867a1.752 1.752 0 0 0 .443-1.791zm-10.588 6.791a1.748 1.748 0 0 0 -.5 1.549l1.218 7.1-6.38-3.349a1.753 1.753 0 0 0 -1.63 0l-6.378 3.353 1.218-7.1a1.748 1.748 0 0 0 -.5-1.549l-5.162-5.031 7.132-1.036a1.746 1.746 0 0 0 1.317-.957l3.188-6.464 3.19 6.463a1.746 1.746 0 0 0 1.317.957l7.132 1.036z"/></g></g></svg>