<svg height="512" viewBox="0 0 128 128" width="512" xmlns="http://www.w3.org/2000/svg"><g><g><path d="m53.992 29.744h20.016v9.82h-20.016z" fill="#424242"/><path d="m69.004 15.758h-10.008l-19.993-14.011v17.989l14.989 10.008h20.016l14.989-10.008v-17.989z" fill="#fbb540"/><path d="m69 15.758v-5.352a3 3 0 0 0 -3-3h-4a3 3 0 0 0 -3 3v5.352z" fill="#424242"/><path d="m81.531 79.508v-29.935l-7.523-10.008h-20.016l-7.523 10.008v29.935c0 1.136.031 2.268.085 3.4h34.892c.054-1.132.085-2.264.085-3.4z" fill="#5e8569"/><path d="m64 67.259-6.18 3.249 1.181-6.882-5.001-4.873 6.91-1.004 3.09-6.262 3.09 6.262 6.91 1.004-5.001 4.873 1.181 6.882z" fill="#fbb540"/><path d="m46.554 82.906a71.068 71.068 0 0 0 17.446 43.341 71.068 71.068 0 0 0 17.446-43.341z" fill="#424242"/></g><g fill="#332319"><path d="m89.8.194a1.752 1.752 0 0 0 -1.812.12l-17.234 12.08v-1.988a4.756 4.756 0 0 0 -4.754-4.75h-4a4.756 4.756 0 0 0 -4.75 4.75v1.988l-17.242-12.08a1.75 1.75 0 0 0 -2.755 1.433v17.989a1.747 1.747 0 0 0 .779 1.455l14.21 9.489v8.3l-7.172 9.542a1.748 1.748 0 0 0 -.351 1.051v29.935c0 1.112.028 2.251.087 3.481a72.817 72.817 0 0 0 3.742 19.811 1.75 1.75 0 0 0 3.316-1.119 69.306 69.306 0 0 1 -3.45-17.029h31.172a69.646 69.646 0 0 1 -15.586 38.888 69.39 69.39 0 0 1 -7.494-11.167 1.75 1.75 0 1 0 -3.082 1.658 72.8 72.8 0 0 0 9.258 13.369 1.75 1.75 0 0 0 2.636 0 73.1 73.1 0 0 0 17.876-44.41c.059-1.23.087-2.369.087-3.481v-5.509a1.75 1.75 0 0 0 -3.5 0v5.508c0 .539-.007 1.086-.021 1.648h-31.52c-.014-.562-.021-1.109-.021-1.648v-29.351l6.647-8.842h18.268l6.647 8.842v5.281a1.75 1.75 0 0 0 3.5 0v-5.865a1.748 1.748 0 0 0 -.351-1.051l-7.172-9.542v-8.3l14.21-9.489a1.747 1.747 0 0 0 .779-1.455v-17.989a1.753 1.753 0 0 0 -.947-1.553zm-29.054 10.212a1.252 1.252 0 0 1 1.254-1.25h4a1.252 1.252 0 0 1 1.25 1.25v3.6h-6.504zm-5 27.409v-6.321h16.512v6.321zm31.501-19.015-13.77 9.193h-18.954l-13.77-9.193v-13.69l17.239 12.081.008.009a1.759 1.759 0 0 0 .419.207c.034.011.068.022.1.031a1.718 1.718 0 0 0 .472.073h10.009a1.718 1.718 0 0 0 .472-.073c.034-.009.068-.02.1-.031a1.759 1.759 0 0 0 .428-.207l.011-.006 17.236-12.084z"/><path d="m81.531 62a1.75 1.75 0 0 0 -1.75 1.75v1.938a1.75 1.75 0 0 0 3.5 0v-1.938a1.749 1.749 0 0 0 -1.75-1.75z"/><path d="m75.665 58.212a1.751 1.751 0 0 0 -1.413-1.19l-6-.873-2.683-5.436a1.749 1.749 0 0 0 -3.138 0l-2.683 5.436-6 .873a1.748 1.748 0 0 0 -.969 2.984l4.341 4.231-1.02 5.975a1.75 1.75 0 0 0 2.539 1.845l5.361-2.821 5.366 2.821a1.75 1.75 0 0 0 2.539-1.845l-1.025-5.975 4.341-4.231a1.752 1.752 0 0 0 .444-1.794zm-7.887 4.161a1.748 1.748 0 0 0 -.5 1.549l.581 3.387-3.041-1.6a1.753 1.753 0 0 0 -1.63 0l-3.041 1.6.581-3.387a1.748 1.748 0 0 0 -.5-1.549l-2.461-2.4 3.4-.5a1.747 1.747 0 0 0 1.318-.957l1.515-3.074 1.52 3.081a1.747 1.747 0 0 0 1.318.957l3.4.5z"/></g></g></svg>