<?xml version="1.0"?>
<svg xmlns="http://www.w3.org/2000/svg" width="512" height="512" viewBox="0 0 128 128"><g><g><path d="M64,1.753A62.25,62.25,0,0,0,1.75,64H64V1.753Z" fill="#5e8569"/><path d="M126.25,64A62.25,62.25,0,0,0,64,1.753h0V64Z" fill="#85bc94"/><path d="M99.125,64a69.942,69.942,0,0,0-24.5-53.165L64,1.753V64Z" fill="#5e8569"/><path d="M64,1.753,53.371,10.838A69.942,69.942,0,0,0,28.875,64H64V1.753Z" fill="#85bc94"/><path d="M120.6,64,68,116.594V64H60v52.591L7.4,64,1.75,64a13.653,13.653,0,0,0,4,9.655L58.344,126.25H69.656L122.25,73.658a13.653,13.653,0,0,0,4-9.655Z" fill="#424242"/></g><g><path d="M128,64A64,64,0,1,0,0,64,15.3,15.3,0,0,0,4.513,74.9l52.593,52.591a1.754,1.754,0,0,0,1.238.513H69.656a1.754,1.754,0,0,0,1.238-.513L123.487,74.9A15.3,15.3,0,0,0,128,64v0Zm-27.173-1.747A71.572,71.572,0,0,0,75.766,9.508L69,3.725a60.571,60.571,0,0,1,55.474,58.527l-3.876,0h0l-.03,0ZM68,62.253H65.75V5.551l7.742,6.617a68.094,68.094,0,0,1,23.86,50.085Zm-8,0H30.647a68.6,68.6,0,0,1,7.1-28.6A1.75,1.75,0,1,0,34.615,32.1a72.084,72.084,0,0,0-7.464,30.153H7.433l-.03,0h0l-3.877,0A60.573,60.573,0,0,1,59,3.725L52.234,9.508A71.8,71.8,0,0,0,41.548,20.875a1.75,1.75,0,1,0,2.8,2.105A68.378,68.378,0,0,1,54.508,12.168L62.25,5.551v56.7Zm-31.125,3.5H58.25v46.616L11.631,65.753Zm92.138,6.668L68.932,124.5H59.068L6.987,72.421a11.811,11.811,0,0,1-3.36-6.668H6.682l52.081,52.078a1.749,1.749,0,0,0,2.987-1.237V65.753h4.5v50.841a1.749,1.749,0,0,0,2.987,1.237L88,99.07A1.75,1.75,0,0,0,85.524,96.6L69.75,112.369V65.753h46.619l-6.533,6.532a1.75,1.75,0,0,0,2.474,2.475l9.008-9.007h3.055A11.818,11.818,0,0,1,121.013,72.421Z" fill="#332319"/><path d="M99.717,82.4l-4.073,4.073a1.75,1.75,0,1,0,2.475,2.474l4.072-4.072A1.75,1.75,0,0,0,99.717,82.4Z" fill="#332319"/></g></g></svg>
