<?xml version="1.0"?>
<svg xmlns="http://www.w3.org/2000/svg" width="512" height="512" viewBox="0 0 128 128"><g><g><circle cx="64" cy="64" r="62.247" fill="#424242"/><circle cx="64" cy="64" r="54.247" transform="translate(-2.671 125.212) rotate(-87.556)" fill="#e6e9ed"/><path d="M118.2,62.25h-13.25a41.044,41.044,0,0,0-39.2-39.2V9.8c-.583-.018-1.163-.044-1.75-.044s-1.168.026-1.75.044v13.25a41.044,41.044,0,0,0-39.2,39.2H9.8c-.018.583-.044,1.163-.044,1.75s.026,1.167.044,1.75h13.25a41.044,41.044,0,0,0,39.2,39.2V118.2c.582.018,1.163.044,1.75.044s1.167-.026,1.75-.044V104.959a40.611,40.611,0,0,0,22.474-7.9,1.75,1.75,0,0,0-2.072-2.82,37.133,37.133,0,0,1-20.4,7.216V89.932A26.029,26.029,0,0,0,89.932,65.75h11.521a37.126,37.126,0,0,1-7.217,20.4,1.75,1.75,0,1,0,2.82,2.073,40.61,40.61,0,0,0,7.9-22.476H118.2c.018-.583.044-1.163.044-1.75S118.221,62.833,118.2,62.25Zm-55.953,39.2a37.544,37.544,0,0,1-35.7-35.7H38.068A26.029,26.029,0,0,0,62.25,89.932Zm0-15.031A22.523,22.523,0,0,1,41.578,65.75H53.156a11,11,0,0,0,9.094,9.094Zm0-15.14a7.509,7.509,0,0,1-5.532-5.532H62.25Zm0-9.032H56.718a7.509,7.509,0,0,1,5.532-5.532Zm0-24.188a25.912,25.912,0,0,0-11.558,3.611,1.75,1.75,0,0,0,1.8,3,22.409,22.409,0,0,1,9.761-3.1V53.156a11,11,0,0,0-9.094,9.094H41.578a22.4,22.4,0,0,1,3.1-9.757,1.75,1.75,0,0,0-3-1.8A25.911,25.911,0,0,0,38.062,62.25H26.547a37.544,37.544,0,0,1,35.7-35.7Zm3.5,18.656a7.51,7.51,0,0,1,5.532,5.532H65.75Zm0,9.032h5.532a7.51,7.51,0,0,1-5.532,5.532Zm0,20.672V74.844a11,11,0,0,0,9.094-9.094H86.422A22.523,22.523,0,0,1,65.75,86.422ZM74.844,62.25a11,11,0,0,0-9.094-9.094V41.578A22.523,22.523,0,0,1,86.422,62.25Zm15.088,0A26.029,26.029,0,0,0,65.75,38.068V26.547a37.544,37.544,0,0,1,35.7,35.7Z" fill="#85bc94"/><circle cx="91.752" cy="91.752" r="6" fill="#fbb540"/><circle cx="46.855" cy="46.858" r="6" fill="#fbb540"/></g><g><path d="M119.114,31.453a1.75,1.75,0,1,0-3.012,1.782A60.452,60.452,0,1,1,92.59,10.671a1.75,1.75,0,1,0,1.657-3.083,63.981,63.981,0,1,0,24.867,23.865Z" fill="#332319"/><path d="M107.2,21.648a1.75,1.75,0,1,0,2.5-2.45c-1.059-1.08-2.173-2.138-3.308-3.143a1.75,1.75,0,1,0-2.32,2.621C105.145,19.627,106.2,20.627,107.2,21.648Z" fill="#332319"/><path d="M17.753,35.616a1.749,1.749,0,0,0-2.388.65A56.148,56.148,0,1,0,23.25,25.629a1.75,1.75,0,0,0,2.548,2.4A51.968,51.968,0,0,1,62.25,11.547v11.5a41.044,41.044,0,0,0-39.2,39.2H11.56A52.379,52.379,0,0,1,18.4,38,1.749,1.749,0,0,0,17.753,35.616ZM11.547,65.75h11.5a41.044,41.044,0,0,0,39.2,39.2v11.5A52.545,52.545,0,0,1,11.547,65.75Zm26.521,0A26.029,26.029,0,0,0,62.25,89.932v11.521a37.544,37.544,0,0,1-35.7-35.7ZM51.1,46.858a4.25,4.25,0,1,1-4.25-4.25A4.255,4.255,0,0,1,51.1,46.858ZM43.856,54A7.749,7.749,0,0,0,54,43.858a22.407,22.407,0,0,1,8.25-2.28V53.156a11,11,0,0,0-9.094,9.094H41.578A22.42,22.42,0,0,1,43.856,54ZM88.747,94.757a4.25,4.25,0,1,1,6.01,0A4.254,4.254,0,0,1,88.747,94.757Zm6.431-9.95a7.741,7.741,0,0,0-10.37,10.371,37.1,37.1,0,0,1-19.058,6.275V89.932A26.029,26.029,0,0,0,89.932,65.75h11.521A37.085,37.085,0,0,1,95.178,84.807ZM71.282,65.75a7.51,7.51,0,0,1-5.532,5.532V65.75Zm-5.532-3.5V56.718a7.51,7.51,0,0,1,5.532,5.532Zm9.094,3.5H86.422A22.523,22.523,0,0,1,65.75,86.422V74.844A11,11,0,0,0,74.844,65.75Zm0-3.5a11,11,0,0,0-9.094-9.094V41.578A22.523,22.523,0,0,1,86.422,62.25Zm-12.594,0H56.718a7.509,7.509,0,0,1,5.532-5.532Zm0,3.5v5.532a7.509,7.509,0,0,1-5.532-5.532Zm27.682-3.5A26.029,26.029,0,0,0,65.75,38.068V26.547a37.544,37.544,0,0,1,35.7,35.7Zm-36.776,3.5a11,11,0,0,0,9.094,9.094V86.422A22.523,22.523,0,0,1,41.578,65.75Zm12.594,50.7V104.959a40.576,40.576,0,0,0,21.287-7.065A7.742,7.742,0,0,0,97.894,87.038a40.579,40.579,0,0,0,7.065-21.288h11.494A52.545,52.545,0,0,1,65.75,116.453Zm50.7-54.2h-11.5a41.044,41.044,0,0,0-39.2-39.2v-11.5A52.545,52.545,0,0,1,116.453,62.25Zm-54.2-35.7V38.062A25.923,25.923,0,0,0,51.912,41,7.739,7.739,0,0,0,41,51.917,25.929,25.929,0,0,0,38.062,62.25H26.547A37.544,37.544,0,0,1,62.25,26.547Z" fill="#332319"/></g></g></svg>
