<svg height="512" viewBox="0 0 128 128" width="512" xmlns="http://www.w3.org/2000/svg"><g><g><circle cx="64" cy="63.997" fill="#424242" r="62.25"/><circle cx="64" cy="63.997" fill="#e6e9ed" r="52.25"/><g fill="#fbb540"><g><path d="m78.474 63.487 27.571-3.631a42.256 42.256 0 0 0 -17.452-30.181l-16.912 22.04a14.468 14.468 0 0 1 6.793 11.772z"/><path d="m64 78.5a14.429 14.429 0 0 1 -6.8-1.7l-10.632 25.668a42.1 42.1 0 0 0 34.864 0l-10.632-25.668a14.429 14.429 0 0 1 -6.8 1.7z"/><path d="m56.319 51.715-16.912-22.04a42.252 42.252 0 0 0 -17.452 30.181l27.571 3.631a14.466 14.466 0 0 1 6.793-11.772z"/></g><circle cx="64" cy="63.997" r="6.5"/></g></g><g fill="#332319"><path d="m64 0a64 64 0 1 0 64 64 64.073 64.073 0 0 0 -64-64zm0 124.5a60.5 60.5 0 1 1 60.5-60.5 60.569 60.569 0 0 1 -60.5 60.5z"/><path d="m64 10a54.133 54.133 0 0 0 -50.915 36 1.75 1.75 0 0 0 3.3 1.17 50.508 50.508 0 1 1 -2.885 16.83 1.75 1.75 0 0 0 -3.5 0 54 54 0 1 0 54-54z"/><path d="m107.787 59.686a44.025 44.025 0 0 0 -18.172-31.432 1.752 1.752 0 0 0 -2.41.356l-16.913 22.039a1.75 1.75 0 0 0 .459 2.548 12.729 12.729 0 0 1 5.975 10.351 1.749 1.749 0 0 0 1.974 1.674l27.57-3.631a1.749 1.749 0 0 0 1.517-1.905zm-27.743 1.829a16.219 16.219 0 0 0 -5.872-10.172l14.757-19.229a40.525 40.525 0 0 1 15.171 26.233z"/><path d="m74.857 91.169a1.75 1.75 0 0 0 3.235-1.338l-1.392-3.359a1.75 1.75 0 0 0 -3.234 1.339z"/><path d="m72.418 76.131a1.751 1.751 0 0 0 -2.44-.876 12.777 12.777 0 0 1 -11.957 0 1.75 1.75 0 0 0 -2.439.876l-10.631 25.669a1.75 1.75 0 0 0 .893 2.262 43.833 43.833 0 0 0 36.312 0 1.75 1.75 0 0 0 .893-2.262l-1.933-4.666a1.75 1.75 0 1 0 -3.234 1.34l1.272 3.071a40.347 40.347 0 0 1 -30.308 0l9.276-22.4a16.437 16.437 0 0 0 11.755 0l.565 1.364a1.751 1.751 0 0 0 3.235-1.339z"/><path d="m40.8 28.61a1.752 1.752 0 0 0 -2.41-.356 44.021 44.021 0 0 0 -18.177 31.432 1.749 1.749 0 0 0 1.514 1.905l27.573 3.631a1.749 1.749 0 0 0 1.977-1.674 12.729 12.729 0 0 1 5.972-10.348 1.75 1.75 0 0 0 .459-2.548zm7.161 32.905-24.061-3.168a40.531 40.531 0 0 1 15.171-26.233l14.757 19.229a16.219 16.219 0 0 0 -5.872 10.172z"/><path d="m64 55.747a8.25 8.25 0 1 0 8.25 8.253 8.259 8.259 0 0 0 -8.25-8.253zm0 13a4.75 4.75 0 1 1 4.75-4.747 4.756 4.756 0 0 1 -4.75 4.747z"/></g></g></svg>