<svg height="512" viewBox="0 0 128 128" width="512" xmlns="http://www.w3.org/2000/svg"><g><g><path d="m82.745 78.728h39.5a4 4 0 0 1 4 4v39.519a4 4 0 0 1 -4 4h-39.5a0 0 0 0 1 0 0v-47.519a0 0 0 0 1 0 0z" fill="#424242"/><path d="m92.745 78.728h23.505v10h-23.505z" fill="#707070"/><path d="m82.745 126.247h-54a4 4 0 0 1 -4-4v-39.519a4 4 0 0 1 4-4h54z" fill="#5e8569"/><path d="m34.748 88.728h37.989v9.952h-37.989z" fill="#e6e9ed"/><path d="m34.748 108.688h13.991v7.56h-13.991z" fill="#424242"/><path d="m58.747 108.688h13.99v7.56h-13.99z" fill="#fbb540"/><circle cx="104.498" cy="108.127" fill="#fbb540" r="11.752" transform="matrix(.751 -.66 .66 .751 -45.373 95.88)"/><path d="m104.5 96.374a11.726 11.726 0 0 0 -1.75.145v11.608a1.75 1.75 0 0 0 3.5 0v-11.608a11.749 11.749 0 0 0 -1.75-.145z" fill="#ea6b65"/><path d="m45.683 44.75a16.152 16.152 0 0 1 -16-13.919l-2.783-19.975a8 8 0 0 1 7.92-9.106h21.727a8 8 0 0 1 7.923 9.106l-2.789 19.975a16.153 16.153 0 0 1 -15.998 13.919z" fill="#5e8569"/><path d="m56.547 9.75h-21.728l1 7.156h19.729z" fill="#e6e9ed"/><circle cx="45.683" cy="31.125" fill="#fbb540" r="5.75"/><path d="m26.9 10.856c0-.014 0-.029 0-.043h-4.275a3 3 0 0 0 -3 3v10.125a3 3 0 0 0 3 3h6.517z" fill="#424242"/><path d="m45.683 44.75a16.094 16.094 0 0 1 -4.085-.534 15.147 15.147 0 0 1 -15.041 13.534h-1.809a23.153 23.153 0 0 0 -23.127 23.127v2.246a23.154 23.154 0 0 0 23.127 23.128v-8a15.145 15.145 0 0 1 -15.127-15.128v-2.246a15.144 15.144 0 0 1 15.127-15.127h1.809a23.152 23.152 0 0 0 23.063-21.5 16.118 16.118 0 0 1 -3.937.5z" fill="#fbb540"/></g><g fill="#332319"><path d="m122.25 76.978h-51.875a1.75 1.75 0 0 0 0 3.5h10.625v44.022h-52.252a2.253 2.253 0 0 1 -2.25-2.25v-39.522a2.253 2.253 0 0 1 2.25-2.25h16.252a1.75 1.75 0 0 0 0-3.5h-16.252a5.757 5.757 0 0 0 -5.748 5.75v13.644a13.387 13.387 0 0 1 -11.629-13.249v-2.246a13.392 13.392 0 0 1 13.377-13.377h1.809a24.952 24.952 0 0 0 24.69-21.886 17.851 17.851 0 0 0 8.368-5.772 1.75 1.75 0 1 0 -2.722-2.2 14.342 14.342 0 0 1 -7.793 4.939c-.024.008-.048.012-.072.021a14.388 14.388 0 0 1 -17.608-12.013l-2.785-19.935c0-.025-.005-.05-.008-.07a6.248 6.248 0 0 1 6.192-7.084h21.728a6.249 6.249 0 0 1 6.189 7.114l-2.289 16.394a1.75 1.75 0 0 0 3.467.484l2.286-16.392a9.75 9.75 0 0 0 -9.653-11.1h-21.728a9.745 9.745 0 0 0 -9.719 9.063h-2.475a4.755 4.755 0 0 0 -4.75 4.75v10.125a4.756 4.756 0 0 0 4.75 4.75h5l.333 2.386a17.983 17.983 0 0 0 11.674 14.349 13.336 13.336 0 0 1 -13.075 10.577h-1.809a24.905 24.905 0 0 0 -24.877 24.877v2.246a24.9 24.9 0 0 0 23.129 24.809v14.315a5.757 5.757 0 0 0 5.75 5.75h93.5a5.757 5.757 0 0 0 5.75-5.75v-39.519a5.757 5.757 0 0 0 -5.75-5.75zm-95.119-51.79h-4.506a1.251 1.251 0 0 1 -1.25-1.25v-10.125a1.25 1.25 0 0 1 1.25-1.25h2.743l1.512 10.83zm-23.76 57.935v-2.246a21.4 21.4 0 0 1 21.377-21.377h1.809a16.823 16.823 0 0 0 16.465-13.218 17.748 17.748 0 0 0 2.662.218 18.127 18.127 0 0 0 1.9-.1 21.442 21.442 0 0 1 -21.027 17.6h-1.809a16.9 16.9 0 0 0 -16.877 16.877v2.246a16.9 16.9 0 0 0 15.129 16.788v4.519a21.407 21.407 0 0 1 -19.629-21.307zm111.129-2.645v6.5h-20v-6.5zm10 41.769a2.253 2.253 0 0 1 -2.25 2.25h-37.75v-44.019h6.5v8.25a1.75 1.75 0 0 0 1.75 1.75h23.5a1.75 1.75 0 0 0 1.75-1.75v-8.25h4.25a2.253 2.253 0 0 1 2.25 2.25z"/><path d="m59.375 80.478a1.75 1.75 0 1 0 0-3.5h-3.375a1.75 1.75 0 0 0 0 3.5z"/><path d="m74.487 88.728a1.75 1.75 0 0 0 -1.75-1.75h-37.989a1.75 1.75 0 0 0 -1.748 1.75v9.952a1.75 1.75 0 0 0 1.75 1.75h37.987a1.75 1.75 0 0 0 1.75-1.75zm-3.5 8.2h-34.487v-6.45h34.487z"/><path d="m34.748 106.938a1.749 1.749 0 0 0 -1.75 1.75v7.559a1.75 1.75 0 0 0 1.75 1.75h13.99a1.75 1.75 0 0 0 1.75-1.75v-7.559a1.749 1.749 0 0 0 -1.75-1.75zm12.24 7.559h-10.488v-4.059h10.49z"/><path d="m72.737 106.938h-13.991a1.749 1.749 0 0 0 -1.75 1.75v7.559a1.75 1.75 0 0 0 1.75 1.75h13.991a1.75 1.75 0 0 0 1.75-1.75v-7.559a1.749 1.749 0 0 0 -1.75-1.75zm-1.75 7.559h-10.487v-4.059h10.487z"/><path d="m104.5 94.624a13.5 13.5 0 1 0 13.5 13.5 13.518 13.518 0 0 0 -13.5-13.5zm0 23.505a10 10 0 0 1 -1.75-19.842v9.84a1.75 1.75 0 0 0 3.5 0v-9.84a10 10 0 0 1 -1.75 19.842z"/><path d="m57.281 17.148 1-7.156a1.75 1.75 0 0 0 -1.734-1.992h-21.728a1.751 1.751 0 0 0 -1.733 1.992l1 7.156a1.75 1.75 0 0 0 1.733 1.508h19.729a1.75 1.75 0 0 0 1.733-1.508zm-3.256-1.992h-16.683l-.511-3.656h17.7z"/><path d="m38.184 31.125a7.5 7.5 0 1 0 7.5-7.5 7.508 7.508 0 0 0 -7.5 7.5zm11.5 0a4 4 0 1 1 -4-4 4 4 0 0 1 4 4z"/></g></g></svg>