<svg height="512" viewBox="0 0 128 128" width="512" xmlns="http://www.w3.org/2000/svg"><g><g><path d="m38.963 105.428-16.391-16.391 52.976-52.976c24.081-24.082 29.041-27.14 34.5-28.947l16.2-5.364-5.364 16.2c-1.807 5.458-4.865 10.418-28.947 34.5z" fill="#5e8569"/><path d="m65.98 41.288h18.283v23.181h-18.283z" fill="#fbb540" transform="matrix(.707 -.707 .707 .707 -15.388 68.607)"/><path d="m38.963 105.428 17.265 17.265 8.605-43.135z" fill="#707070"/><path d="m76.854 67.538-12.021 12.02-8.605 43.135 12.021-12.021z" fill="#424242"/><path d="m22.572 89.037-17.265-17.265 43.135-8.605z" fill="#707070"/><path d="m60.462 51.146-12.02 12.021-43.135 8.605 12.021-12.021z" fill="#424242"/><path d="m21.126 89.636h11.296v23.181h-11.296z" fill="#424242" transform="matrix(.707 -.707 .707 .707 -63.736 48.58)"/><path d="m1.75 126.25a50.527 50.527 0 0 1 12.924-22.09l3.523-3.523 9.166 9.165-3.523 3.523a50.525 50.525 0 0 1 -22.09 12.925z" fill="#ea6b65"/><path d="m32.005 98.47 33.233-33.234a1.749 1.749 0 1 0 -2.474-2.474l-33.234 33.238z" fill="#85bc94"/></g><g fill="#332319"><path d="m127.487.513a1.743 1.743 0 0 0 -1.787-.424l-16.2 5.364a1.75 1.75 0 1 0 1.1 3.322l12.9-4.269-4.269 12.9c-1.629 4.919-4.361 9.649-28.523 33.812l-.921.92-13.922-13.919.92-.921c11.562-11.562 18.994-18.564 24.1-22.7a1.75 1.75 0 0 0 -2.2-2.717c-5.2 4.219-12.718 11.3-24.369 22.948l-14.716 14.705-42.615 8.5a1.755 1.755 0 0 0 -.895.479l-12.02 12.022c-.029.028-.043.066-.07.1a1.457 1.457 0 0 0 -.3.477c-.022.054-.055.1-.072.157s-.013.1-.023.145a1.7 1.7 0 0 0 -.032.2 1.764 1.764 0 0 0 0 .325c.006.062.009.123.021.185a1.737 1.737 0 0 0 .133.387c.013.028.015.06.03.088l.011.015a1.8 1.8 0 0 0 .147.2 1.66 1.66 0 0 0 .145.186l.01.013 16.03 16.024-6.749 6.75a1.748 1.748 0 0 0 0 2.474l2.375 2.376-2.286 2.285a52.391 52.391 0 0 0 -13.375 22.855 1.75 1.75 0 0 0 2.158 2.158 52.391 52.391 0 0 0 22.855-13.372l2.285-2.286 2.376 2.375a1.748 1.748 0 0 0 2.474 0l6.75-6.749 16.028 16.027a1.7 1.7 0 0 0 .371.275c.015.009.025.023.041.031s.043.014.064.025a1.783 1.783 0 0 0 .263.1c.038.011.075.025.113.034a1.823 1.823 0 0 0 .382.047 1.726 1.726 0 0 0 .45-.067c.018-.005.038 0 .056-.008s.035-.019.054-.025a1.7 1.7 0 0 0 .33-.152c.019-.011.04-.019.059-.03a1.7 1.7 0 0 0 .287-.231l12.021-12.02a1.755 1.755 0 0 0 .479-.895l1.429-7.165a1.75 1.75 0 1 0 -3.432-.685l-1.326 6.645-7.562 7.562 2.53-12.671 4.845-24.282 7.562-7.563-1.27 6.367a1.75 1.75 0 0 0 3.432.684l2.3-11.509 14.71-14.71c23.88-23.88 27.415-29.277 29.371-35.188l5.364-16.2a1.748 1.748 0 0 0 -.427-1.786zm-62.249 62.249a1.748 1.748 0 0 0 -2.474 0l-32 32-5.721-5.721 35.419-35.42 13.917 13.917-35.416 35.415-5.721-5.721 32-32a1.748 1.748 0 0 0 -.004-2.47zm-22.118 3.251-20.548 20.548-13.714-13.713zm33.733-.95-13.916-13.917 10.453-10.452 13.916 13.916zm-58.663-3.7 36.951-7.371-3.192 3.192-4.37 4.369-24.279 4.847-12.672 2.526zm4.41 50.725a48.887 48.887 0 0 1 -18.161 11.472 48.906 48.906 0 0 1 11.473-18.16l2.286-2.286 6.691 6.691zm8.373-1.148-2.373-2.375-9.165-9.165-2.375-2.376 5.512-5.512 13.916 13.916zm31.014-26.06-6.835 34.262-13.714-13.714z"/><path d="m72.688 88.416a1.751 1.751 0 0 0 -2.058 1.374l-.561 2.81a1.751 1.751 0 0 0 1.374 2.058 1.769 1.769 0 0 0 .345.034 1.75 1.75 0 0 0 1.712-1.408l.56-2.809a1.75 1.75 0 0 0 -1.372-2.059z"/></g></g></svg>