<svg height="512" viewBox="0 0 128 128" width="512" xmlns="http://www.w3.org/2000/svg"><g><g><path d="m1.75 62.172v.041a29.91 29.91 0 0 0 16.822 26.887 19.969 19.969 0 0 0 5.933-1.281l1.17-.451a19.993 19.993 0 0 1 14.39 0l1.172.451a20 20 0 0 0 14.391 0l1.167-.45a20 20 0 0 1 14.391 0l1.173.453a20 20 0 0 0 14.389 0l1.176-.453a20 20 0 0 1 14.387 0l1.18.455a19.992 19.992 0 0 0 5.876 1.278 29.918 29.918 0 0 0 16.883-26.93z" fill="#5e8569"/><path d="m65 62.172h-54.75l10.008-16.742h34.734l10.008 8.371z" fill="#424242"/><path d="m25.75 31.94h23.75v13.489h-23.75z" fill="#5e8569"/><path d="m49.5 24.721h-23.75v-3.221a4 4 0 0 1 4-4h15.75a4 4 0 0 1 4 4z" fill="#5e8569"/><path d="m19.156 24.721h36.937v7.219h-36.937z" fill="#424242"/><path d="m14.208 55.551h28.792a1.75 1.75 0 0 0 0-3.5h-26.7z" fill="#707070"/><path d="m80.75 53.8h27.375a3 3 0 0 1 3 3v5.371a0 0 0 0 1 0 0h-33.375a0 0 0 0 1 0 0v-5.371a3 3 0 0 1 3-3z" fill="#424242"/><path d="m105.477 53.8h-22.077v-4.076a11.039 11.039 0 0 1 11.037-11.039 11.039 11.039 0 0 1 11.04 11.039z" fill="#5e8569"/><path d="m104.929 46.3 10.654-4.326-3.01-7.412-13.13 5.332a11.061 11.061 0 0 1 5.486 6.406z" fill="#424242"/><circle cx="36.875" cy="76.382" fill="#85bc94" r="4.375"/><circle cx="52.564" cy="76.382" fill="#85bc94" r="4.375"/><path d="m126.25 95.261-8.373 3.227a20 20 0 0 1 -14.386 0l-1.18-.455a20 20 0 0 0 -14.387 0l-1.176.453a20 20 0 0 1 -14.389 0l-1.173-.453a20 20 0 0 0 -14.391 0l-1.167.451a20 20 0 0 1 -14.391 0l-1.172-.451a19.993 19.993 0 0 0 -14.39 0l-1.17.451a20 20 0 0 1 -14.391 0l-8.364-3.223v-10.672l8.364 3.226a20 20 0 0 0 14.391 0l1.17-.451a20 20 0 0 1 14.39 0l1.172.452a20 20 0 0 0 14.391 0l1.167-.45a20 20 0 0 1 14.391 0l1.173.453a20 20 0 0 0 14.389 0l1.176-.454a20.006 20.006 0 0 1 14.387 0l1.18.455a20 20 0 0 0 14.386 0l8.373-3.228z" fill="#1e88e5"/><path d="m126.25 105.932-8.373 3.227a20 20 0 0 1 -14.386 0l-1.18-.455a20 20 0 0 0 -14.387 0l-1.176.453a20 20 0 0 1 -14.389 0l-1.173-.452a20 20 0 0 0 -14.391 0l-1.167.45a20 20 0 0 1 -14.391 0l-1.172-.451a19.993 19.993 0 0 0 -14.39 0l-1.17.451a20 20 0 0 1 -14.391 0l-8.364-3.223v-10.671l8.364 3.225a20 20 0 0 0 14.391 0l1.17-.451a19.993 19.993 0 0 1 14.39 0l1.172.451a20 20 0 0 0 14.391 0l1.167-.451a20 20 0 0 1 14.391 0l1.173.453a20 20 0 0 0 14.389 0l1.176-.453a20 20 0 0 1 14.387 0l1.18.455a20 20 0 0 0 14.386 0l8.373-3.227z" fill="#64b5f6"/></g><g fill="#332319"><path d="m36.875 63.922h4.781a1.75 1.75 0 1 0 0-3.5h-4.781a1.75 1.75 0 0 0 0 3.5z"/><path d="m36.875 82.507a6.125 6.125 0 1 0 -6.125-6.125 6.132 6.132 0 0 0 6.125 6.125zm0-8.75a2.625 2.625 0 1 1 -2.625 2.625 2.629 2.629 0 0 1 2.625-2.625z"/><path d="m52.563 82.507a6.125 6.125 0 1 0 -6.125-6.125 6.132 6.132 0 0 0 6.125 6.125zm0-8.75a2.625 2.625 0 1 1 -2.625 2.625 2.628 2.628 0 0 1 2.625-2.625z"/><path d="m127.24 83.147a1.754 1.754 0 0 0 -1.619-.19l-8.374 3.227c-.178.068-.36.117-.539.179a31.851 31.851 0 0 0 11.292-24.191 1.749 1.749 0 0 0 -1.75-1.75h-13.375v-3.622a4.756 4.756 0 0 0 -4.75-4.75h-.9v-2.326a12.826 12.826 0 0 0 -.23-2.375l9.244-3.753a1.75 1.75 0 0 0 .963-2.28l-3.01-7.412a1.748 1.748 0 0 0 -2.279-.963l-12.413 5.042a12.781 12.781 0 0 0 -17.852 11.741v2.327h-.9a4.756 4.756 0 0 0 -4.748 4.749v3.621h-9.25v-6.621a1.752 1.752 0 0 0 -.627-1.343l-10.008-8.37a1.753 1.753 0 0 0 -1.123-.407h-3.742v-9.99h4.844a1.75 1.75 0 0 0 1.75-1.75v-7.218a1.75 1.75 0 0 0 -1.75-1.75h-4.844v-1.472a5.756 5.756 0 0 0 -5.75-5.75h-15.75a5.756 5.756 0 0 0 -5.75 5.75v1.469h-4.844a1.749 1.749 0 0 0 -1.75 1.75v7.221a1.749 1.749 0 0 0 1.75 1.75h4.844v9.99h-3.742a1.747 1.747 0 0 0 -1.5.852l-9.5 15.89h-7.508a1.785 1.785 0 0 0 -1.75 1.791 31.852 31.852 0 0 0 11.236 24.133c-.163-.058-.33-.1-.492-.164l-8.364-3.225a1.75 1.75 0 0 0 -2.38 1.633v21.342a1.751 1.751 0 0 0 1.12 1.633l8.364 3.225a21.717 21.717 0 0 0 15.652 0l1.169-.451a18.21 18.21 0 0 1 13.131 0l1.17.451a21.722 21.722 0 0 0 15.652 0l1.167-.45a18.213 18.213 0 0 1 13.132 0l1.172.452a21.708 21.708 0 0 0 15.648 0l1.177-.453a18.215 18.215 0 0 1 13.129 0 1.75 1.75 0 0 0 1.257-3.266 21.714 21.714 0 0 0 -15.645 0l-1.177.453a18.207 18.207 0 0 1 -13.13 0l-1.173-.452a21.717 21.717 0 0 0 -15.65 0l-1.167.45a18.216 18.216 0 0 1 -13.133 0l-1.17-.451a21.717 21.717 0 0 0 -15.65 0l-1.169.451a18.218 18.218 0 0 1 -13.132 0l-7.244-2.794v-6.919l5.984 2.307a21.706 21.706 0 0 0 15.652 0l1.169-.451a18.218 18.218 0 0 1 13.13 0l1.171.452a21.706 21.706 0 0 0 15.652 0l1.167-.45a18.231 18.231 0 0 1 13.131 0l1.174.453a21.714 21.714 0 0 0 15.649 0l1.174-.454a18.236 18.236 0 0 1 13.129 0l1.179.455a21.716 21.716 0 0 0 15.646 0l5.993-2.31v6.919l-7.252 2.8a18.606 18.606 0 0 1 -2.232.7 1.75 1.75 0 1 0 .83 3.4 21.98 21.98 0 0 0 2.661-.834l8.373-3.227a1.75 1.75 0 0 0 1.12-1.633v-21.348a1.75 1.75 0 0 0 -.76-1.443zm-24.168-42.838 8.538-3.467 1.693 4.17-7.423 3.014a13.347 13.347 0 0 0 -2.808-3.717zm-17.924 9.415a9.3 9.3 0 0 1 9.289-9.289c5.647-.142 10.154 5.457 9.29 11.616h-18.579zm-5.648 7.076a1.25 1.25 0 0 1 1.25-1.25h27.375a1.251 1.251 0 0 1 1.25 1.25v3.621h-29.875zm-52-35.3a2.253 2.253 0 0 1 2.25-2.25h15.75a2.253 2.253 0 0 1 2.25 2.25v1.469h-20.25zm-6.594 4.969h33.438v3.721h-33.438zm6.594 7.221h20.25v9.99h-20.25zm-23.944 30.232h20.381a1.75 1.75 0 0 0 0-3.5h-10.6l2.912-4.871h26.751a1.75 1.75 0 0 0 0-3.5h-24.661l2.912-4.871h33.105l8.894 7.438v5.8h-8.656a1.75 1.75 0 1 0 0 3.5h69.85a28.352 28.352 0 0 1 -15.422 23.391 18.65 18.65 0 0 1 -2.218-.342c-.215-.047-.431-.1-.645-.151s-.438-.112-.655-.175c-.465-.138-.928-.286-1.385-.461l-1.179-.455a21.719 21.719 0 0 0 -15.647 0l-1.174.455a18.258 18.258 0 0 1 -8.232 1.147c-.046-.005-.091-.015-.137-.02a18.27 18.27 0 0 1 -4.762-1.128l-1.173-.453a21.722 21.722 0 0 0 -15.65 0l-1.165.456a18.226 18.226 0 0 1 -13.131 0l-1.169-.452a21.709 21.709 0 0 0 -15.649 0 20.285 20.285 0 0 1 -6.125 1.584 28.369 28.369 0 0 1 -15.37-23.392zm82.562 32.932a18.22 18.22 0 0 1 -13.129 0l-1.174-.454a21.722 21.722 0 0 0 -15.65 0l-1.165.453a18.221 18.221 0 0 1 -13.131 0l-1.169-.453a21.722 21.722 0 0 0 -15.65 0l-1.169.451a18.223 18.223 0 0 1 -13.132 0l-7.249-2.791v-6.92l5.984 2.307a21.684 21.684 0 0 0 10.739 1.241 25.315 25.315 0 0 0 6.082-1.688 18.213 18.213 0 0 1 13.13 0l1.171.452a21.712 21.712 0 0 0 15.652 0l1.167-.452a18.216 18.216 0 0 1 12.489-.215c.213.073.43.133.642.214l1.174.453a21.74 21.74 0 0 0 7.823 1.458c.629 0 1.258-.031 1.886-.086a21.767 21.767 0 0 0 5.94-1.372l1.174-.452a18.228 18.228 0 0 1 13.13 0l1.177.454c.557.215 1.126.4 1.7.567.293.087.589.155.884.229.252.061.5.124.759.177.411.087.823.158 1.237.221q.164.024.327.045a21.674 21.674 0 0 0 10.737-1.239l5.996-2.314v6.92l-7.252 2.8a18.223 18.223 0 0 1 -13.128 0l-1.18-.455a21.719 21.719 0 0 0 -15.647 0z"/></g></g></svg>