<svg height="512" viewBox="0 0 128 128" width="512" xmlns="http://www.w3.org/2000/svg"><g><g><path d="m89.781 15.625v7.875h-51.562v-7.875h-13.344a4 4 0 0 0 -4 4v102.622a4 4 0 0 0 4 4h78.25a4 4 0 0 0 4-4v-102.622a4 4 0 0 0 -4-4z" fill="#424242"/><path d="m30.875 23.5h66.25v92.747h-66.25z" fill="#e6e9ed"/><path d="m75.25 7.75a6 6 0 0 0 -6-6h-10.497a6 6 0 0 0 -6 6h-10.534a4 4 0 0 0 -4 4v11.75h51.562v-11.75a4 4 0 0 0 -4-4z" fill="#5e8569"/><g fill="#fbb540"><path d="m79.773 17.375h-31.546a1.75 1.75 0 0 1 0-3.5h31.546a1.75 1.75 0 0 1 0 3.5z"/><path d="m40.875 95.125h18.687v11.122h-18.687z"/><path d="m68.437 95.125h18.688v11.122h-18.688z"/></g><path d="m74.25 39.156-5.656-5.656-4.594 4.594-4.594-4.594-5.656 5.656 4.594 4.594-4.594 4.594 5.656 5.656 4.594-4.594 4.594 4.594 5.656-5.656-4.594-4.594z" fill="#ea6b65"/><path d="m64 63.997-7.969 8.722h5.11v10.969h5.718v-10.969h5.11z" fill="#424242"/></g><g fill="#332319"><path d="m30.875 68.688a1.75 1.75 0 0 0 1.75-1.75v-2.188a1.75 1.75 0 0 0 -3.5 0v2.188a1.75 1.75 0 0 0 1.75 1.75z"/><path d="m103.125 13.875h-11.594v-2.125a5.756 5.756 0 0 0 -5.75-5.75h-10.531a1.75 1.75 0 0 0 0 3.5h10.531a2.253 2.253 0 0 1 2.25 2.25v10h-48.062v-10a2.253 2.253 0 0 1 2.25-2.25h10.531a1.749 1.749 0 0 0 1.75-1.75 4.258 4.258 0 0 1 4.253-4.25h10.494a1.75 1.75 0 1 0 0-3.5h-10.494a7.768 7.768 0 0 0 -7.553 6h-8.98a5.756 5.756 0 0 0 -5.75 5.75v2.125h-11.595a5.756 5.756 0 0 0 -5.75 5.75v102.622a5.756 5.756 0 0 0 5.75 5.75h78.25a5.756 5.756 0 0 0 5.75-5.75v-102.622a5.756 5.756 0 0 0 -5.75-5.75zm2.25 108.372a2.253 2.253 0 0 1 -2.25 2.25h-78.25a2.253 2.253 0 0 1 -2.25-2.25v-102.622a2.253 2.253 0 0 1 2.25-2.25h11.594v4.375h-5.594a1.749 1.749 0 0 0 -1.75 1.75v28.375a1.75 1.75 0 0 0 3.5 0v-26.625h62.75v89.25h-62.75v-34.687a1.75 1.75 0 0 0 -3.5 0v36.434a1.749 1.749 0 0 0 1.75 1.75h66.25a1.749 1.749 0 0 0 1.75-1.75v-92.747a1.749 1.749 0 0 0 -1.75-1.75h-5.594v-4.375h11.594a2.253 2.253 0 0 1 2.25 2.25z"/><path d="m46.477 15.625a1.749 1.749 0 0 0 1.75 1.75h31.546a1.75 1.75 0 0 0 0-3.5h-31.546a1.749 1.749 0 0 0 -1.75 1.75z"/><path d="m40.875 108h18.687a1.749 1.749 0 0 0 1.75-1.75v-11.125a1.749 1.749 0 0 0 -1.75-1.75h-18.687a1.749 1.749 0 0 0 -1.75 1.75v11.122a1.749 1.749 0 0 0 1.75 1.753zm1.75-11.122h15.187v7.622h-15.187z"/><path d="m66.687 95.125v11.122a1.75 1.75 0 0 0 1.75 1.75h18.688a1.749 1.749 0 0 0 1.75-1.75v-11.122a1.749 1.749 0 0 0 -1.75-1.75h-18.688a1.75 1.75 0 0 0 -1.75 1.75zm3.5 1.75h15.188v7.625h-15.188z"/><path d="m52.513 49.581 5.656 5.656a1.749 1.749 0 0 0 2.475 0l3.356-3.356 3.356 3.356a1.749 1.749 0 0 0 2.475 0l5.656-5.656a1.749 1.749 0 0 0 0-2.475l-3.356-3.356 3.356-3.356a1.749 1.749 0 0 0 0-2.475l-5.656-5.656a1.749 1.749 0 0 0 -2.475 0l-3.356 3.356-3.356-3.356a1.749 1.749 0 0 0 -2.475 0l-5.656 5.656a1.749 1.749 0 0 0 0 2.475l3.356 3.356-3.356 3.356a1.749 1.749 0 0 0 0 2.475zm7.068-7.068-3.356-3.357 3.181-3.181 3.357 3.356a1.748 1.748 0 0 0 2.474 0l3.357-3.356 3.181 3.181-3.356 3.357a1.748 1.748 0 0 0 0 2.474l3.356 3.357-3.181 3.181-3.357-3.356a1.748 1.748 0 0 0 -2.474 0l-3.357 3.356-3.181-3.181 3.356-3.357a1.748 1.748 0 0 0 0-2.474z"/><path d="m61.141 85.438h5.718a1.75 1.75 0 0 0 1.75-1.75v-9.219h3.36a1.751 1.751 0 0 0 1.292-2.931l-7.969-8.722a1.809 1.809 0 0 0 -2.584 0l-7.969 8.722a1.751 1.751 0 0 0 1.292 2.931h3.36v9.219a1.75 1.75 0 0 0 1.75 1.75zm2.859-18.846 4 4.377h-1.14a1.75 1.75 0 0 0 -1.75 1.75v9.219h-2.219v-9.219a1.75 1.75 0 0 0 -1.75-1.75h-1.141z"/></g></g></svg>