<svg height="512" viewBox="0 0 128 128" width="512" xmlns="http://www.w3.org/2000/svg"><g><g><path d="m1.75 77.379c0-10.63 47.886-19.247 82.266-19.247s42.234 8.617 42.234 19.247-7.85 19.247-42.234 19.247-82.266-8.617-82.266-19.247z" fill="#5e8569"/><path d="m23.589 65.269-9.277-9h-12.562l12.261 11.9c2.829-1.028 6.056-1.997 9.578-2.9z" fill="#fbb540"/><path d="m23.589 89.489-9.277 9h-12.562l12.261-11.9c2.829 1.028 6.056 1.997 9.578 2.9z" fill="#fbb540"/><path d="m84.016 58.132c1.437 0 2.811.02 4.157.05l-5.7-9.831h-26.934l-7.121 12.273a277.652 277.652 0 0 1 35.598-2.492z" fill="#424242"/><g fill="#85bc94"><path d="m41.981 75.629h-39.791a3.7 3.7 0 0 0 0 3.5h39.791a1.75 1.75 0 1 0 0-3.5z"/><path d="m62.686 75.629h-9.486a1.75 1.75 0 0 0 0 3.5h9.486a1.75 1.75 0 1 0 0-3.5z"/><path d="m83.391 75.629h-9.486a1.75 1.75 0 0 0 0 3.5h9.486a1.75 1.75 0 0 0 0-3.5z"/><path d="m126.17 75.629h-31.561a1.75 1.75 0 0 0 0 3.5h31.561c.051-.577.08-1.16.08-1.75s-.029-1.173-.08-1.75z"/></g><path d="m72.437 48.351h-8v-9.844a9.01 9.01 0 0 1 9-9h10.19v8h-10.19a1 1 0 0 0 -1 1z" fill="#707070"/><g fill="#e6e9ed"><path d="m83.391 77.382a5.609 5.609 0 1 1 5.609 5.609 5.609 5.609 0 0 1 -5.609-5.609z"/><path d="m62.686 77.382a5.61 5.61 0 1 1 5.61 5.609 5.61 5.61 0 0 1 -5.61-5.609z"/><path d="m41.982 77.382a5.61 5.61 0 1 1 5.609 5.609 5.609 5.609 0 0 1 -5.609-5.609z"/></g></g><g fill="#332319"><path d="m103.026 93.681c-1.744.26-3.63.483-5.6.659a1.75 1.75 0 0 0 .153 3.493c.052 0 .105 0 .157-.007 2.044-.182 4-.413 5.814-.684a1.75 1.75 0 1 0 -.52-3.461z"/><path d="m89.192 56.451-5.21-8.978a1.748 1.748 0 0 0 -1.513-.872h-8.282v-7.344h9.44a1.749 1.749 0 0 0 1.75-1.75v-8a1.749 1.749 0 0 0 -1.75-1.75h-10.19a10.666 10.666 0 0 0 -6.287 2.034 1.75 1.75 0 0 0 2.05 2.836 7.183 7.183 0 0 1 4.236-1.37h8.44v4.5h-8.44a2.753 2.753 0 0 0 -2.75 2.75v8.093h-4.5v-8.093a1.75 1.75 0 1 0 -3.5 0v8.093h-7.147a1.751 1.751 0 0 0 -1.514.872l-6.691 11.534a219.405 219.405 0 0 0 -23.286 4.27l-8.517-8.267a1.747 1.747 0 0 0 -1.219-.494h-12.562a1.75 1.75 0 0 0 -1.219 3.006l10.269 9.969c-6.636 2.788-10.8 6.088-10.8 9.889s4.164 7.1 10.8 9.889l-10.269 9.969a1.75 1.75 0 0 0 1.219 3.006h12.562a1.752 1.752 0 0 0 1.219-.494l8.517-8.267c18.366 4.556 43.276 6.894 59.968 6.894a1.75 1.75 0 0 0 0-3.5c-34.217 0-74.258-8.167-79.849-15.747h36.283a7.349 7.349 0 0 0 14.282 0h6.423a7.349 7.349 0 0 0 14.282 0h6.422a7.349 7.349 0 0 0 14.282 0h28.265c-.5 4.87-3.157 8.356-8.269 10.873a1.751 1.751 0 0 0 1.547 3.141c6.941-3.419 10.316-8.576 10.316-15.764 0-13.669-12.025-20.207-38.808-20.928zm-75.592 40.292h-7.535l8.335-8.094c1.78.626 3.684 1.223 5.694 1.79zm38.106-38.3 4.841-8.343h24.914l3.646 6.285c-.36 0-.723 0-1.091 0-1.059 0-2.155.01-3.276.029-.55.008-1.107.022-1.664.035-.337.008-.674.016-1.016.026-8.384.225-17.46.894-26.352 1.967zm-45.641-.428h7.535l6.5 6.3c-2.01.567-3.914 1.164-5.694 1.789zm47.826 3.7a271.989 271.989 0 0 1 30.125-1.832c.841 0 1.648.01 2.456.02.559.008 1.115.018 1.663.03 29.726.648 35.576 8.35 36.277 15.7h-28.273a7.349 7.349 0 0 0 -14.279 0h-6.425a7.349 7.349 0 0 0 -14.279 0h-6.426a7.349 7.349 0 0 0 -14.279 0h-36.284c3.977-5.395 25.38-11.083 49.724-13.919zm-6.3 19.527a3.86 3.86 0 1 1 3.859-3.859 3.864 3.864 0 0 1 -3.859 3.858zm20.705 0a3.86 3.86 0 1 1 3.859-3.859 3.864 3.864 0 0 1 -3.855 3.858zm20.7 0a3.86 3.86 0 1 1 3.859-3.859 3.863 3.863 0 0 1 -3.855 3.858z"/></g></g></svg>