<svg height="512" viewBox="0 0 128 128" width="512" xmlns="http://www.w3.org/2000/svg"><g><g><path d="m6.739 73.381h52.272v34.55h-52.272z" fill="#85bc94"/><path d="m27.812 73.381h10.127v34.55h-10.127z" fill="#707070"/><g fill="#424242"><path d="m37.938 85.593h21.073v10.127h-21.073z"/><path d="m6.739 85.593h21.073v10.127h-21.073z"/></g><path d="m64 64h-62.25v9.381h62.25 62.25v-9.381z" fill="#efa335"/><path d="m64 107.931h-62.25v9.381h62.25 62.25v-9.381z" fill="#efa335"/><path d="m68.989 73.381h52.272v34.55h-52.272z" fill="#85bc94"/><path d="m90.062 73.381h10.127v34.55h-10.127z" fill="#707070"/><g fill="#424242"><path d="m100.188 85.593h21.073v10.127h-21.073z"/><path d="m68.989 85.593h21.073v10.127h-21.073z"/></g><path d="m32.875 10.688h62.25v9.381h-62.25z" fill="#fbb540"/><path d="m32.875 54.619h62.25v9.381h-62.25z" fill="#fbb540"/><path d="m37.864 20.069h52.272v34.55h-52.272z" fill="#85bc94"/><path d="m58.937 20.069h10.127v34.55h-10.127z" fill="#707070"/><g fill="#424242"><path d="m69.063 32.281h21.073v10.127h-21.073z"/><path d="m37.864 32.281h21.073v10.127h-21.073z"/></g></g><g fill="#332319"><path d="m123.011 85.593v-10.462h3.239a1.749 1.749 0 0 0 1.75-1.75v-9.381a1.749 1.749 0 0 0 -1.75-1.75h-29.375v-7.631a1.749 1.749 0 0 0 -1.75-1.75h-3.239v-31.051h3.239a1.749 1.749 0 0 0 1.75-1.75v-9.38a1.749 1.749 0 0 0 -1.75-1.75h-23.375a1.75 1.75 0 0 0 0 3.5h21.625v5.88h-58.75v-5.88h7.125a1.75 1.75 0 0 0 0-3.5h-8.875a1.75 1.75 0 0 0 -1.75 1.75v9.38a1.75 1.75 0 0 0 1.75 1.75h3.239v31.051h-3.239a1.75 1.75 0 0 0 -1.75 1.75v7.631h-29.375a1.75 1.75 0 0 0 -1.75 1.75v9.381a1.75 1.75 0 0 0 1.75 1.75h3.239v31.051h-3.239a1.75 1.75 0 0 0 -1.75 1.75v9.381a1.751 1.751 0 0 0 1.75 1.75h100.062a1.75 1.75 0 0 0 0-3.5h-36.062v-5.881h58.75v5.881h-9.938a1.75 1.75 0 0 0 0 3.5h11.688a1.75 1.75 0 0 0 1.75-1.75v-9.381a1.749 1.749 0 0 0 -1.75-1.75h-3.239zm-21.073 1.75h17.573v6.627h-17.573zm17.573-3.5h-17.573v-8.712h17.573zm4.989-12.212h-58.75v-5.881h58.75zm-60.5 34.551h-3.239v-31.051h6.478v31.051zm-55.511-18.839h17.572v6.627h-17.572zm21.072 8.377v-20.589h6.627v31.051h-6.627zm27.7-20.589v8.712h-17.573v-8.712zm-17.573 12.212h17.573v6.627h-17.573zm0 10.127h17.573v8.712h-17.573zm31.051-10.127h17.572v6.627h-17.572zm17.572-3.5h-17.572v-8.712h17.572zm.075-43.186h-17.573v-6.627h17.573zm-17.573 3.5h17.573v8.712h-17.573zm17.573-13.627h-17.573v-8.712h17.573zm-21.073-8.712v31.051h-6.627v-31.051zm-27.699 12.212h17.572v6.627h-17.572zm17.572-12.212v8.712h-17.572v-8.712zm-17.572 22.339h17.572v8.712h-17.572zm-4.989 12.212h58.75v5.881h-58.75zm-31.125 9.381h58.75v5.881h-58.75zm22.561 9.381v8.712h-17.572v-8.712zm-17.572 22.339h17.572v8.712h-17.572zm-4.989 12.212h58.75v5.881h-58.75zm67.239-12.212h17.572v8.712h-17.572zm21.072 8.712v-31.051h6.627v31.051zm10.127 0v-8.712h17.573v8.712z"/><path d="m54.563 12.438h4.373a1.75 1.75 0 0 0 0-3.5h-4.373a1.75 1.75 0 0 0 0 3.5z"/></g></g></svg>