<svg height="512" viewBox="0 0 128 128" width="512" xmlns="http://www.w3.org/2000/svg"><g><g><path d="m64 1.747a21 21 0 0 1 21 21v82.5a21 21 0 0 1 -21 21 21 21 0 0 1 -21-21v-82.5a21 21 0 0 1 21-21z" fill="#5e8569"/><circle cx="64" cy="22.747" fill="#424242" r="11"/><path d="m73.832 103.508h-6.946v-6.945h-5.792v6.945h-6.946v5.793h6.946v6.946h5.792v-6.946h6.946z" fill="#424242"/><path d="m53 43.123h22v41.747h-22z" fill="#fbb540"/><path d="m43 105.247v-.684h-19.565a21.683 21.683 0 0 0 -19.673 12.562h42.927a20.893 20.893 0 0 1 -3.689-11.878z" fill="#e6e9ed"/><path d="m46.689 117.125h-42.927a21.6 21.6 0 0 0 -2.012 9.122h62.25a20.969 20.969 0 0 1 -17.311-9.122z" fill="#707070"/><path d="m105.25 1.747h-41.25a21 21 0 0 1 21 21h12a3.248 3.248 0 0 0 3.25-3.247 3.249 3.249 0 0 1 3.25-3.25h6.379a3.249 3.249 0 0 1 3.248 3.249 3.248 3.248 0 0 0 3.248 3.248h9.877a21 21 0 0 0 -21.002-21z" fill="#e6e9ed"/></g><g fill="#332319"><path d="m85 70.125a1.75 1.75 0 0 0 -1.75 1.75v5.33a1.75 1.75 0 0 0 3.5 0v-5.33a1.75 1.75 0 0 0 -1.75-1.75z"/><path d="m64 10a12.75 12.75 0 1 0 12.75 12.75 12.765 12.765 0 0 0 -12.75-12.75zm0 22a9.25 9.25 0 1 1 9.25-9.25 9.26 9.26 0 0 1 -9.25 9.25z"/><path d="m61.094 118h5.792a1.75 1.75 0 0 0 1.75-1.75v-5.2h5.2a1.749 1.749 0 0 0 1.75-1.75v-5.792a1.749 1.749 0 0 0 -1.75-1.75h-5.2v-5.2a1.75 1.75 0 0 0 -1.75-1.75h-5.792a1.749 1.749 0 0 0 -1.75 1.75v5.2h-5.2a1.75 1.75 0 0 0 -1.75 1.75v5.792a1.75 1.75 0 0 0 1.75 1.75h5.2v5.2a1.749 1.749 0 0 0 1.75 1.75zm-5.2-10.446v-2.292h5.2a1.75 1.75 0 0 0 1.75-1.75v-5.2h2.292v5.2a1.75 1.75 0 0 0 1.75 1.75h5.2v2.292h-5.2a1.75 1.75 0 0 0 -1.75 1.75v5.2h-2.292v-5.2a1.75 1.75 0 0 0 -1.75-1.75z"/><path d="m76.75 84.871v-41.748a1.75 1.75 0 0 0 -1.75-1.75h-22a1.75 1.75 0 0 0 -1.75 1.75v41.748a1.75 1.75 0 0 0 1.75 1.75h22a1.75 1.75 0 0 0 1.75-1.75zm-3.5-1.75h-18.5v-38.248h18.5z"/><path d="m105.25 0h-41.25a22.776 22.776 0 0 0 -22.75 22.75v80.066h-17.815a1.75 1.75 0 0 0 0 3.5h17.842a22.572 22.572 0 0 0 2.36 9.062h-36.909a20.073 20.073 0 0 1 5.378-5.53 1.75 1.75 0 1 0 -1.993-2.877 23.534 23.534 0 0 0 -7.938 9.42 23.232 23.232 0 0 0 -2.175 9.856 1.75 1.75 0 0 0 1.75 1.753h62.25a22.776 22.776 0 0 0 22.75-22.75v-14a1.75 1.75 0 0 0 -3.5 0v14a19.25 19.25 0 1 1 -38.5 0v-82.5a19.25 19.25 0 0 1 38.5 0v35.08a1.75 1.75 0 0 0 3.5 0v-33.33h10.25a5 5 0 0 0 5-5 1.5 1.5 0 0 1 1.5-1.5h6.378a1.5 1.5 0 0 1 1.5 1.5 5 5 0 0 0 5 5h9.877a1.75 1.75 0 0 0 1.75-1.75 22.776 22.776 0 0 0 -22.755-22.75zm-53.35 124.5h-48.325a19.668 19.668 0 0 1 1.337-5.622h40.888a22.938 22.938 0 0 0 6.1 5.622zm64.473-103.5a1.5 1.5 0 0 1 -1.5-1.5 5 5 0 0 0 -5-5h-6.373a5 5 0 0 0 -5 5 1.5 1.5 0 0 1 -1.5 1.5h-10.324a22.763 22.763 0 0 0 -10.576-17.5h29.15a19.275 19.275 0 0 1 19.171 17.5z"/></g></g></svg>