<svg id="Layer_1" enable-background="new 0 0 128 128" viewBox="0 0 128 128" xmlns="http://www.w3.org/2000/svg"><g><g><path d="m53.2 97.7-22.9-22.9.3-8 4.1-4.1 30.6 30.6-4.1 4.1z" fill="#424242"/><path d="m11.6 103.5 12.9 12.9c2.1 2.1 2.1 5.6 0 7.7l-.6.6c-2.1 2.1-5.6 2.1-7.7 0l-12.9-12.9c-2.1-2.1-2.1-5.6 0-7.7l.6-.6c2.2-2.1 5.6-2.1 7.7 0z" fill="#424242"/><path d="m13.2 90.3h33.5v15.6h-33.5z" fill="#5e8569" transform="matrix(.707 -.707 .707 .707 -60.607 49.876)"/><path d="m58.4 86.4-16.8-16.8 67.8-67.8h16.8v16.8z" fill="#e6e9ed"/></g><path d="m36.6 102.4c.7.7.7 1.8 0 2.5l-1.2 1.2c-.7.7-1.8.7-2.5 0s-.7-1.8 0-2.5l1.2-1.2c.7-.7 1.8-.7 2.5 0zm90.9-82.6-66.6 66.6 5.6 5.6c.7.7.7 1.8 0 2.5l-4.1 4.1c-.3.3-.7.5-1.2.5l-8 .3c-.5 0-.9-.2-1.2-.5l-4.7-4.7-5.3 5.3c-.7.7-1.8.7-2.5 0s-.7-1.8 0-2.5l5.3-5.3-8.5-8.5-21.3 21.2 8.5 8.5 4.1-4.1c.7-.7 1.8-.7 2.5 0s.7 1.8 0 2.5l-4.1 4.1c2.5 2.8 2.4 7.2-.3 9.9l-.6.6c-2.8 2.8-7.4 2.8-10.2 0l-12.8-12.9c-2.8-2.8-2.8-7.4 0-10.2l.6-.6c2.7-2.7 7-2.8 9.9-.3l21.2-21.2-4.8-4.7c-.3-.3-.5-.8-.5-1.3l.3-8c0-.4.2-.9.5-1.2l4.1-4.1c.7-.7 1.8-.7 2.5 0l5.6 5.6 28.2-28c.7-.7 1.8-.7 2.5 0s.7 1.8 0 2.5l-28.1 28.1 6 6 59.4-59.4-1.3-10.6-27.6 27.4c-.7.7-1.8.7-2.5 0s-.7-1.8 0-2.5l30-30c.2-.2.6-.5 1.2-.5h16.8c1 0 1.7.8 1.7 1.7v16.8c.2.7-.2 1.2-.3 1.3zm-103.1 100.4c0-1-.4-1.9-1.1-2.6l-11.9-11.9-.9-.9c-1.4-1.4-3.8-1.4-5.2 0l-.6.6c-1.4 1.4-1.4 3.8 0 5.2l12.9 12.9c1.5 1.4 3.8 1.4 5.2 0l.6-.6c.6-.8 1-1.7 1-2.7zm100.1-116.7h-13.1l1.5 11.6 11.6 1.5zm-72 74.5 6 6 64-64-10.6-1.3zm10.3 15.3-5.6-5.6-4.6-4.7-17.9-17.8-2.4 2.4-.3 6.5 21.9 21.9 6.5-.3z" fill="#332319"/></g></svg>