<svg height="512" viewBox="0 0 128 128" width="512" xmlns="http://www.w3.org/2000/svg"><g><g><path d="m111.738 108.8h-95.476a7.417 7.417 0 0 1 -6.582-4l-7.093-13.632a7.419 7.419 0 0 1 -.837-3.424 7.419 7.419 0 0 1 7.42-7.419h109.66a7.419 7.419 0 0 1 7.42 7.419 7.419 7.419 0 0 1 -.837 3.424l-7.093 13.632a7.417 7.417 0 0 1 -6.582 4z" fill="#424242"/><g fill="#707070"><circle cx="64" cy="94.563" r="5.094"/><path d="m78.187 94.563a5.094 5.094 0 1 1 5.094 5.093 5.093 5.093 0 0 1 -5.094-5.093z"/><path d="m97.467 94.563a5.094 5.094 0 1 1 5.094 5.093 5.094 5.094 0 0 1 -5.094-5.093z"/><path d="m49.813 94.563a5.094 5.094 0 1 0 -5.094 5.093 5.093 5.093 0 0 0 5.094-5.093z"/><path d="m30.532 94.563a5.094 5.094 0 1 0 -5.093 5.093 5.093 5.093 0 0 0 5.093-5.093z"/></g><path d="m12.25 68.624h103.5v11.7h-103.5z" fill="#5e8569"/><path d="m70.437 68.624h-58.187v-13.3a10 10 0 0 1 10-10h31.591a10 10 0 0 1 9.189 6.053z" fill="#e6e9ed"/><path d="m72.607 30.273a4 4 0 0 0 -3.889-3.06h-34.186a4 4 0 0 0 -4 4v14.112h23.309a10 10 0 0 1 9.189 6.053l7.407 17.246h11.438z" fill="#85bc94"/><path d="m39.512 19.2h23.375v8.013h-23.375z" fill="#5e8569"/><path d="m118.531 36.358h7.719v16.434h-7.719z" fill="#424242"/><path d="m75.102 40.597 1.922 7.955h41.507v-7.955z" fill="#707070"/></g><g fill="#332319"><path d="m48.875 107.05h-5.25a1.75 1.75 0 0 0 0 3.5h5.25a1.75 1.75 0 1 0 0-3.5z"/><path d="m64 101.406a6.844 6.844 0 1 0 -6.844-6.843 6.852 6.852 0 0 0 6.844 6.843zm0-10.187a3.344 3.344 0 1 1 -3.344 3.344 3.348 3.348 0 0 1 3.344-3.344z"/><path d="m90.124 94.563a6.844 6.844 0 1 0 -6.844 6.843 6.851 6.851 0 0 0 6.844-6.843zm-10.188 0a3.344 3.344 0 1 1 3.344 3.343 3.348 3.348 0 0 1 -3.344-3.343z"/><path d="m109.405 94.563a6.844 6.844 0 1 0 -6.844 6.843 6.851 6.851 0 0 0 6.844-6.843zm-10.187 0a3.344 3.344 0 1 1 3.343 3.343 3.347 3.347 0 0 1 -3.343-3.343z"/><path d="m44.72 87.719a6.844 6.844 0 1 0 6.843 6.844 6.851 6.851 0 0 0 -6.843-6.844zm0 10.187a3.344 3.344 0 1 1 3.343-3.343 3.347 3.347 0 0 1 -3.343 3.343z"/><path d="m18.6 94.563a6.844 6.844 0 1 0 6.843-6.844 6.851 6.851 0 0 0 -6.843 6.844zm10.187 0a3.344 3.344 0 1 1 -3.344-3.344 3.347 3.347 0 0 1 3.339 3.344z"/><path d="m118.531 54.541h7.719a1.75 1.75 0 0 0 1.75-1.75v-16.434a1.75 1.75 0 0 0 -1.75-1.75h-7.719a1.75 1.75 0 0 0 -1.75 1.75v2.49h-40.3l-2.171-8.985a5.734 5.734 0 0 0 -5.589-4.4h-4.083v-6.262a1.75 1.75 0 0 0 -1.75-1.75h-23.375a1.749 1.749 0 0 0 -1.75 1.75v6.262h-3.231a5.757 5.757 0 0 0 -5.75 5.75v12.363h-6.532a11.763 11.763 0 0 0 -11.75 11.75v23.25h-1.33a9.171 9.171 0 0 0 -8.136 13.4l7.093 13.636a9.141 9.141 0 0 0 8.135 4.938h15.832a1.75 1.75 0 1 0 0-3.5h-15.832a5.653 5.653 0 0 1 -5.03-3.049l-7.092-13.639a5.669 5.669 0 0 1 5.03-8.286h109.66a5.668 5.668 0 0 1 5.03 8.285l-7.092 13.64a5.653 5.653 0 0 1 -5.03 3.053h-51.332a1.75 1.75 0 1 0 0 3.5h51.332a9.141 9.141 0 0 0 8.135-4.938l7.093-13.637a9.17 9.17 0 0 0 -8.136-13.4h-1.33v-9.954a1.75 1.75 0 0 0 -1.75-1.75h-32.5l-4.003-16.574h37.534v2.489a1.75 1.75 0 0 0 1.75 1.752zm1.75-16.434h4.219v12.934h-4.219zm-79.018-17.157h19.875v4.512h-19.875zm72.737 57.625h-100v-8.2h100zm-42.409-11.7-5.607-13.053a1.75 1.75 0 1 0 -3.216 1.378l5.013 11.67h-53.781v-11.545a8.259 8.259 0 0 1 8.25-8.25h31.592a1.75 1.75 0 0 0 0-3.5h-21.56v-12.363a2.253 2.253 0 0 1 2.25-2.25h34.187a2.242 2.242 0 0 1 2.186 1.722l8.746 36.19zm6.809-20.075-.246-1.022-.83-3.433h39.456v4.455z"/></g></g></svg>