<svg height="512" viewBox="0 0 128 128" width="512" xmlns="http://www.w3.org/2000/svg"><g><g><path d="m126.25 116.242h-124.5l10.008-56.497h104.484z" fill="#5e8569"/><path d="m116.242 59.745h-104.484l52.242-47.987z" fill="#85bc94"/><path d="m71.319 80.935-7.319-2.372-7.319 2.372a11.738 11.738 0 0 0 -8.118 11.165v24.141a33.854 33.854 0 0 0 15.437-28.405v28.406h15.438v-24.142a11.739 11.739 0 0 0 -8.119-11.165z" fill="#fbb540"/><path d="m48.563 116.242h15.437v-28.406a33.854 33.854 0 0 1 -15.437 28.406z" fill="#424242"/><path d="m107.685 83.125h-16.872a3.312 3.312 0 0 1 -3.313-3.312 3.313 3.313 0 0 1 3.313-3.313h16.872a3.313 3.313 0 0 1 3.315 3.313 3.313 3.313 0 0 1 -3.315 3.312z" fill="#fbb540"/><path d="m91.029 83.125h16.44v16.373h-16.44z" fill="#424242"/><path d="m20.315 83.125h16.873a3.312 3.312 0 0 0 3.312-3.312 3.312 3.312 0 0 0 -3.312-3.313h-16.873a3.313 3.313 0 0 0 -3.315 3.313 3.312 3.312 0 0 0 3.315 3.312z" fill="#fbb540"/><path d="m20.531 83.125h16.44v16.373h-16.44z" fill="#424242" transform="matrix(-1 0 0 -1 57.502 182.623)"/><path d="m48.563 62.919a3.175 3.175 0 0 0 3.174 3.175h5.4a3.175 3.175 0 0 1 3.175 3.174v.308a3.174 3.174 0 0 0 3.174 3.174h15.214a3.174 3.174 0 0 0 3.174-3.174v-.154a3.174 3.174 0 0 1 3.174-3.174h3.308a3.175 3.175 0 0 0 3.174-3.175v-.154a3.174 3.174 0 0 0 -3.174-3.174h-36.619a3.174 3.174 0 0 0 -3.174 3.174z" fill="#85bc94"/><path d="m88.531 116.242v-2.617a2.812 2.812 0 0 1 2.813-2.812h9.562a2.814 2.814 0 0 0 2.813-2.813 2.812 2.812 0 0 1 2.812-2.812h5.438a2.812 2.812 0 0 1 2.812 2.812v8.242z" fill="#85bc94"/><path d="m23.75 109.063h-8.312a2.188 2.188 0 0 1 -2.188-2.188 2.187 2.187 0 0 0 -2.187-2.187h-7.263l-2.045 11.525c8.932 0 24.183.029 24.183.029v-4.992a2.188 2.188 0 0 0 -2.188-2.187z" fill="#85bc94"/><g fill="#5e8569"><path d="m41.563 48.375a2.437 2.437 0 0 0 2.437-2.437 2.437 2.437 0 0 1 2.438-2.438h8.875a2.437 2.437 0 0 0 2.437-2.437v-3.375a2.437 2.437 0 0 0 -2.437-2.438h-1.25a2.437 2.437 0 0 1 -2.438-2.437v-1.5a2.437 2.437 0 0 0 -2.437-2.438h-3.823l-21.229 19.5z"/><path d="m66 27.063h1.813a2.75 2.75 0 0 1 2.75 2.75 2.75 2.75 0 0 0 2.75 2.75h13.336l-13.132-12.063h-7.517a2.75 2.75 0 0 0 -2.75 2.75v1.063a2.75 2.75 0 0 0 2.75 2.75z"/><path d="m68.219 41.75h18.375a2.156 2.156 0 0 1 2.156 2.156v1.564a2.156 2.156 0 0 1 -2.156 2.156h-.875a2.156 2.156 0 0 0 -2.156 2.156 2.157 2.157 0 0 1 -2.157 2.156h-6a2.156 2.156 0 0 1 -2.156-2.156v-.282a2.156 2.156 0 0 0 -2.156-2.156h-2.875a2.157 2.157 0 0 1 -2.156-2.157v-1.281a2.156 2.156 0 0 1 2.156-2.156z"/></g></g><g fill="#332319"><path d="m127.973 115.937-10.008-56.5a1.767 1.767 0 0 0 -.539-.983l-6.392-5.872a1.75 1.75 0 1 0 -2.368 2.577l3.084 2.841h-95.5l8.568-7.87h16.745a4.191 4.191 0 0 0 4.187-4.187.689.689 0 0 1 .688-.688h8.875a4.191 4.191 0 0 0 4.187-4.192v-3.375a4.192 4.192 0 0 0 -4.187-4.188h-1.25a.689.689 0 0 1 -.688-.687v-1.5a4.181 4.181 0 0 0 -3.584-4.127l14.209-13.052 5.025 4.616h-3.025a4.505 4.505 0 0 0 -4.5 4.5v1.063a4.505 4.505 0 0 0 4.5 4.5h1.813a1 1 0 0 1 1 1 4.5 4.5 0 0 0 4.5 4.5h12.654l7.2 6.618a1.75 1.75 0 0 0 2.369-2.577l-7.707-7.079-13.129-12.064-9.515-8.741a1.75 1.75 0 0 0 -2.368 0l-25.1 23.056-14.765 13.56-12.378 11.371a1.916 1.916 0 0 0 -.539.983l-10.008 56.497a1.749 1.749 0 0 0 1.723 2.055h124.5a1.749 1.749 0 0 0 1.723-2.055zm-54.66-85.124a1 1 0 0 1 -1-1 4.5 4.5 0 0 0 -4.5-4.5h-1.813a1 1 0 0 1 -1-1v-1.063a1 1 0 0 1 1-1h6.835l9.322 8.563zm-24.125-.188a.689.689 0 0 1 .687.688v1.5a4.192 4.192 0 0 0 4.188 4.187h1.25a.689.689 0 0 1 .687.688v3.375a.689.689 0 0 1 -.687.687h-8.875a4.192 4.192 0 0 0 -4.188 4.188.689.689 0 0 1 -.687.687h-12.935l6.93-6.365 10.489-9.635zm39.169 30.875a1.426 1.426 0 0 1 1.424 1.424v.154a1.427 1.427 0 0 1 -1.424 1.422h-3.308a4.93 4.93 0 0 0 -4.924 4.924v.154a1.426 1.426 0 0 1 -1.425 1.422h-15.213a1.426 1.426 0 0 1 -1.424-1.424v-.308a4.93 4.93 0 0 0 -4.925-4.924h-5.4a1.425 1.425 0 0 1 0-2.849zm-64.169 52.989c-3.865-.008-13.326-.026-20.345-.027l1.192-6.731.229-1.293h5.8a.437.437 0 0 1 .437.437 3.943 3.943 0 0 0 3.938 3.938h8.311a.438.438 0 0 1 .438.437zm29.544 0a35.411 35.411 0 0 0 8.518-11.245v11.245zm12.018 0v-33.519l5.029 1.63a9.965 9.965 0 0 1 6.909 9.5v22.39zm24.531 0v-.867a1.064 1.064 0 0 1 1.063-1.062h9.562a4.568 4.568 0 0 0 4.563-4.56 1.063 1.063 0 0 1 1.062-1.062h5.438a1.063 1.063 0 0 1 1.062 1.062v6.492zm26.25 0v-6.489a4.567 4.567 0 0 0 -4.562-4.562h-5.438a4.567 4.567 0 0 0 -4.562 4.562 1.064 1.064 0 0 1 -1.063 1.063h-9.562a4.567 4.567 0 0 0 -4.563 4.562v.867h-5.593v-22.392a13.453 13.453 0 0 0 -9.33-12.832l-7.318-2.368c-.018-.006-.037 0-.054-.009a1.747 1.747 0 0 0 -.486-.078 1.747 1.747 0 0 0 -.482.076c-.017.006-.036 0-.054.009l-7.322 2.372a13.4 13.4 0 0 0 -4.534 2.517 1.75 1.75 0 1 0 2.256 2.675 9.96 9.96 0 0 1 3.357-1.862l5.029-1.63v6.866a31.961 31.961 0 0 1 -11.937 24.964v-20.7a1.75 1.75 0 0 0 -3.5 0v22.39h-19.125v-3.24a3.942 3.942 0 0 0 -3.938-3.937h-8.312a.439.439 0 0 1 -.438-.438 3.941 3.941 0 0 0 -3.937-3.937h-5.179l7.341-41.438h33.822a4.87 4.87 0 0 0 -.234 1.424 4.929 4.929 0 0 0 4.924 4.925h5.4a1.427 1.427 0 0 1 1.425 1.424v.308a4.929 4.929 0 0 0 4.925 4.919h15.213a4.93 4.93 0 0 0 4.924-4.924v-.154a1.426 1.426 0 0 1 1.425-1.422h3.308a4.93 4.93 0 0 0 4.924-4.925v-.154a4.838 4.838 0 0 0 -.235-1.424h21.729l9.388 53z"/><path d="m101.66 48.727a1.75 1.75 0 0 0 2.367-2.579l-1.48-1.359a1.75 1.75 0 1 0 -2.367 2.578z"/><path d="m107.685 74.75h-16.872a5.048 5.048 0 0 0 -1.534 9.862v14.888a1.751 1.751 0 0 0 1.75 1.75h16.44a1.751 1.751 0 0 0 1.75-1.75v-14.888a5.048 5.048 0 0 0 -1.534-9.862zm-1.966 23h-12.94v-12.875h12.94zm1.966-16.373h-16.872a1.563 1.563 0 1 1 0-3.125h16.872a1.563 1.563 0 1 1 0 3.125z"/><path d="m37.188 74.75h-16.873a5.048 5.048 0 0 0 -1.534 9.862v14.888a1.751 1.751 0 0 0 1.75 1.75h16.44a1.75 1.75 0 0 0 1.75-1.75v-14.888a5.048 5.048 0 0 0 -1.533-9.862zm-1.967 23h-12.94v-12.875h12.94zm1.967-16.373h-16.873a1.563 1.563 0 1 1 0-3.125h16.873a1.563 1.563 0 0 1 0 3.125z"/><path d="m75.406 53.689h6a3.912 3.912 0 0 0 3.907-3.907.406.406 0 0 1 .406-.406h.875a3.911 3.911 0 0 0 3.906-3.906v-1.564a3.91 3.91 0 0 0 -3.906-3.906h-18.375a3.91 3.91 0 0 0 -3.906 3.906v1.283a3.911 3.911 0 0 0 3.906 3.911h2.875a.406.406 0 0 1 .406.406v.281a3.911 3.911 0 0 0 3.906 3.902zm-4.312-8.089h-2.875a.406.406 0 0 1 -.406-.406v-1.288a.406.406 0 0 1 .406-.406h18.375a.406.406 0 0 1 .406.406v1.564a.406.406 0 0 1 -.406.406h-.875a3.91 3.91 0 0 0 -3.906 3.906.408.408 0 0 1 -.407.407h-6a.407.407 0 0 1 -.406-.407v-.282a3.91 3.91 0 0 0 -3.906-3.9z"/></g></g></svg>