<svg height="512" viewBox="0 0 128 128" width="512" xmlns="http://www.w3.org/2000/svg"><g><g><path d="m82.217 59.351-3-11.757h22.483a14.844 14.844 0 0 0 -12.059-6.187h-18.633v42.375h36.258v-24.431z" fill="#85bc94"/><path d="m1.75 73.907h69.258v9.875h-69.258z" fill="#fbb540"/><path d="m90.821 83.782a11.125 11.125 0 1 0 20.608 0z" fill="#424242"/><path d="m104.065 83.782h-5.88a5.125 5.125 0 1 0 5.88 0z" fill="#707070"/><path d="m16.571 83.782a11.125 11.125 0 1 0 20.608 0z" fill="#424242"/><path d="m29.815 83.782h-5.88a5.125 5.125 0 1 0 5.88 0z" fill="#707070"/><path d="m82.217 59.351h25.049l-5.566-11.757h-22.485z" fill="#e6e9ed"/><path d="m82.217 59.351-.447-1.751h-10.762v3.5h9.459v14.682a1.74 1.74 0 0 0 .106.6l2.69 7.4h3.606a1.748 1.748 0 0 0 -.1-.6l-2.8-7.711v-16.12z" fill="#e6e9ed"/><path d="m122.25 59.351h-14.984v24.431h14.984a4 4 0 0 0 4-4v-16.431a4 4 0 0 0 -4-4z" fill="#5e8569"/><path d="m90.969 68.032h-3.094a1.75 1.75 0 0 1 0-3.5h3.094a1.75 1.75 0 0 1 0 3.5z" fill="#424242"/><path d="m24.827 28.907a35.225 35.225 0 0 1 -23.074 0v45h23.084v-45z" fill="#5e8569"/><path d="m70.988 28.914a35.22 35.22 0 0 1 -23.057 0v44.993h23.077v-45z" fill="#5e8569"/><g fill="#85bc94"><path d="m47.911 28.907h-.006a35.22 35.22 0 0 1 -23.068 0v45h23.094v-44.993z"/><path d="m117.5 66.282h8.75v7h-8.75z"/></g></g><g fill="#332319"><path d="m1.75 58.282a1.75 1.75 0 0 0 1.75-1.75v-3.907a1.75 1.75 0 0 0 -3.5 0v3.907a1.75 1.75 0 0 0 1.75 1.75z"/><path d="m122.25 57.6h-13.876l-5.092-10.755c-.022-.046-.058-.082-.083-.125s-.044-.1-.077-.147a16.633 16.633 0 0 0 -13.481-6.917h-16.883v-10.749a1.761 1.761 0 0 0 -2.342-1.646 33.636 33.636 0 0 1 -21.926 0c-.02-.007-.041 0-.061-.011a1.728 1.728 0 0 0 -.362-.067 1.688 1.688 0 0 0 -.2-.007 1.709 1.709 0 0 0 -.323.04c-.037.008-.076 0-.112.014s-.069.02-.1.031a33.7 33.7 0 0 1 -22-.025c-.015 0-.03 0-.045-.006a1.744 1.744 0 0 0 -.448-.065h-.017c-.042 0-.083.009-.125.012a1.749 1.749 0 0 0 -.342.062c-.033.01-.069.007-.1.019a33.622 33.622 0 0 1 -21.928 0 1.749 1.749 0 0 0 -2.327 1.649v15.718a1.75 1.75 0 0 0 3.5 0v-13.345a37.153 37.153 0 0 0 19.587-.025v40.9h-19.587v-7.623a1.75 1.75 0 0 0 -3.5 0v19.25a1.75 1.75 0 0 0 1.75 1.75h12.484a12.875 12.875 0 1 0 25.282 0h48.968a12.875 12.875 0 1 0 25.282 0h4.953a1.75 1.75 0 0 0 0-3.5h-9.7v-20.932h13.231a2.252 2.252 0 0 1 2.25 2.25v1.181h-7a1.75 1.75 0 0 0 -1.75 1.75v7a1.75 1.75 0 0 0 1.75 1.75h7v4.75a1.75 1.75 0 0 0 3.5 0v-16.43a5.757 5.757 0 0 0 -5.75-5.751zm-38.673 0-2.109-8.256h19.124l3.908 8.256zm6.064-14.444a13.117 13.117 0 0 1 7.943 2.688h-18.369a1.751 1.751 0 0 0 -1.7 2.182l2.449 9.574h-7.206v-14.443zm-20.383-11.877v40.878h-19.577v-40.893a37.167 37.167 0 0 0 19.577.015zm-42.671 0a37.138 37.138 0 0 0 19.594-.005v40.883h-19.594zm-23.087 44.378h65.758v6.375h-65.758zm26.75 12.311a3.375 3.375 0 1 1 -5.7-2.436h4.65a3.371 3.371 0 0 1 1.05 2.436zm6 0a9.375 9.375 0 0 1 -18.75 0 9.261 9.261 0 0 1 .324-2.436h2.628a6.875 6.875 0 1 0 12.846 0h2.628a9.261 9.261 0 0 1 .324 2.436zm36.508-14.061v-12.807h7.709v14.682a1.74 1.74 0 0 0 .106.6l2.054 5.652h-9.869zm37.418 11.625a9.261 9.261 0 0 1 .324 2.436 9.375 9.375 0 1 1 -18.75 0 9.261 9.261 0 0 1 .324-2.436h2.626a6.875 6.875 0 1 0 12.846 0zm-5.676 2.436a3.375 3.375 0 1 1 -5.7-2.436h4.644a3.371 3.371 0 0 1 1.056 2.436zm-.435-5.936h-17.714l-2.384-6.558v-14.374h21.549v20.932zm15.185-10.5v-3.5h5.25v3.5z"/><path d="m90.969 64.532h-3.094a1.75 1.75 0 0 0 0 3.5h3.094a1.75 1.75 0 0 0 0-3.5z"/></g></g></svg>