<svg height="512" viewBox="0 0 128 128" width="512" xmlns="http://www.w3.org/2000/svg"><g><g><path d="m35.219 25.625h50a5 5 0 0 1 5 5v87.622a8 8 0 0 1 -8 8h-44a8 8 0 0 1 -8-8v-87.622a5 5 0 0 1 5-5z" fill="#5e8569"/><path d="m38.219 33.625h44v26.372h-44z" fill="#e6e9ed"/><g fill="#85bc94"><path d="m55.22 89.001h9.998v9.998h-9.998z"/><path d="m38.219 89.001h11.001v9.998h-11.001z"/><path d="m55.22 67.997h9.998v15.004h-9.998z"/><path d="m71.218 67.997h11.001v15.004h-11.001z"/><path d="m55.22 104.999h9.998v13.248h-9.998z"/><path d="m71.218 104.999h11.001v13.248h-11.001z"/><path d="m38.219 104.999h11.001v13.248h-11.001z"/><path d="m38.219 67.997h11.001v15.004h-11.001z"/><path d="m71.218 89.001h11.001v9.998h-11.001z"/></g><path d="m41.594 17.375h13.25a2 2 0 0 1 2 2v6.25a0 0 0 0 1 0 0h-17.25a0 0 0 0 1 0 0v-6.25a2 2 0 0 1 2-2z" fill="#424242"/><path d="m66.219 16.504h12v9.121h-12z" fill="#424242"/><path d="m75.594 16.5h-6.75v-11.378a3.375 3.375 0 0 1 3.375-3.375 3.375 3.375 0 0 1 3.375 3.375z" fill="#efa335"/><path d="m90.219 40.625h5.562a2 2 0 0 1 2 2v31.311a2 2 0 0 1 -2 2h-5.562a0 0 0 0 1 0 0v-35.311a0 0 0 0 1 0 0z" fill="#424242"/></g><g fill="#332319"><path d="m30.219 96.623a1.75 1.75 0 0 0 1.75-1.75v-5.873a1.75 1.75 0 0 0 -3.5 0v5.872a1.749 1.749 0 0 0 1.75 1.751z"/><path d="m83.969 33.625a1.75 1.75 0 0 0 -1.75-1.75h-44a1.749 1.749 0 0 0 -1.75 1.75v26.375a1.749 1.749 0 0 0 1.75 1.75h44a1.75 1.75 0 0 0 1.75-1.75zm-3.5 24.622h-40.5v-22.872h40.5z"/><path d="m66.968 89a1.75 1.75 0 0 0 -1.75-1.75h-10a1.749 1.749 0 0 0 -1.748 1.75v10a1.749 1.749 0 0 0 1.75 1.75h10a1.75 1.75 0 0 0 1.748-1.75zm-3.5 8.248h-6.5v-6.5h6.5z"/><path d="m36.469 99a1.749 1.749 0 0 0 1.75 1.75h11a1.75 1.75 0 0 0 1.751-1.75v-10a1.75 1.75 0 0 0 -1.75-1.75h-11a1.749 1.749 0 0 0 -1.751 1.75zm3.5-8.248h7.5v6.5h-7.5z"/><path d="m66.968 68a1.75 1.75 0 0 0 -1.75-1.75h-10a1.749 1.749 0 0 0 -1.748 1.75v15a1.749 1.749 0 0 0 1.75 1.75h10a1.75 1.75 0 0 0 1.748-1.75zm-3.5 13.254h-6.5v-11.5h6.5z"/><path d="m83.969 68a1.75 1.75 0 0 0 -1.75-1.75h-11a1.749 1.749 0 0 0 -1.751 1.75v15a1.749 1.749 0 0 0 1.75 1.75h11a1.75 1.75 0 0 0 1.751-1.75zm-3.5 13.254h-7.5v-11.5h7.5z"/><path d="m65.218 103.249h-10a1.749 1.749 0 0 0 -1.748 1.751v13.248a1.749 1.749 0 0 0 1.75 1.752h10a1.75 1.75 0 0 0 1.75-1.75v-13.25a1.75 1.75 0 0 0 -1.752-1.751zm-1.75 13.251h-6.5v-9.748h6.5z"/><path d="m82.219 103.249h-11a1.749 1.749 0 0 0 -1.75 1.75v13.248a1.749 1.749 0 0 0 1.75 1.75h11a1.75 1.75 0 0 0 1.75-1.75v-13.247a1.75 1.75 0 0 0 -1.75-1.751zm-1.75 13.251h-7.5v-9.748h7.5z"/><path d="m36.469 118.247a1.749 1.749 0 0 0 1.75 1.75h11a1.75 1.75 0 0 0 1.75-1.75v-13.247a1.75 1.75 0 0 0 -1.75-1.75h-11a1.749 1.749 0 0 0 -1.75 1.75zm3.5-11.5h7.5v9.753h-7.5z"/><path d="m36.469 83a1.749 1.749 0 0 0 1.75 1.75h11a1.75 1.75 0 0 0 1.751-1.75v-15a1.75 1.75 0 0 0 -1.75-1.75h-11a1.749 1.749 0 0 0 -1.751 1.75zm3.5-13.254h7.5v11.5h-7.5z"/><path d="m83.969 89a1.75 1.75 0 0 0 -1.75-1.75h-11a1.749 1.749 0 0 0 -1.751 1.75v10a1.749 1.749 0 0 0 1.75 1.75h11a1.75 1.75 0 0 0 1.751-1.75zm-3.5 8.248h-7.5v-6.5h7.5z"/><path d="m97.781 51.875a1.75 1.75 0 0 0 -1.75 1.75v20.31a.25.25 0 0 1 -.25.25h-3.812v-31.81h3.812a1.75 1.75 0 0 0 0-3.5h-3.812v-8.25a6.758 6.758 0 0 0 -6.75-6.75h-5.25v-7.375a1.75 1.75 0 0 0 -1.75-1.75h-.875v-9.628a5.125 5.125 0 0 0 -10.25 0v9.632h-.875a1.749 1.749 0 0 0 -1.75 1.75v7.371h-5.875v-4.5a3.755 3.755 0 0 0 -3.75-3.75h-13.25a3.755 3.755 0 0 0 -3.75 3.75v4.5h-2.625a6.758 6.758 0 0 0 -6.75 6.75v48.25a1.75 1.75 0 0 0 3.5 0v-48.25a3.254 3.254 0 0 1 3.25-3.25h50a3.254 3.254 0 0 1 3.25 3.25v87.622a6.257 6.257 0 0 1 -6.25 6.25h-44a6.257 6.257 0 0 1 -6.25-6.25v-13.247a1.75 1.75 0 0 0 -3.5 0v13.248a9.761 9.761 0 0 0 9.75 9.75h44a9.761 9.761 0 0 0 9.75-9.75v-40.563h3.812a3.754 3.754 0 0 0 3.75-3.75v-20.31a1.749 1.749 0 0 0 -1.75-1.75zm-27.187-46.753a1.625 1.625 0 0 1 3.25 0v9.632h-3.25zm-29.25 18.753v-4.5a.25.25 0 0 1 .25-.25h13.25a.251.251 0 0 1 .25.25v4.5zm26.625 0v-5.621h8.5v5.621z"/></g></g></svg>