<svg id="Layer_1" enable-background="new 0 0 128 128" viewBox="0 0 128 128" xmlns="http://www.w3.org/2000/svg"><g><g><path d="m72.7 74.7c-1.8-.4-3.2-2-3.2-3.9v-18.5c.1-2.2 1.8-3.9 4-4h27.9c.2 0 .4 0 .6.1v-9.9c0-13.6-11-24.6-24.6-24.6h-26.8c-13.6-.1-24.6 10.9-24.6 24.5v9.9c.2 0 .4 0 .6-.1h27.9c2.2 0 4 1.8 4 4v18.5c0 2.2-1.8 4-4 4h-25.7l4.3 15.3c2.4 8.7 10.4 14.7 19.4 14.7h23c9 0 17-6 19.4-14.7l4.3-15.3h-25.7c-.2.1-.5.1-.8 0z" fill="#5e8569"/><path d="m26.6 48.3h27.9c2.2 0 4 1.8 4 4v18.5c0 2.2-1.8 4-4 4h-27.9c-2.8 0-5-2.2-5-5v-16.5c0-2.8 2.2-5 5-5z" fill="#424242"/><path d="m28.3 55h23.5v13.1h-23.5z" fill="#707070"/><path d="m101.4 74.8h-27.9c-2.2 0-4-1.8-4-4v-18.5c0-2.2 1.8-4 4-4h27.9c2.8 0 5 2.2 5 5v16.5c0 2.8-2.2 5-5 5z" fill="#424242"/><path d="m76.2 55h23.5v13.1h-23.5z" fill="#707070"/><circle cx="64" cy="89.8" fill="#424242" r="15"/><path d="m64 98.1c-4.6 0-8.3-3.7-8.3-8.3s3.7-8.3 8.3-8.3 8.3 3.7 8.3 8.3-3.7 8.3-8.3 8.3z" fill="#707070"/><path d="m20 95.6 18.1 18.1c1.6 1.6 1.6 4.1 0 5.7l-5.7 5.7c-1.6 1.6-4.1 1.6-5.7 0l-18.1-18.1c-1.6-1.6-1.6-4.1 0-5.7l5.7-5.7c1.6-1.6 4.1-1.6 5.7 0z" fill="#424242"/><path d="m33.1 90.1-.4-1.3-9.7 9.8 12.1 12.1 8.1-8.1c-5-2.6-8.6-7.1-10.1-12.5z" fill="#fbb540"/><path d="m119.4 107-18.1 18.1c-1.6 1.6-4.1 1.6-5.7 0l-5.7-5.7c-1.6-1.6-1.6-4.1 0-5.7l18.1-18.1c1.6-1.6 4.1-1.6 5.7 0l5.7 5.7c1.6 1.6 1.6 4.1 0 5.7z" fill="#424242"/><g fill="#fbb540"><path d="m94.9 90.1.4-1.3 9.7 9.7-12.1 12.1-8.1-8.1c5-2.5 8.6-7 10.1-12.4z"/><path d="m50.6 13.8h26.7c1 0 1.9.1 2.9.2v-4.4c0-4.3-3.5-7.8-7.8-7.8h-16.8c-4.3 0-7.8 3.5-7.8 7.8v4.4c.9-.2 1.9-.2 2.8-.2z"/></g></g><path d="m53.5 68.1v-13.1c0-1-.8-1.7-1.7-1.8h-23.5c-1 0-1.8.8-1.8 1.8v13.1c0 1 .8 1.8 1.8 1.8h23.5c.9 0 1.7-.8 1.7-1.8zm-3.5-1.7h-20v-9.6h20zm26.2 3.5h23.5c1 0 1.8-.8 1.8-1.8v-13.1c0-1-.8-1.8-1.8-1.8h-23.5c-1 0-1.7.8-1.8 1.7v13.1c.1 1.1.9 1.9 1.8 1.9zm1.8-13.1h20v9.6h-20zm-14 43.1c5.5 0 10-4.5 10-10s-4.5-10-10-10-10 4.5-10 10c0 5.5 4.5 10 10 10zm0-16.6c3.6 0 6.5 2.9 6.5 6.5s-2.9 6.5-6.5 6.5-6.5-2.9-6.5-6.5c0-3.6 2.9-6.5 6.5-6.5zm56.6 16.8-5.7-5.7c-2.2-2.2-5.9-2.2-8.1 0l-1.8 1.8-7.8-7.8 3.3-11.8h.9c3.7 0 6.7-3 6.8-6.8v-16.5c0-2.8-1.8-5.4-4.4-6.3v-8.5c0-1-.8-1.8-1.8-1.8s-1.8.8-1.8 1.8v8.1h-26.7c-3.6 0-5.7 3-5.7 5.7v18.6c0 1 .3 2 .8 2.9-3-.9-6.2-.9-9.1 0 .5-.9.8-1.9.8-2.9v-18.6c0-3.2-2.6-5.7-5.7-5.8h-26.8v-8.1c0-11.6 8.7-21.3 20.2-22.7.5-.1.9-.1 1.3-.1h1.3 26.7c.9 0 1.8.1 2.7.2h.1c2.5.3 4.9 1 7.1 2.1.9.4 1.9.1 2.3-.8s.1-1.9-.8-2.3c-2.1-1-4.4-1.8-6.7-2.2v-3c0-5.3-4.3-9.6-9.6-9.6h-16.8c-5.3 0-9.6 4.3-9.6 9.6v2.9c-12.6 2.3-21.7 13.2-21.8 26v8.5c-2.7 1-4.4 3.5-4.4 6.3v16.5c0 3.7 3 6.7 6.8 6.8h.9l3.3 11.8-7.8 7.7-1.8-1.8c-2.2-2.2-5.9-2.2-8.1 0l-2.9 2.9c-.7.6-.8 1.8-.1 2.5.6.7 1.8.8 2.6 0 .7-.7 2.9-2.9 2.9-2.9.9-.9 2.3-.9 3.2 0l18.1 18.1c.9.9.9 2.3 0 3.2l-5.7 5.7c-.9.9-2.3.9-3.2 0l-18.2-18.1c-.7-.7-1.8-.7-2.5 0s-.7 1.8 0 2.5l18.1 18.1c2.2 2.2 5.9 2.2 8.1 0l5.7-5.7c2.2-2.2 2.2-5.9 0-8.1l-1.8-1.8 6-6c2.8 1.3 5.9 1.9 8.9 1.9h23c3.1 0 6.1-.7 8.9-1.9l6 6-1.8 1.8c-2.2 2.2-2.2 5.9 0 8.1l5.7 5.7c2.2 2.2 5.9 2.2 8.1 0l18.1-18.1c2.6-2.2 2.6-5.9.3-8.1zm-71.1-88v-2.5c0-3.4 2.7-6.1 6.1-6.1h16.8c3.4 0 6.1 2.7 6.1 6.1v2.5c-.4 0-.8 0-1.1 0h-26.8c-.3-.1-.7-.1-1.1 0zm51.9 38c2 0 3.2 1.6 3.3 3.2v16.5c0 1.8-1.5 3.2-3.3 3.3h-27.9c-1.1 0-2.3-1-2.3-2.3v-18.5c0-1.3 1.2-2.2 2.3-2.3zm-24.1 39.7c0 7.3-5.9 13.3-13.3 13.3s-13.3-5.9-13.3-13.3c0-7.3 5.9-13.3 13.3-13.3 7.3.1 13.3 6 13.3 13.3zm-54-20v-16.5c0-1.6 1.3-3.2 3.2-3.2h27.8c1.3 0 2.3 1 2.3 2.3v18.4c0 1.3-.9 2.3-2.3 2.3h-27.7c-1.8 0-3.3-1.5-3.3-3.3zm11.8 38.4-9.6-9.6 6.4-6.4c1.6 4.4 4.6 8.2 8.5 10.7zm17.4-5.1c-8.2 0-15.5-5.5-17.7-13.4l-3.7-13.1h22.7c-7.3 5.6-8.7 16.1-3.1 23.4.9 1.2 1.9 2.2 3.1 3.1zm21.7 0c7.3-5.6 8.7-16.1 3.1-23.4-.9-1.2-1.9-2.2-3.1-3.1h22.7l-3.7 13.1c-2.2 7.9-9.5 13.4-17.7 13.4zm13.4-.2c3.9-2.6 6.9-6.3 8.5-10.7l6.4 6.4-9.6 9.6zm30.6 2.8-18.1 18.1c-.9.8-2.3.8-3.2 0l-5.7-5.7c-.9-.9-.9-2.3 0-3.2l18.1-18.1c.9-.9 2.3-.9 3.2 0l5.7 5.7c.8.9.8 2.4 0 3.2zm-22.9-81.5c-.6-.8-.5-1.9.3-2.5s1.9-.5 2.5.3c1.2 1.5 2.3 3.2 3.1 5 .4.9.1 1.9-.8 2.3s-1.9.1-2.3-.8c-.8-1.5-1.7-3-2.8-4.3z" fill="#332319"/></g></svg>