<svg height="512" viewBox="0 0 128 128" width="512" xmlns="http://www.w3.org/2000/svg"><g><g><path d="m17.848 98.361h8.395v27.212h-8.395z" fill="#fbb540" transform="matrix(.707 -.707 .707 .707 -72.715 48.383)"/><path d="m43.939 92.926-2.604 18.993-6.7 6.7-19.242-19.241 17.498-17.499z" fill="#424242"/><path d="m32.325 64.89h41.582v15.623h-41.582z" fill="#5e8569" transform="matrix(.707 -.707 .707 .707 -35.85 58.853)"/><path d="m95.53 41.34-4.06 4.06-2.48 2.47-3.32 3.32-2.47 2.48-3.32 3.32-2.48 2.47-4.06 4.06-11.05-11.04 4.06-4.06 2.48-2.48 3.32-3.32 2.47-2.47 9.86-9.86z" fill="#85bc94"/><path d="m82.789 18.402h30.396v7.811h-30.396z" fill="#707070" transform="matrix(.707 -.707 .707 .707 12.926 75.821)"/><g fill="#424242"><path d="m110.923.707h1.046a3.312 3.312 0 0 1 3.312 3.312v9.659a3.313 3.313 0 0 1 -3.313 3.313h-1.046a3.312 3.312 0 0 1 -3.312-3.312v-9.66a3.313 3.313 0 0 1 3.313-3.312z" transform="matrix(.707 -.707 .707 .707 26.385 81.396)"/><path d="m76.281 115.756-10.492 10.493-21.85-33.323 10.492-10.492z"/><path d="m109.338 89.587-8.986.187a52.439 52.439 0 0 1 -37.987-15.274l9.825-9.826a38.475 38.475 0 0 0 27.873 11.207l8.986-.187z"/></g><path d="m49.229 51.52-23.348 23.348 7.01 7.011 29.4-29.4-.956-.956a8.562 8.562 0 0 0 -12.106-.003z" fill="#85bc94"/><path d="m71.363 44.891h3.504v15.624h-3.504z" fill="#5e8569" transform="matrix(.709 -.706 .706 .709 -15.88 66.957)"/><path d="m77.162 39.096h3.497v15.624h-3.497z" fill="#5e8569" transform="matrix(.706 -.709 .709 .706 -10.011 69.716)"/><path d="m82.953 33.301h3.504v15.624h-3.504z" fill="#5e8569" transform="matrix(.709 -.706 .706 .709 -4.323 71.757)"/></g><g fill="#332319"><path d="m118.81 8.314-6.83-6.83a5.061 5.061 0 0 0 -7.158 0l-.742.741a5.06 5.06 0 0 0 -.524 6.516l-20.315 20.314-5.3 5.3-5.793 5.793-5.793 5.793-5.3 5.295-28.163 28.164-4.537-4.536 22.111-22.107a1.75 1.75 0 1 0 -2.474-2.475l-23.349 23.349a1.748 1.748 0 0 0 0 2.474l5.774 5.774-16.261 16.262-5.936 5.935a1.749 1.749 0 0 0 0 2.475l19.241 19.242a1.748 1.748 0 0 0 2.474 0l5.937-5.937 6.7-6.7a1.741 1.741 0 0 0 .5-1l1.966-14.356 19.288 29.414a1.752 1.752 0 0 0 1.284.781 1.788 1.788 0 0 0 .179.009 1.749 1.749 0 0 0 1.237-.513l10.493-10.493a1.751 1.751 0 0 0 .226-2.2l-4.131-6.3a1.751 1.751 0 1 0 -2.928 1.92l3.351 5.11-7.964 7.965-19.89-30.336 7.964-7.965 2.953 4.508a1.75 1.75 0 1 0 2.927-1.92l-3.354-5.114 5.721-5.72a54.222 54.222 0 0 0 36.893 14.589q.55 0 1.1-.011l8.985-.187a1.752 1.752 0 0 0 1.714-1.786l-.286-13.892a1.751 1.751 0 0 0 -1.749-1.714h-.037l-8.987.187a36.506 36.506 0 0 1 -25.327-9.489l10.968-10.972 5.79-5.79 5.293-5.293a1.75 1.75 0 0 0 0-2.474l-4.286-4.287 19.087-19.087a5.032 5.032 0 0 0 6.518-.527l.74-.74a5.067 5.067 0 0 0 0-7.159zm-34.377 41.643-8.572-8.573 3.321-3.32 8.572 8.571zm-5.8 5.8-8.567-8.577 3.321-3.321 8.572 8.572zm-11.047-6.1 8.572 8.572-2.821 2.822-8.573-8.572zm-14.386 31.537-9.256 9.256-4.286-4.287-4.286-4.286 13.458-13.462 13.464-13.464 4.287 4.286 4.286 4.286zm-24.5 40.887-16.768-16.767 3.461-3.461 16.767 16.766zm10.982-10.981-5.047 5.047-16.767-16.769 15.023-15.024 6.145 6.146 3.051 3.051zm60.418-33.468 7.237-.151.216 10.393-7.236.15a50.545 50.545 0 0 1 -35.456-13.545l7.357-7.357a40.443 40.443 0 0 0 27.882 10.51zm-9.87-33.471-8.573-8.572 2.822-2.822 4.287 4.286 4.286 4.286zm-.23-10.82-3.049-3.049 19.019-19.019 3.048 3.049zm26.336-20.341-.74.74a1.563 1.563 0 0 1 -2.21 0l-.654-.653-5.523-5.524-.653-.653a1.565 1.565 0 0 1 0-2.209l.741-.74a1.564 1.564 0 0 1 2.21 0l6.829 6.829a1.566 1.566 0 0 1 0 2.21z"/><path d="m62.77 95.15a1.75 1.75 0 0 0 -.5 2.424l3.254 4.965a1.751 1.751 0 0 0 2.928-1.92l-3.256-4.965a1.753 1.753 0 0 0 -2.426-.504z"/></g></g></svg>