<svg id="Layer_1" enable-background="new 0 0 128 128" viewBox="0 0 128 128" xmlns="http://www.w3.org/2000/svg"><g><g><path d="m126.1 1.9c-10.3-1-20.6 2.6-27.9 10l-4.7 4.7 1.7 1.7c1.3 1.3 1.3 3.5 0 4.8-1.3 1.3-3.5 1.3-4.8 0l-1.7-1.7-4.3 4.3 1.7 1.7c1.3 1.3 1.3 3.5 0 4.8-1.3 1.3-3.5 1.3-4.8 0l-1.7-1.7-26 26 17.9 17.9 44.5-44.5c7.4-7.4 11.1-17.7 10.1-28z" fill="#e6e9ed"/><path d="m49.2 52 26.8 26.8c1.2 1.2 1.2 3.1 0 4.2l-3 3c-1.2 1.2-3.1 1.2-4.2 0l-26.9-26.7c-1.2-1.2-1.2-3.1 0-4.2l3-3c1.2-1.3 3.1-1.3 4.3-.1z" fill="#424242"/><path d="m9.9 95.7 22.4 22.4c1.2 1.2 1.2 3.1 0 4.2l-3 3c-1.2 1.2-3.1 1.2-4.2 0l-22.5-22.3c-1.2-1.2-1.2-3.1 0-4.2l3-3c1.2-1.2 3.1-1.2 4.3-.1z" fill="#424242"/><path d="m64.3 81.6-21.6 21.7-4.1 4-2.5 2.5-6.1 6.1-17.9-17.9 6.1-6.1 2.5-2.5 13.1-13.1 4-4 2.5-2.5 6.1-6.1z" fill="#5e8569"/></g><path d="m127.8 1.7c0-.1-.1-.6-.5-1.1-.5-.5-.9-.5-1.1-.5-10.8-1-21.5 2.8-29.2 10.6l-4.7 4.7c-.7.7-.7 1.8 0 2.5l1.7 1.7c.6.6.6 1.7 0 2.3-.7.6-1.7.6-2.3 0l-1.7-1.8c-.7-.7-1.8-.7-2.5 0l-4.3 4.3c-.7.7-.7 1.8 0 2.5l1.7 1.7c.6.6.6 1.7 0 2.3-.7.6-1.7.6-2.3 0l-1.7-1.7c-.7-.7-1.8-.7-2.5 0l-24.8 24.8-3.2-3.2c-1.9-1.9-4.9-1.9-6.7 0l-3 3c-1.9 1.9-1.9 4.9 0 6.7l3.2 3.2-31.8 31.8-1-1c-1.9-1.9-4.9-1.9-6.7 0l-3 3c-1.9 1.9-1.9 4.9 0 6.7l22.4 22.4c1.9 1.9 4.9 1.9 6.7 0l3-3c1.9-1.9 1.9-4.9 0-6.7l-1-1 31.8-31.8 3.2 3.2c1.9 1.9 4.9 1.9 6.7 0 .7-.7.7-1.8 0-2.5s-1.8-.7-2.4 0c-.5.5-1.3.5-1.8 0l-4.4-4.4-18-17.9-4.4-4.5c-.5-.5-.5-1.3 0-1.8l3-3c.5-.5 1.3-.5 1.8 0l4.4 4.4 17.9 17.9 4.4 4.4c.7.7 1.8.7 2.5 0s.7-1.8 0-2.4l-3.2-3.1 17.2-17.2c.7-.7.7-1.8 0-2.5s-1.8-.7-2.5 0l-9.8 9.8-6.5-6.5 52.1-52c-.2 8.5-3.6 16.6-9.6 22.6l-7.3 7.3c-.7.7-.7 1.8 0 2.5s1.8.7 2.5 0l7.3-7.3c7.7-7.7 11.5-18.5 10.4-29.4zm-77.4 91.3-15.4-15.4 4.1-4.1 15.4 15.4zm-6.5 6.5-15.4-15.4 4.1-4.1 15.4 15.5zm-6.5 6.6-15.5-15.4 4.1-4.1 15.4 15.4zm-6.4 15-3 3c-.5.5-1.3.5-1.8 0l-22.3-22.4c-.5-.5-.5-1.3 0-1.8l3-3c.5-.5 1.3-.5 1.8 0l22.3 22.5c.5.4.5 1.2 0 1.7zm-8.7-15.4-7.7-7.7 4.8-4.8 15.4 15.4-4.8 4.8zm34.7-19.2-15.5-15.5 4.8-4.8 15.4 15.4zm14.6-14.6-7.7-7.7-7.7-7.7 4.9-4.9 15.3 15.4zm-8.1-22.8 16.2-16.2.4.4c2 2 5.3 2 7.3 0s2-5.3 0-7.3l-.4-.4 1.8-1.8.4.4c2 2 5.3 2 7.3-.1 2-2 2-5.2 0-7.2l-.5-.3 3.4-3.4c6-6 14.1-9.5 22.6-9.6l-52 52zm38.3-4.9c.7.7.7 1.8 0 2.5l-2.3 2.3c-.7.7-1.8.7-2.5 0s-.7-1.8 0-2.5l2.3-2.3c.7-.7 1.8-.7 2.5 0z" fill="#332319"/></g></svg>