<svg height="512" viewBox="0 0 128 128" width="512" xmlns="http://www.w3.org/2000/svg"><g><g><g fill="#424242"><path d="m46.861 74.129h-12.986a1.75 1.75 0 0 1 0-3.5h12.986a10.245 10.245 0 0 0 9-5.341l4.558-8.355a1.75 1.75 0 1 1 3.072 1.676l-4.557 8.354a13.743 13.743 0 0 1 -12.073 7.166z"/><path d="m48.561 68.334a1.742 1.742 0 0 1 -.81-.2l-.143-.075a19.316 19.316 0 0 1 -8.1-8.085l-.608-1.151a1.75 1.75 0 0 1 3.1-1.634l.607 1.149a15.805 15.805 0 0 0 6.632 6.622l.14.073a1.751 1.751 0 0 1 -.815 3.3z"/><path d="m1.75 95.745a4.273 4.273 0 0 0 4.273 4.273h19.852a8 8 0 0 0 8-8v-25.7a8.526 8.526 0 0 1 3.025-6.518l-20.972-14.56a97.155 97.155 0 0 0 -14.178 50.505z"/><path d="m80.25 29.855h46v9.791h-46z"/></g><path d="m80.25 39.646h27.125v9.792h-27.125z" fill="#707070"/><path d="m34 64.94a7.869 7.869 0 0 0 -.12 1.38v22.08h-18.38l4-23.46z" fill="#707070"/><g fill="#fbb540"><path d="m33.88 70.63v3.5h-8.26a1.75 1.75 0 0 1 0-3.5z"/><path d="m33.88 79.2v3.5h-8.26a1.75 1.75 0 0 1 0-3.5z"/></g><path d="m22.13 43.911a15.288 15.288 0 0 0 6.37-5.311 15.591 15.591 0 0 1 -7.177-10.617l-7.889 1.33a23.659 23.659 0 0 0 8.696 14.598z" fill="#424242"/><path d="m31.156 29.855v.156a15.228 15.228 0 0 1 -15.228 15.229l20.972 14.56a8.513 8.513 0 0 1 5.524-2.03h31.826a6 6 0 0 0 6-6v-21.915z" fill="#5e8569"/><path d="m41.562 29.855h30.688v19.916h-30.688z" fill="#fbb540"/><path d="m48.563 35.855h23.687v7.916h-23.687z" fill="#424242"/></g><g fill="#332319"><path d="m126.25 28.105h-8.875a1.75 1.75 0 0 0 0 3.5h7.125v6.295h-42.5v-6.295h10a1.75 1.75 0 0 0 0-3.5h-60.844a1.749 1.749 0 0 0 -1.75 1.75v.156a13.365 13.365 0 0 1 -1.448 6.043 13.736 13.736 0 0 1 -4.909-8.363 1.75 1.75 0 0 0 -2.017-1.435l-7.888 1.33a1.75 1.75 0 0 0 -1.435 2.014 25.211 25.211 0 0 0 7.022 13.589 13.423 13.423 0 0 1 -2.8.3 1.8 1.8 0 0 0 -1.5.84 99.715 99.715 0 0 0 -6.651 13 1.75 1.75 0 1 0 3.225 1.361 96.079 96.079 0 0 1 5.465-10.938l17.765 12.328a10.293 10.293 0 0 0 -1.615 3.106h-13.12a1.75 1.75 0 0 0 -1.725 1.456l-4 23.46a1.75 1.75 0 0 0 1.725 2.044h16.625v1.872a6.257 6.257 0 0 1 -6.25 6.25h-19.852a2.526 2.526 0 0 1 -2.523-2.523 95.139 95.139 0 0 1 4.171-27.866 1.751 1.751 0 0 0 -3.348-1.024 98.684 98.684 0 0 0 -4.323 28.89 6.03 6.03 0 0 0 6.023 6.023h19.852a9.761 9.761 0 0 0 9.75-9.75v-17.889h11.236a13.743 13.743 0 0 0 12.071-7.166l4.06-7.442h11.258a7.759 7.759 0 0 0 7.75-7.75v-.583h25.375a1.75 1.75 0 0 0 1.75-1.75v-8.038h17.125a1.75 1.75 0 0 0 1.75-1.75v-9.795a1.749 1.749 0 0 0 -1.75-1.75zm-55.75 13.916h-20.187v-4.421h20.187zm0-10.416v2.5h-21.937a1.75 1.75 0 0 0 -1.75 1.75v7.916a1.751 1.751 0 0 0 1.75 1.75h21.937v2.5h-27.188v-16.416zm-48.129 10.235a21.8 21.8 0 0 1 -6.851-11.105l4.457-.752a17.288 17.288 0 0 0 6 8.982 13.067 13.067 0 0 1 -3.606 2.875zm-4.8 44.806 3.406-19.96h11.148v3.943h-6.5a1.75 1.75 0 0 0 0 3.5h6.5v5.071h-6.5a1.75 1.75 0 0 0 0 3.5h6.5v3.943zm38.288-21.358a10.245 10.245 0 0 1 -9 5.341h-11.234v-4.308c0-.2.015-.39.032-.583.015-.154.035-.313.062-.481a6.785 6.785 0 0 1 2.314-4.121 6.807 6.807 0 0 1 1.583-.975 19.3 19.3 0 0 0 7.991 7.9l.143.075a1.75 1.75 0 0 0 1.625-3.1l-.14-.073a15.79 15.79 0 0 1 -5.935-5.442h15.7zm22.641-13.517a4.255 4.255 0 0 1 -4.25 4.25h-31.825a10.214 10.214 0 0 0 -2.089.241 1.752 1.752 0 0 0 -.478.1 10.318 10.318 0 0 0 -2.986 1.283l-16.289-11.304a17.171 17.171 0 0 0 9.432-6.882 16.856 16.856 0 0 0 2.817-7.854h6.98v18.166a1.751 1.751 0 0 0 1.75 1.75h30.688a1.75 1.75 0 0 0 1.75-1.75v-18.166h4.5zm27.125-4.083h-23.625v-6.288h23.625z"/><path d="m102 31.605h5.375a1.75 1.75 0 0 0 0-3.5h-5.375a1.75 1.75 0 0 0 0 3.5z"/></g></g></svg>