<svg height="512" viewBox="0 0 128 128" width="512" xmlns="http://www.w3.org/2000/svg"><g><g><path d="m77.985 42.833h-27.97a13.791 13.791 0 0 1 -10.492-4.833h-.545v2.568a22.226 22.226 0 0 0 .5 4.674l1.509 6.891c.788 3.611 1.317 7.465 2.71 10.9a21.929 21.929 0 0 0 40.606 0c1.393-3.437 1.922-7.291 2.709-10.9l1.51-6.891a22.226 22.226 0 0 0 .5-4.674v-2.568h-.545a13.791 13.791 0 0 1 -10.492 4.833z" fill="#f0d0b4"/><path d="m39.481 45.242a21.9 21.9 0 0 1 -.505-4.677v-1.307a6.9 6.9 0 0 0 -.926-.07 6.81 6.81 0 1 0 2.935 12.947z" fill="#ddb79b"/><path d="m89.7 39.188a6.058 6.058 0 0 0 -.678.052v1.328a22.226 22.226 0 0 1 -.5 4.674l-1.51 6.891-.021.1a6.732 6.732 0 0 0 2.709.578 6.81 6.81 0 0 0 0-13.619z" fill="#ddb79b"/><path d="m77.985 42.833h-27.97a13.834 13.834 0 0 1 -13.834-13.833h55.638a13.834 13.834 0 0 1 -13.834 13.833z" fill="#5e8569"/><path d="m96.342 22.348-4.523 6.652h-55.638l-4.524-6.652a6.451 6.451 0 0 1 -.245-6.866l3.188-5.493a16.547 16.547 0 0 1 14.312-8.242h30.176a16.547 16.547 0 0 1 14.312 8.242l3.188 5.493a6.449 6.449 0 0 1 -.246 6.866z" fill="#85bc94"/><path d="m96.342 22.348-4.523 6.652h-55.638l-4.524-6.652a6.451 6.451 0 0 1 -.245-6.866l3.188-5.493a16.547 16.547 0 0 1 14.312-8.242h30.176a16.547 16.547 0 0 1 14.312 8.242l3.188 5.493a6.449 6.449 0 0 1 -.246 6.866z" fill="#85bc94"/><path d="m71.147 16.643a1.749 1.749 0 0 0 -2.224 1.084 3.908 3.908 0 0 1 -3.173 2.6v-3.675a4.6 4.6 0 0 0 0-8.52v-1.819a1.75 1.75 0 0 0 -3.5 0v1.819a4.6 4.6 0 0 0 0 8.52v3.673a3.906 3.906 0 0 1 -3.172-2.6 1.75 1.75 0 1 0 -3.309 1.139 7.4 7.4 0 0 0 7 4.993h2.463a7.4 7.4 0 0 0 7-4.992 1.748 1.748 0 0 0 -1.085-2.222zm-8.256-4.251a1.109 1.109 0 1 1 1.109 1.108 1.11 1.11 0 0 1 -1.109-1.108z" fill="#424242"/><path d="m119.5 110.83v15.42h-111v-15.42a22.417 22.417 0 0 1 16.5-21.61c4.31-1.18 8.84-1.31 13.31-1.64l.4-.03 23.79 14.19 1.5.89s.55-.33 1.5-.89c4.85-2.9 20.08-11.97 23.72-14.15 1.61.14 2.66.2 4.02.32a55.319 55.319 0 0 1 9.76 1.31 22.417 22.417 0 0 1 16.5 21.61z" fill="#5e8569"/><path d="m53.2 84.385-3.71-2.037c-.455 1.365-1.266 2.712-4.51 4.373a29.971 29.971 0 0 1 -6.276.83l25.296 15.079a20.813 20.813 0 0 0 -10.8-18.245z" fill="#424242"/><path d="m82.859 86.652c-.837-.407-1.927-.575-3.994-3.353a7.3 7.3 0 0 1 -.411-.921l-3.654 2.007a20.813 20.813 0 0 0 -10.8 18.245l25.224-15.038c-.686-.057-1.463-.125-2.427-.218a22.825 22.825 0 0 1 -3.938-.722z" fill="#424242"/><path d="m74.8 84.385 3.656-2.007a6.391 6.391 0 0 1 -.358-1.411l-1.098-8.576a21.855 21.855 0 0 1 -26 0l-1.1 8.576c-.149.471-.261.927-.412 1.381l3.71 2.037a20.813 20.813 0 0 1 10.802 18.245 20.813 20.813 0 0 1 10.8-18.245z" fill="#ddb79b"/><path d="m112.053 101.505v-7.33a22.376 22.376 0 0 0 -9.053-4.959 54.99 54.99 0 0 0 -9.764-1.3c-1.353-.122-2.4-.186-4.012-.32v4.352a4 4 0 0 0 2.394 3.663l17.632 7.73a2 2 0 0 0 2.803-1.836z" fill="#85bc94"/><path d="m15.947 101.505v-7.33a22.376 22.376 0 0 1 9.053-4.959 54.99 54.99 0 0 1 9.764-1.3c1.353-.122 2.4-.186 4.012-.32v4.352a4 4 0 0 1 -2.394 3.663l-17.632 7.73a2 2 0 0 1 -2.803-1.836z" fill="#85bc94"/><path d="m72.937 111.219h18.938v5.625h-18.938z" fill="#fbb540"/></g><g fill="#332319"><path d="m69.2 57.931a6.987 6.987 0 0 1 -5.325 2.069 6.987 6.987 0 0 1 -5.326-2.07 1.75 1.75 0 0 0 -2.7 2.224 10.376 10.376 0 0 0 8.026 3.346 10.371 10.371 0 0 0 8.025-3.344 1.75 1.75 0 1 0 -2.7-2.225z"/><path d="m82.182 63.5c-.227.474-.48.95-.749 1.414a1.749 1.749 0 1 0 3.023 1.761c.317-.544.614-1.1.882-1.661a1.75 1.75 0 1 0 -3.156-1.514z"/><path d="m62.768 23.859h2.463a7.4 7.4 0 0 0 7-4.992 1.749 1.749 0 1 0 -3.308-1.14 3.908 3.908 0 0 1 -3.173 2.6v-3.675a4.6 4.6 0 0 0 0-8.52v-1.819a1.75 1.75 0 0 0 -3.5 0v1.819a4.6 4.6 0 0 0 0 8.52v3.673a3.906 3.906 0 0 1 -3.172-2.6 1.75 1.75 0 1 0 -3.309 1.139 7.4 7.4 0 0 0 6.999 4.995zm.123-11.467a1.109 1.109 0 1 1 1.109 1.108 1.11 1.11 0 0 1 -1.109-1.108z"/><path d="m113.313 92.965a1.676 1.676 0 0 0 -.174-.152 24.018 24.018 0 0 0 -9.677-5.285 45.951 45.951 0 0 0 -8.507-1.23c-.522-.042-1.045-.084-1.561-.129-.771-.069-1.444-.12-2.175-.176-.558-.042-1.151-.087-1.85-.145-.68-.056-1.449-.124-2.325-.206l-.764-.1a16.835 16.835 0 0 1 -2.78-.522c-.1-.046-.2-.091-.312-.137-.62-.266-1.388-.6-2.839-2.52a5.32 5.32 0 0 1 -.255-.591 4.555 4.555 0 0 1 -.262-1.024l-1.1-8.577a1.793 1.793 0 0 0 -.562-1.071 1.74 1.74 0 0 0 -2.332-.013 20.18 20.18 0 0 1 -23.633.045 1.735 1.735 0 0 0 -.38-.276 20.1 20.1 0 0 1 -6.506-8.474 44.049 44.049 0 0 1 -2.068-7.905c-.18-.913-.359-1.82-.554-2.715l-.797-3.662-.706-3.23c-.055-.251-.1-.5-.144-.757a20.5 20.5 0 0 1 -.293-2.608 15.479 15.479 0 0 0 9.262 3.08h11.501l-.662 4.873a3.43 3.43 0 0 0 3.391 3.942h1.958a1.75 1.75 0 0 0 0-3.5l-1.885.053.73-5.371h12.933a15.479 15.479 0 0 0 9.262-3.08v.142a20.454 20.454 0 0 1 -.432 3.223l-.562 2.568-.966 4.412v.01c-.187.863-.361 1.738-.535 2.619q-.162.828-.331 1.66a1.751 1.751 0 0 0 1.358 2.064 1.8 1.8 0 0 0 .354.036 1.75 1.75 0 0 0 1.712-1.4c.116-.563.226-1.125.337-1.686.048-.243.1-.48.147-.722a8.3 8.3 0 0 0 1.371.125 8.554 8.554 0 0 0 1.3-17.005 15.476 15.476 0 0 0 2.539-7.965l4.251-6.25a8.246 8.246 0 0 0 .31-8.733l-3.187-5.489a18.351 18.351 0 0 0 -15.825-9.111h-30.176a18.356 18.356 0 0 0 -15.826 9.11l-3.186 5.49a8.248 8.248 0 0 0 .312 8.73l4.251 6.25a15.474 15.474 0 0 0 2.517 7.93 8.555 8.555 0 0 0 1.07 17.047 8.42 8.42 0 0 0 1.612-.165c.051.254.105.5.155.758a46.65 46.65 0 0 0 2.259 8.55 23.623 23.623 0 0 0 7.058 9.5l-.946 7.4c-.073.236-.048.189-.356 1.2-.236.71-.593 1.777-3.514 3.3a35.569 35.569 0 0 1 -5.757.711c-.7.057-1 .075-2.431.17a57.968 57.968 0 0 0 -11.592 1.551 24.018 24.018 0 0 0 -9.677 5.285 1.786 1.786 0 0 0 -.174.152 24.183 24.183 0 0 0 -7.937 17.864v15.417a1.751 1.751 0 0 0 1.75 1.75h111a1.75 1.75 0 0 0 1.75-1.75v-15.417a24.183 24.183 0 0 0 -7.937-17.868zm-35.328-51.882h-27.97a12.1 12.1 0 0 1 -11.957-10.333h51.884a12.1 12.1 0 0 1 -11.957 10.333zm16.775 4.917a5.065 5.065 0 0 1 -5.06 5.059 4.884 4.884 0 0 1 -.65-.044c.7-3.61 1.55-5.785 1.718-9.961a5.067 5.067 0 0 1 3.992 4.946zm-61.834-29.64 3.188-5.493a14.842 14.842 0 0 1 12.8-7.37h30.174a14.841 14.841 0 0 1 12.8 7.37l3.188 5.493a4.725 4.725 0 0 1 -.179 5l-4 5.886h-53.79l-4-5.886a4.727 4.727 0 0 1 -.181-5zm5.124 34.7a5.059 5.059 0 0 1 -.82-10.052c-.108 2.082 1.134 7.394 1.711 9.972a5 5 0 0 1 -.891.077zm55.034 38.6c.529.047 1.06.09 1.591.132a42.642 42.642 0 0 1 7.863 1.117 20.547 20.547 0 0 1 7.765 4.072v6.529a.232.232 0 0 1 -.114.209.236.236 0 0 1 -.237.02l-17.631-7.734a2.251 2.251 0 0 1 -1.346-2.061v-2.459c.706.053 1.359.103 2.109.17zm-11.274-1.56c.1.043.194.083.285.127a1.57 1.57 0 0 0 .221.089 13.056 13.056 0 0 0 1.6.405l-.944.562-16.943 10.1a19.062 19.062 0 0 1 9.611-13.464l2.13-1.17a9.4 9.4 0 0 0 4.04 3.351zm-17.81-9.673a23.487 23.487 0 0 0 11.615-3.062l.744 5.824c.014.1.042.206.059.309l-2.463 1.353a22.556 22.556 0 0 0 -9.955 11.075 22.547 22.547 0 0 0 -9.955-11.075l-2.472-1.357a1.769 1.769 0 0 0 .068-.305l.74-5.791a23.68 23.68 0 0 0 11.619 3.029zm-18.484 9.962a1.8 1.8 0 0 0 .265-.11 11.359 11.359 0 0 0 4.474-3.516l2.106 1.156a19.062 19.062 0 0 1 9.611 13.464l-17.856-10.644a11.5 11.5 0 0 0 1.4-.35zm-35.266 22.444a20.613 20.613 0 0 1 3.947-12.1v2.773a3.748 3.748 0 0 0 5.256 3.435l9.5-4.165a1.75 1.75 0 0 0 -1.406-3.205l-9.5 4.164a.25.25 0 0 1 -.351-.229v-6.53a20.55 20.55 0 0 1 7.765-4.076 54.521 54.521 0 0 1 10.9-1.435l.668-.045v2.52a1.75 1.75 0 0 0 3.5 0v-1.268l21.721 12.952v20.876h-34v-12.875a1.75 1.75 0 0 0 -3.5 0v12.875h-14.5zm107.5 13.667h-14.5v-12.875a1.75 1.75 0 0 0 -3.5 0v12.875h-34v-20.876l21.725-12.952v1.272a5.749 5.749 0 0 0 3.441 5.266l17.632 7.73a3.751 3.751 0 0 0 5.255-3.435v-2.773a20.613 20.613 0 0 1 3.947 12.1z"/><path d="m91.875 109.469h-18.938a1.75 1.75 0 0 0 -1.75 1.75v5.625a1.751 1.751 0 0 0 1.75 1.75h18.938a1.75 1.75 0 0 0 1.75-1.75v-5.625a1.749 1.749 0 0 0 -1.75-1.75zm-1.75 5.625h-15.438v-2.125h15.438z"/></g></g></svg>