<svg height="512" viewBox="0 0 128 128" width="512" xmlns="http://www.w3.org/2000/svg"><g><g><path d="m64 47.906 12.728 25.789 28.46 4.136-20.594 20.074 4.862 28.345-25.456-13.383-25.456 13.383 4.862-28.345-20.594-20.074 28.46-4.136z" fill="#fbb540"/><path d="m64 103.829-14.831 7.797 2.833-16.514-11.998-11.695 16.581-2.41 7.415-15.024 7.415 15.024 16.581 2.41-11.998 11.695 2.833 16.514z" fill="#fbd699"/><path d="m64 47.906 3.09 6.26 33.379-18.32v-34.096h-72.938v34.096l33.379 18.32z" fill="#e6e9ed"/><g fill="#ea6b65"><path d="m37.561 41.351 10 5.489v-45.09h-10z"/><path d="m69 1.75h-10v51.368l1.91 1.048 3.09-6.26 3.09 6.26 1.91-1.048z"/><path d="m80.439 46.84 10-5.489v-39.601h-10z"/></g></g><g fill="#332319"><path d="m106.852 77.29a1.747 1.747 0 0 0 -1.413-1.191l-27.549-4-8.49-17.199 31.91-17.52a1.748 1.748 0 0 0 .909-1.534v-34.096a1.751 1.751 0 0 0 -1.75-1.75h-72.938a1.751 1.751 0 0 0 -1.75 1.75v34.1a1.748 1.748 0 0 0 .909 1.534l31.91 17.516-8.49 17.2-5.976.868a1.75 1.75 0 1 0 .5 3.464l6.887-1a1.752 1.752 0 0 0 1.318-.957l11.161-22.615 11.158 22.61a1.752 1.752 0 0 0 1.318.957l24.951 3.626-18.055 17.6a1.749 1.749 0 0 0 -.5 1.549l4.262 24.85-22.319-11.734a1.753 1.753 0 0 0 -1.63 0l-22.316 11.733 4.262-24.851a1.749 1.749 0 0 0 -.5-1.549l-18.055-17.6 6.624-.961a1.75 1.75 0 0 0 -.5-3.463l-10.14 1.473a1.75 1.75 0 0 0 -.97 2.984l19.936 19.432-4.706 27.438a1.75 1.75 0 0 0 2.539 1.845l24.641-12.955 24.641 12.956a1.75 1.75 0 0 0 2.539-1.845l-4.706-27.439 19.936-19.433a1.748 1.748 0 0 0 .442-1.793zm-49.602-27.129-7.939-4.361v-42.3h7.939zm13.5-46.661h7.939v42.3l-7.939 4.361zm17.939 0v8.125a1.75 1.75 0 0 0 3.5 0v-8.125h6.53v31.31l-6.53 3.59v-7.837a1.75 1.75 0 0 0 -3.5 0v9.752l-6.5 3.568v-40.383zm-21.439 0v47.037l-1.681-3.406a1.75 1.75 0 0 0 -3.138 0l-1.681 3.406v-47.037zm-21.439 0v40.383l-6.5-3.568v-36.815zm-16.53 0h6.53v34.9l-6.53-3.585z"/><path d="m89.661 82.876a1.749 1.749 0 0 0 -1.413-1.191l-15.671-2.277-7.008-14.2a1.749 1.749 0 0 0 -3.138 0l-7.008 14.2-15.671 2.277a1.749 1.749 0 0 0 -.97 2.984l11.34 11.054-2.677 15.607a1.75 1.75 0 0 0 2.539 1.845l14.016-7.369 14.016 7.369a1.75 1.75 0 0 0 2.539-1.845l-2.677-15.607 11.34-11.054a1.75 1.75 0 0 0 .443-1.793zm-14.885 10.983a1.752 1.752 0 0 0 -.5 1.549l2.233 13.019-11.694-6.147a1.753 1.753 0 0 0 -1.63 0l-11.691 6.147 2.233-13.019a1.752 1.752 0 0 0 -.5-1.549l-9.459-9.22 13.071-1.9a1.75 1.75 0 0 0 1.318-.957l5.843-11.846 5.846 11.846a1.75 1.75 0 0 0 1.318.957l13.071 1.9z"/><path d="m90.439 24.688a1.751 1.751 0 0 0 1.75-1.75v-3.688a1.75 1.75 0 0 0 -3.5 0v3.688a1.751 1.751 0 0 0 1.75 1.75z"/></g></g></svg>