<svg height="512" viewBox="0 0 128 128" width="512" xmlns="http://www.w3.org/2000/svg"><g><g><path d="m77.985 41.834h-27.97a13.794 13.794 0 0 1 -10.492-4.834h-.545v3.568a22.243 22.243 0 0 0 .5 4.675l1.509 6.891c.788 3.611 1.317 7.464 2.71 10.9a21.93 21.93 0 0 0 40.606 0c1.393-3.438 1.922-7.291 2.709-10.9l1.51-6.891a22.243 22.243 0 0 0 .5-4.675v-3.568h-.545a13.794 13.794 0 0 1 -10.492 4.834z" fill="#f0d0b4"/><path d="m89.431 87.609c-.879-.069-1.76-.139-2.634-.235a22.825 22.825 0 0 1 -3.938-.722l-18.985 14.1 13.109 6.005z" fill="#424242"/><path d="m119.5 110.83v15.42h-111v-15.42a22.417 22.417 0 0 1 16.5-21.61c4.31-1.18 8.84-1.31 13.31-1.64l12.46 19.18 11.35-5.21 1.75-.8 1.75.8 11.36 5.21 12.45-19.15c1.28.1 2.55.19 3.81.3a55.319 55.319 0 0 1 9.76 1.31 22.417 22.417 0 0 1 16.5 21.61z" fill="#5e8569"/><g fill="#424242"><path d="m63.874 100.752-18.891-14.031a9.806 9.806 0 0 1 -3.124.547c-1.175.135-2.359.23-3.546.316l12.452 19.173z"/><path d="m65.62 100.75v25.5h-3.5v-25.5a1.75 1.75 0 0 1 3.5 0z"/><path d="m103.25 111.62v14.63h-3.5v-14.63a1.75 1.75 0 0 1 3.5 0z"/></g><path d="m26.5 116.467h10.337a2.142 2.142 0 0 1 2.141 2.141 2.14 2.14 0 0 0 2.141 2.141h7.834a2.142 2.142 0 0 1 2.141 2.141v1.219a2.142 2.142 0 0 1 -2.141 2.141h-22.453z" fill="#85bc94"/><path d="m115.585 98.207h-13.273a3 3 0 0 0 -3 3v.125a3 3 0 0 0 3 3h2.438a3 3 0 0 1 3 3 3 3 0 0 0 3 3h8.729a22.288 22.288 0 0 0 -3.894-12.125z" fill="#85bc94"/><path d="m76.676 84.352 2.514-.513c-.111-.173-.222-.347-.325-.54a6.741 6.741 0 0 1 -.769-2.332l-1.096-8.576a21.855 21.855 0 0 1 -26 0l-1.1 8.576a6.811 6.811 0 0 1 -1.13 2.864l2.549.521a63.358 63.358 0 0 0 25.357 0z" fill="#ddb79b"/><path d="m79.19 83.839-2.514.513a63.358 63.358 0 0 1 -25.352 0l-2.549-.521a7.577 7.577 0 0 1 -3.792 2.89l18.891 14.031 18.985-14.1a6.6 6.6 0 0 1 -3.669-2.813z" fill="#85bc94"/><path d="m9.2 105.247h21.227a2.141 2.141 0 0 0 2.141-2.141v-1.219a2.14 2.14 0 0 0 -2.141-2.141h-7.834a2.142 2.142 0 0 1 -2.141-2.141 2.14 2.14 0 0 0 -2.141-2.141h-3.686a22.373 22.373 0 0 0 -5.425 9.783z" fill="#85bc94"/><path d="m76.316 126.25v-4.875a3.063 3.063 0 0 1 3.063-3.062h.121a3.063 3.063 0 0 0 3.062-3.063 3.063 3.063 0 0 1 3.063-3.062h.125a3.062 3.062 0 0 1 3.062 3.062v11z" fill="#85bc94"/><path d="m28.25 111.62v14.63h-3.5v-14.63a1.75 1.75 0 0 1 3.5 0z" fill="#424242"/><path d="m39.481 45.243a21.885 21.885 0 0 1 -.505-4.677v-1.306a6.9 6.9 0 0 0 -.926-.07 6.81 6.81 0 1 0 2.935 12.947z" fill="#ddb79b"/><path d="m66.207 53.4h-1.957a3.431 3.431 0 0 1 -3.393-3.945l.846-6.222a1.75 1.75 0 0 1 3.469.471l-.85 6.249 1.885-.053a1.75 1.75 0 0 1 0 3.5z" fill="#424242"/><path d="m63.875 63.5a10.373 10.373 0 0 1 -8.027-3.346 1.749 1.749 0 1 1 2.7-2.224 6.988 6.988 0 0 0 5.327 2.07 6.987 6.987 0 0 0 5.325-2.067 1.749 1.749 0 1 1 2.7 2.224 10.368 10.368 0 0 1 -8.025 3.343z" fill="#424242"/><path d="m89.7 39.19a6.3 6.3 0 0 0 -.678.051v1.328a22.243 22.243 0 0 1 -.5 4.675l-1.51 6.891-.021.1a6.8 6.8 0 1 0 2.709-13.045z" fill="#ddb79b"/><path d="m77.985 42.835h-27.97a13.834 13.834 0 0 1 -13.834-13.835h55.638a13.834 13.834 0 0 1 -13.834 13.835z" fill="#424242"/><path d="m96.342 22.35-4.523 6.65h-55.638l-4.524-6.65a6.453 6.453 0 0 1 -.245-6.867l3.188-5.493a16.547 16.547 0 0 1 14.312-8.242h30.176a16.547 16.547 0 0 1 14.312 8.242l3.188 5.493a6.451 6.451 0 0 1 -.246 6.867z" fill="#5e8569"/><path d="m96.342 22.35-4.523 6.65h-55.638l-4.524-6.65a6.453 6.453 0 0 1 -.245-6.867l3.188-5.493a16.547 16.547 0 0 1 14.312-8.242h30.176a16.547 16.547 0 0 1 14.312 8.242l3.188 5.493a6.451 6.451 0 0 1 -.246 6.867z" fill="#5e8569"/><path d="m69.469 16.245-5.469 4.004-5.469-4.004v-7.871h10.938z" fill="#fbb540"/></g><g fill="#332319"><path d="m121.228 110.3a24.251 24.251 0 0 0 -17.766-22.775 45.833 45.833 0 0 0 -8.5-1.229c-.523-.042-1.048-.084-1.569-.13-.893-.078-1.8-.147-2.706-.218l-1.115-.086h-.009c-.856-.067-1.714-.135-2.511-.221l-.765-.1a16.167 16.167 0 0 1 -2.876-.551 4.838 4.838 0 0 1 -2.738-2.095c-.087-.138-.175-.276-.254-.418a4.994 4.994 0 0 1 -.573-1.726l-.966-7.55a23.643 23.643 0 0 0 7.06-9.5 46.738 46.738 0 0 0 2.257-8.542c.047-.241.1-.477.146-.718a8.3 8.3 0 0 0 1.371.126 8.554 8.554 0 0 0 1.286-17.018 15.472 15.472 0 0 0 2.539-7.964l4.251-6.252a8.248 8.248 0 0 0 .31-8.733l-3.187-5.488a18.351 18.351 0 0 0 -15.825-9.112h-30.176a18.2 18.2 0 0 0 -7.012 1.4 1.749 1.749 0 1 0 1.34 3.232 14.739 14.739 0 0 1 5.672-1.132h30.176a14.841 14.841 0 0 1 12.8 7.371l3.188 5.492a4.727 4.727 0 0 1 -.179 5l-4 5.887h-53.79l-4-5.886a4.729 4.729 0 0 1 -.178-5l3.188-5.493a1.75 1.75 0 0 0 -3.027-1.758l-3.19 5.492a8.249 8.249 0 0 0 .312 8.729l4.251 6.251a15.479 15.479 0 0 0 2.517 7.929 8.556 8.556 0 0 0 1.07 17.045 8.42 8.42 0 0 0 1.612-.166c.051.254.105.5.155.758a46.786 46.786 0 0 0 2.258 8.549 23.632 23.632 0 0 0 7.058 9.5l-.962 7.533a5.089 5.089 0 0 1 -.842 2.119 5.853 5.853 0 0 1 -2.929 2.22 35.512 35.512 0 0 1 -6.21.767q-1.026.074-2.052.138a58.014 58.014 0 0 0 -11.6 1.55 24.066 24.066 0 0 0 -11.09 6.653 24.491 24.491 0 0 0 -5.948 10.695 24.028 24.028 0 0 0 -.75 5.957v15.418a1.749 1.749 0 0 0 1.75 1.75h111a1.749 1.749 0 0 0 1.75-1.75v-15.418c0-.178-.018-.352-.022-.532zm-5.995-9.321a21 21 0 0 1 2.379 7.6h-6.862a1.25 1.25 0 0 1 -1.25-1.25 4.756 4.756 0 0 0 -4.75-4.75h-2.438a1.251 1.251 0 0 1 -1.25-1.25v-.125a1.252 1.252 0 0 1 1.25-1.25h12.318c.209.34.414.679.603 1.028zm-28.848-11.9-10.046 15.458-9.046-4.144 15.921-11.825a24.488 24.488 0 0 0 2.613.442zm8.375-43.079a5.066 5.066 0 0 1 -5.06 5.06 4.723 4.723 0 0 1 -.65-.045c.691-3.51 1.574-5.965 1.718-9.961a5.067 5.067 0 0 1 3.992 4.946zm-4.818-15.248a12.025 12.025 0 0 1 -2.891 6.213 12.173 12.173 0 0 1 -9.066 4.12h-27.97a12.147 12.147 0 0 1 -9.066-4.12 12.025 12.025 0 0 1 -2.891-6.213zm-51.892 20.307a5.06 5.06 0 0 1 -.821-10.053c-.106 2.082 1.138 7.415 1.712 9.972a4.906 4.906 0 0 1 -.891.081zm7.268 11.322a44.2 44.2 0 0 1 -2.067-7.907c-.18-.913-.359-1.82-.554-2.713l-.806-3.682c-.615-3.269-.747-2.268-1.14-6.556a15.561 15.561 0 0 0 9.264 3.062h11.505l-.663 4.872a3.431 3.431 0 0 0 3.393 3.943h1.957a1.75 1.75 0 0 0 0-3.5l-1.885.053.73-5.37h12.933a16.039 16.039 0 0 0 9.262-3.06 16.534 16.534 0 0 1 -.436 3.345l-1.511 6.894-.018.082v.017c-.186.86-.36 1.732-.533 2.61a44.148 44.148 0 0 1 -2.066 7.9 20.128 20.128 0 0 1 -6.566 8.529 20.845 20.845 0 0 1 -12.117 4.027 21.139 21.139 0 0 1 -12.12-4.033 20.113 20.113 0 0 1 -6.562-8.513zm12.468 15.212a24.15 24.15 0 0 0 6.214.836 24.79 24.79 0 0 0 11.62-3.029l.739 5.787a8.017 8.017 0 0 0 .308 1.382l-.344.07q-.669.136-1.34.258a1.75 1.75 0 0 0 .619 3.445c.477-.086.953-.178 1.423-.275l1.425-.291a8.148 8.148 0 0 0 1.15 1.114l-6.745 5.01-8.981 6.67-5.347-3.97-10.312-7.66a9.037 9.037 0 0 0 1.27-1.179l1.489.3c1.747.358 3.539.647 5.327.86a1.75 1.75 0 0 0 .414-3.475c-1.692-.2-3.387-.475-5.04-.814l-.364-.074a8.125 8.125 0 0 0 .33-1.374l.739-5.79a23.53 23.53 0 0 0 5.406 2.199zm-15.809 11.423a11.874 11.874 0 0 0 2.67-.364l4.365 3.242 11.443 8.5-9.045 4.143-10.038-15.456zm-30.154 13.96a21.3 21.3 0 0 1 3.577-5.762h2.91a.391.391 0 0 1 .391.39 3.9 3.9 0 0 0 3.891 3.892h7.835a.39.39 0 0 1 .39.391v1.218a.391.391 0 0 1 -.39.392h-18.807c.067-.174.132-.349.203-.521zm-1.573 7.856a20.477 20.477 0 0 1 .374-3.832h19.8a3.9 3.9 0 0 0 3.89-3.892v-1.218a3.9 3.9 0 0 0 -3.886-3.89h-7.835a.392.392 0 0 1 -.393-.4 3.891 3.891 0 0 0 -3-3.779 20.569 20.569 0 0 1 6.262-2.921 54.47 54.47 0 0 1 10.9-1.434l1.043-.071 11.895 18.315a1.749 1.749 0 0 0 2.2.638l10.63-4.87v21.022h-9.33a3.863 3.863 0 0 0 .04-.391v-1.218a3.9 3.9 0 0 0 -3.887-3.891h-7.834a.392.392 0 0 1 -.392-.391 3.9 3.9 0 0 0 -3.89-3.891h-8.587v-3.092a1.75 1.75 0 0 0 -3.5 0v12.874h-14.5zm18 13.668v-6.283h8.587a.391.391 0 0 1 .39.391 3.9 3.9 0 0 0 3.892 3.891h7.834a.392.392 0 0 1 .391.392v1.218a.391.391 0 0 1 -.391.391zm49.816 0v-3.125a1.314 1.314 0 0 1 1.313-1.312h.121a4.819 4.819 0 0 0 4.812-4.813 1.314 1.314 0 0 1 1.313-1.312h.125a1.313 1.313 0 0 1 1.312 1.312v9.25zm25.184 0v-12.875a1.75 1.75 0 0 0 -3.5 0v12.875h-9.188v-9.25a4.818 4.818 0 0 0 -4.812-4.812h-.125a4.819 4.819 0 0 0 -4.813 4.812 1.314 1.314 0 0 1 -1.312 1.313h-.121a4.819 4.819 0 0 0 -4.813 4.812v3.125h-8.942v-21.022l10.631 4.87a1.749 1.749 0 0 0 2.2-.637l11.876-18.277.083.006c.9.07 1.789.138 2.67.215.53.047 1.061.089 1.594.132a42.609 42.609 0 0 1 7.86 1.117 20.568 20.568 0 0 1 9.352 5.553h-9.578a4.756 4.756 0 0 0 -4.75 4.75v.125a4.756 4.756 0 0 0 4.75 4.75h2.438a1.252 1.252 0 0 1 1.25 1.25 4.756 4.756 0 0 0 4.75 4.75h7v12.418z"/><path d="m65.124 87.373h.032q1.107-.021 2.215-.077a1.75 1.75 0 0 0 1.658-1.838 1.794 1.794 0 0 0 -1.838-1.658q-1.048.054-2.1.073a1.75 1.75 0 0 0 .03 3.5z"/><path d="m63.875 63.5a10.368 10.368 0 0 0 8.025-3.343 1.749 1.749 0 1 0 -2.7-2.224 6.987 6.987 0 0 1 -5.325 2.067 6.988 6.988 0 0 1 -5.326-2.07 1.749 1.749 0 1 0 -2.7 2.224 10.373 10.373 0 0 0 8.026 3.346z"/><path d="m62.966 21.661a1.751 1.751 0 0 0 2.068 0l5.469-4a1.751 1.751 0 0 0 .716-1.412v-7.875a1.75 1.75 0 0 0 -1.75-1.75h-10.938a1.749 1.749 0 0 0 -1.75 1.75v7.871a1.751 1.751 0 0 0 .716 1.412zm-2.685-11.537h7.438v5.233l-3.719 2.723-3.719-2.723z"/></g></g></svg>