<svg width="1719" height="458" viewBox="0 0 1719 458" fill="none" xmlns="http://www.w3.org/2000/svg">
<g clip-path="url(#clip0)">
<line y1="231.333" x2="1719" y2="231.333" stroke="#424242" stroke-width="1.33333"/>
<path d="M217.608 139.197L146.853 382.861H145.179C143.504 377.837 140.992 368.487 137.643 354.811C134.572 340.855 131.084 324.806 127.176 306.664C123.548 288.243 119.64 268.984 115.453 248.888C111.267 228.792 107.359 210.231 103.731 193.205C100.381 175.9 97.4507 161.247 94.9387 149.245C92.7058 137.244 91.3102 130.405 90.752 128.731C86.5653 112.821 80.4249 101.796 72.3307 95.656C64.5156 89.2364 53.9093 85.3289 40.512 83.9333H157.32C144.481 85.0497 135.27 88.9573 129.688 95.656C124.106 102.076 122.85 112.263 125.92 126.219L163.6 315.037L231.424 78.9093H235.192L303.435 310.432L337.765 154.269C341.394 137.523 343.068 124.544 342.789 115.333C342.51 106.123 340.696 99.2844 337.347 94.8186C334.276 90.3529 329.95 87.5617 324.368 86.4453C318.786 85.3289 312.366 84.4915 305.109 83.9333H399.728C391.355 84.7706 384.098 86.0266 377.957 87.7013C372.096 89.376 366.932 92.7253 362.467 97.7493C358.001 102.773 353.954 110.03 350.325 119.52C346.976 128.731 343.627 141.291 340.277 157.2L290.456 382.861H288.363L217.608 139.197ZM576.955 376.581V377H393.998C398.742 376.442 403.069 375.604 406.976 374.488C410.884 373.372 414.094 371.418 416.606 368.627C419.397 365.836 421.49 361.928 422.886 356.904C424.56 351.88 425.398 345.042 425.398 336.389V124.544C425.398 115.892 424.56 109.053 422.886 104.029C421.49 99.0053 419.397 95.0978 416.606 92.3066C414.094 89.5155 410.884 87.5617 406.976 86.4453C403.069 85.3289 398.742 84.4915 393.998 83.9333H571.931L584.072 155.107C582.956 151.757 581.281 146.315 579.048 138.779C577.094 131.243 573.466 123.707 568.163 116.171C562.86 108.635 555.463 102.076 545.974 96.4933C536.484 90.632 523.645 87.7013 507.456 87.7013H458.891V220.837H513.736C520.435 220.837 525.738 219.581 529.646 217.069C533.553 214.278 536.484 210.929 538.438 207.021C540.67 203.114 542.206 198.927 543.043 194.461C544.159 189.716 544.997 185.39 545.555 181.483V263.96C544.997 260.052 544.159 255.866 543.043 251.4C542.206 246.934 540.67 242.748 538.438 238.84C536.484 234.653 533.553 231.304 529.646 228.792C525.738 226.001 520.435 224.605 513.736 224.605H458.891V338.064C458.891 345.879 459.17 352.159 459.728 356.904C460.566 361.37 462.24 364.859 464.752 367.371C467.264 369.883 471.032 371.557 476.056 372.395C481.359 372.953 488.477 373.232 497.408 373.232H512.48C528.669 373.232 541.508 370.441 550.998 364.859C560.487 358.997 567.884 352.299 573.187 344.763C578.49 337.227 582.118 329.691 584.072 322.155C586.305 314.619 587.98 309.176 589.096 305.827L576.955 376.581ZM739.133 216.651C757.833 218.604 773.324 223.908 785.605 232.56C797.886 241.212 806.817 251.54 812.399 263.541C818.261 275.264 820.773 287.824 819.935 301.221C819.098 314.619 815.051 326.9 807.794 338.064C800.537 349.228 789.931 358.579 775.975 366.115C762.02 373.372 744.854 377 724.479 377H614.37C619.115 376.442 623.441 375.604 627.349 374.488C631.256 373.372 634.466 371.418 636.978 368.627C639.769 365.836 641.862 361.928 643.258 356.904C644.933 351.88 645.77 345.042 645.77 336.389V124.544C645.77 115.892 644.933 109.053 643.258 104.029C641.862 99.0053 639.769 95.0978 636.978 92.3066C634.466 89.5155 631.256 87.5617 627.349 86.4453C623.441 85.3289 619.115 84.4915 614.37 83.9333H713.175C730.201 83.9333 744.575 86.864 756.298 92.7253C768.3 98.3075 777.65 105.425 784.349 114.077C791.047 122.73 795.094 132.359 796.49 142.965C797.886 153.572 796.63 163.899 792.722 173.947C789.094 183.716 782.814 192.508 773.882 200.323C764.95 208.138 753.367 213.58 739.133 216.651ZM679.263 215.813H713.175C724.061 215.813 733.132 212.743 740.389 206.603C747.925 200.183 753.646 192.228 757.554 182.739C761.462 173.249 763.415 162.922 763.415 151.757C763.694 140.593 762.02 130.266 758.391 120.776C755.042 111.286 749.599 103.471 742.063 97.3306C734.527 90.9111 725.038 87.7013 713.594 87.7013H699.778C690.567 88.8177 684.845 91.7484 682.613 96.4933C680.38 101.238 679.263 109.751 679.263 122.032V215.813ZM679.263 338.064C679.263 345.879 679.542 352.159 680.101 356.904C680.659 361.37 682.194 364.859 684.706 367.371C687.218 369.883 690.986 371.557 696.01 372.395C701.034 372.953 708.012 373.232 716.943 373.232H720.711C734.946 373.232 746.669 369.464 755.879 361.928C765.369 354.392 772.347 344.902 776.813 333.459C781.558 322.015 783.93 309.734 783.93 296.616C783.93 283.219 781.418 270.798 776.394 259.355C771.649 247.911 764.392 238.421 754.623 230.885C745.134 223.349 733.132 219.581 718.618 219.581H679.263V338.064ZM1136.49 303.733C1136.49 316.852 1133.7 328.435 1128.12 338.483C1122.54 348.252 1115.14 356.485 1105.93 363.184C1096.72 369.604 1086.11 374.488 1074.11 377.837C1062.11 381.187 1049.55 382.861 1036.43 382.861C1018.29 382.861 1000.43 379.791 982.842 373.651C965.538 367.231 950.605 357.323 938.045 343.925L953.536 279.451C952.419 296.476 954.094 311.269 958.56 323.829C963.026 336.11 969.166 346.298 976.981 354.392C984.796 362.486 993.728 368.487 1003.78 372.395C1013.82 376.302 1024.01 378.256 1034.34 378.256C1042.99 378.256 1051.36 376.86 1059.46 374.069C1067.55 371.278 1074.67 367.231 1080.81 361.928C1087.23 356.625 1092.25 349.926 1095.88 341.832C1099.79 333.738 1101.74 324.527 1101.74 314.2C1101.74 299.965 1098.12 287.964 1090.86 278.195C1083.6 268.147 1074.39 259.355 1063.23 251.819C1052.34 244.004 1040.48 236.747 1027.64 230.048C1015.08 223.349 1003.22 216.232 992.053 208.696C981.168 200.881 972.097 191.949 964.84 181.901C957.583 171.853 953.954 159.712 953.954 145.477C953.954 133.755 956.187 123.707 960.653 115.333C965.398 106.681 971.538 99.7031 979.074 94.4C986.89 88.8177 995.682 84.7706 1005.45 82.2586C1015.22 79.7466 1025.27 78.4906 1035.59 78.4906C1049.27 78.4906 1062.53 80.584 1075.37 84.7706C1088.49 88.9573 1099.23 94.6791 1107.61 101.936L1101.74 154.688C1101.74 142.128 1099.93 131.382 1096.3 122.451C1092.67 113.24 1087.93 105.704 1082.07 99.8426C1076.21 93.9813 1069.51 89.6551 1061.97 86.864C1054.43 84.0729 1046.76 82.6773 1038.94 82.6773C1031.97 82.6773 1024.99 83.7938 1018.01 86.0266C1011.31 88.2595 1005.31 91.6089 1000.01 96.0747C994.705 100.54 990.378 105.844 987.029 111.984C983.959 118.124 982.424 125.242 982.424 133.336C982.424 145.338 986.192 155.804 993.728 164.736C1001.54 173.388 1011.03 181.483 1022.2 189.019C1033.64 196.276 1046.06 203.393 1059.46 210.371C1072.86 217.348 1085.14 225.164 1096.3 233.816C1107.74 242.189 1117.23 251.958 1124.77 263.123C1132.59 274.287 1136.49 287.824 1136.49 303.733ZM1216.5 336.389C1216.5 345.042 1217.2 351.88 1218.59 356.904C1220.27 361.928 1222.5 365.836 1225.29 368.627C1228.08 371.418 1231.43 373.372 1235.34 374.488C1239.25 375.604 1243.43 376.442 1247.9 377H1151.6C1156.35 376.442 1160.68 375.604 1164.58 374.488C1168.49 373.372 1171.7 371.418 1174.21 368.627C1177 365.836 1179.1 361.928 1180.49 356.904C1182.17 351.88 1183 345.042 1183 336.389V124.544C1183 115.892 1182.17 109.053 1180.49 104.029C1179.1 99.0053 1177 95.0978 1174.21 92.3066C1171.7 89.5155 1168.49 87.5617 1164.58 86.4453C1160.68 85.3289 1156.35 84.4915 1151.6 83.9333H1247.9C1243.43 84.4915 1239.25 85.3289 1235.34 86.4453C1231.43 87.5617 1228.08 89.5155 1225.29 92.3066C1222.5 95.0978 1220.27 99.0053 1218.59 104.029C1217.2 109.053 1216.5 115.892 1216.5 124.544V336.389ZM1378.11 336.389C1378.11 345.042 1378.81 351.88 1380.2 356.904C1381.88 361.928 1383.97 365.836 1386.48 368.627C1389.27 371.418 1392.62 373.372 1396.53 374.488C1400.44 375.604 1404.63 376.442 1409.09 377H1312.8C1317.54 376.442 1321.87 375.604 1325.78 374.488C1329.68 373.372 1332.89 371.418 1335.41 368.627C1338.2 365.836 1340.29 361.928 1341.69 356.904C1343.36 351.88 1344.2 345.042 1344.2 336.389V87.7013H1343.78C1327.59 87.7013 1314.75 90.632 1305.26 96.4933C1295.77 102.076 1288.38 108.635 1283.07 116.171C1277.77 123.707 1274 131.243 1271.77 138.779C1269.81 146.315 1268.28 151.757 1267.16 155.107L1279.3 83.9333H1442.58L1455.14 155.107C1454.03 151.757 1452.35 146.315 1450.12 138.779C1447.89 131.243 1444.12 123.707 1438.82 116.171C1433.79 108.635 1426.4 102.076 1416.63 96.4933C1407.14 90.632 1394.44 87.7013 1378.53 87.7013H1378.11V336.389ZM1656.74 376.581V377H1473.78C1478.53 376.442 1482.85 375.604 1486.76 374.488C1490.67 373.372 1493.88 371.418 1496.39 368.627C1499.18 365.836 1501.27 361.928 1502.67 356.904C1504.34 351.88 1505.18 345.042 1505.18 336.389V124.544C1505.18 115.892 1504.34 109.053 1502.67 104.029C1501.27 99.0053 1499.18 95.0978 1496.39 92.3066C1493.88 89.5155 1490.67 87.5617 1486.76 86.4453C1482.85 85.3289 1478.53 84.4915 1473.78 83.9333H1651.71L1663.86 155.107C1662.74 151.757 1661.07 146.315 1658.83 138.779C1656.88 131.243 1653.25 123.707 1647.95 116.171C1642.64 108.635 1635.25 102.076 1625.76 96.4933C1616.27 90.632 1603.43 87.7013 1587.24 87.7013H1538.67V220.837H1593.52C1600.22 220.837 1605.52 219.581 1609.43 217.069C1613.34 214.278 1616.27 210.929 1618.22 207.021C1620.45 203.114 1621.99 198.927 1622.83 194.461C1623.94 189.716 1624.78 185.39 1625.34 181.483V263.96C1624.78 260.052 1623.94 255.866 1622.83 251.4C1621.99 246.934 1620.45 242.748 1618.22 238.84C1616.27 234.653 1613.34 231.304 1609.43 228.792C1605.52 226.001 1600.22 224.605 1593.52 224.605H1538.67V338.064C1538.67 345.879 1538.95 352.159 1539.51 356.904C1540.35 361.37 1542.02 364.859 1544.54 367.371C1547.05 369.883 1550.82 371.557 1555.84 372.395C1561.14 372.953 1568.26 373.232 1577.19 373.232H1592.26C1608.45 373.232 1621.29 370.441 1630.78 364.859C1640.27 358.997 1647.67 352.299 1652.97 344.763C1658.27 337.227 1661.9 329.691 1663.86 322.155C1666.09 314.619 1667.76 309.176 1668.88 305.827L1656.74 376.581Z" fill="#F5F5F5"/>
<line y1="23.6666" x2="1718.67" y2="23.6666" stroke="#424242" stroke-width="1.33333"/>
<line x1="37.6667" y1="7" x2="37.6666" y2="458" stroke="#424242" stroke-width="1.33333"/>
<line x1="393.667" y1="7" x2="393.667" y2="458" stroke="#424242" stroke-width="1.33333"/>
<line x1="588.667" y1="7" x2="588.667" y2="458" stroke="#424242" stroke-width="1.33333"/>
<line x1="613.667" y1="7" x2="613.667" y2="458" stroke="#424242" stroke-width="1.33333"/>
<line x1="819.667" y1="7" x2="819.667" y2="458" stroke="#424242" stroke-width="1.33333"/>
<line x1="936.667" y1="7" x2="936.667" y2="458" stroke="#424242" stroke-width="1.33333"/>
<line x1="1133.67" y1="7" x2="1133.67" y2="458" stroke="#424242" stroke-width="1.33333"/>
<line x1="1151.67" y1="7" x2="1151.67" y2="458" stroke="#424242" stroke-width="1.33333"/>
<line x1="1244.67" y1="7" x2="1244.67" y2="458" stroke="#424242" stroke-width="1.33333"/>
<line x1="1263.67" y1="7" x2="1263.67" y2="458" stroke="#424242" stroke-width="1.33333"/>
<line x1="1451.67" y1="14" x2="1451.67" y2="464" stroke="#424242" stroke-width="1.33333"/>
<line x1="1472.67" y1="14" x2="1472.67" y2="464" stroke="#424242" stroke-width="1.33333"/>
<line x1="1667.67" y1="14" x2="1667.67" y2="464" stroke="#424242" stroke-width="1.33333"/>
<line y1="435.333" x2="1719" y2="435.333" stroke="#424242" stroke-width="1.33333"/>
</g>
<defs>
<clipPath id="clip0">
<rect width="1719" height="458" fill="white"/>
</clipPath>
</defs>
</svg>
