<svg width="153" height="188" viewBox="0 0 153 188" fill="none" xmlns="http://www.w3.org/2000/svg">
<g clip-path="url(#clip0)">
<path d="M130 91.4C130 109.2 125.8 124.6 117.4 137.6L139.3 158L130.6 167.6L109.3 148.1C96.5 162.3 79.2 169.4 57.4 169.4C43.6 169.4 32.3 165.7 23.5 158.3C14.9 150.7 10.6 140.3 10.6 127.1C10.6 116.9 13.1 107.8 18.1 99.8C23.1 91.8 29.5 86 37.3 82.4C29.1 72.8 25 62.6 25 51.8C25 40.2 28.9 31.2 36.7 24.8C44.7 18.2 55 14.9 67.6 14.9C77 14.9 85.5 18.7 93.1 26.3C95.7 28.9 97.6 32 98.8 35.6L89.5 43.7C84.7 33.3 76.6 28.1 65.2 28.1C48.8 28.1 40.6 36 40.6 51.8C40.6 59.8 44 67.6 50.8 75.2C53.4 78.2 56.9 81.6 61.3 85.4C65.7 89.2 69.1 92.3 71.5 94.7L107.8 128.9C114.2 117.5 117.4 104.8 117.4 90.8V81.2H130V91.4ZM24.4 126.2C24.4 135.4 27.5 142.8 33.7 148.4C39.9 154 47.8 156.8 57.4 156.8C74.4 156.8 88.6 151.1 100 139.7L64 106.4L46.6 91.7C40 94.9 34.6 99.5 30.4 105.5C26.4 111.5 24.4 118.4 24.4 126.2Z" fill="#F5F5F5"/>
</g>
<defs>
<clipPath id="clip0">
<rect width="153" height="188" fill="white"/>
</clipPath>
</defs>
</svg>
